# MagicaVoxel @ Ephtracy

# group
o 

# material
mtllib black_car.mtl
usemtl palette

# normals
vn -1 0 0
vn 1 0 0
vn 0 0 1
vn 0 0 -1
vn 0 -1 0
vn 0 1 0

# texcoords
vt 0.0449219 0.5
vt 0.162109 0.5
vt 0.564453 0.5
vt 0.587891 0.5
vt 0.841797 0.5
vt 0.966797 0.5
vt 0.978516 0.5
vt 0.982422 0.5
vt 0.994141 0.5

# verts
v -0.9 0 0.6
v -0.9 0 0.5
v -0.9 0 0.4
v -0.9 0 0.0999999
v -0.9 0 -5.96046e-08
v -0.9 0 -0.1
v -0.9 0.1 0.5
v -0.9 0.1 0.4
v -0.9 0.1 0.0999999
v -0.9 0.1 -5.96046e-08
v -0.9 0.2 0.6
v -0.9 0.2 0.5
v -0.9 0.2 0.4
v -0.9 0.2 0.0999999
v -0.9 0.2 -5.96046e-08
v -0.9 0.2 -0.1
v -0.9 0.3 0.6
v -0.9 0.3 0.5
v -0.9 0.3 0.4
v -0.9 0.3 0.0999999
v -0.9 0.3 -5.96046e-08
v -0.9 0.3 -0.1
v -0.7 0.3 0.6
v -0.7 0.3 0.5
v -0.7 0.3 0.0999999
v -0.7 0.3 -5.96046e-08
v -0.7 0.3 -0.1
v -0.7 0.4 0.2
v -0.7 0.4 0.0999999
v -0.7 0.5 0.5
v -0.7 0.5 0.2
v -0.7 0.5 -5.96046e-08
v -0.7 0.6 0.6
v -0.7 0.6 -0.1
v 0.2 0.3 0.6
v 0.2 0.3 0.5
v 0.2 0.3 0.0999999
v 0.2 0.3 -5.96046e-08
v 0.2 0.3 -0.1
v 0.2 0.4 0.2
v 0.2 0.4 0.0999999
v 0.2 0.5 0.5
v 0.2 0.5 0.2
v 0.2 0.5 -5.96046e-08
v 0.2 0.6 0.6
v 0.2 0.6 -0.1
v 0.5 0 0.6
v 0.5 0 0.4
v 0.5 0 0.0999999
v 0.5 0 -0.1
v 0.5 0.1 0.4
v 0.5 0.1 0.0999999
v 0.5 0.2 0.6
v 0.5 0.2 0.4
v 0.5 0.2 0.0999999
v 0.5 0.2 -0.1
v 0.5 0.3 0.6
v 0.5 0.3 0.4
v 0.5 0.3 0.0999999
v 0.5 0.3 -0.1
v -0.9 0 0.6
v -0.9 0.2 0.6
v -0.9 0.3 0.6
v -0.8 0.2 0.6
v -0.8 0.3 0.6
v -0.7 0 0.6
v -0.7 0.2 0.6
v -0.7 0.3 0.6
v -0.7 0.6 0.6
v -0.6 0 0.6
v -0.6 0.1 0.6
v -0.6 0.3 0.6
v -0.6 0.5 0.6
v -0.5 0 0.6
v -0.5 0.1 0.6
v -0.5 0.3 0.6
v -0.5 0.4 0.6
v -0.4 0 0.6
v -0.4 0.2 0.6
v -0.4 0.4 0.6
v -0.4 0.5 0.6
v -0.3 0.3 0.6
v -0.3 0.5 0.6
v -0.2 0.3 0.6
v -0.2 0.5 0.6
v -0.1 0 0.6
v -0.1 0.2 0.6
v -0.1 0.3 0.6
v -0.1 0.4 0.6
v 0 0 0.6
v 0 0.1 0.6
v 0 0.4 0.6
v 0 0.5 0.6
v 0.1 0 0.6
v 0.1 0.1 0.6
v 0.1 0.3 0.6
v 0.1 0.4 0.6
v 0.2 0 0.6
v 0.2 0.2 0.6
v 0.2 0.3 0.6
v 0.2 0.6 0.6
v 0.4 0.2 0.6
v 0.4 0.3 0.6
v 0.5 0 0.6
v 0.5 0.2 0.6
v 0.5 0.3 0.6
v -0.9 0 -0.1
v -0.9 0.2 -0.1
v -0.9 0.3 -0.1
v -0.8 0.2 -0.1
v -0.8 0.3 -0.1
v -0.7 0 -0.1
v -0.7 0.2 -0.1
v -0.7 0.3 -0.1
v -0.7 0.6 -0.1
v -0.6 0 -0.1
v -0.6 0.1 -0.1
v -0.6 0.3 -0.1
v -0.6 0.5 -0.1
v -0.5 0 -0.1
v -0.5 0.1 -0.1
v -0.5 0.3 -0.1
v -0.5 0.4 -0.1
v -0.4 0 -0.1
v -0.4 0.2 -0.1
v -0.4 0.4 -0.1
v -0.4 0.5 -0.1
v -0.3 0.3 -0.1
v -0.3 0.5 -0.1
v -0.2 0.3 -0.1
v -0.2 0.5 -0.1
v -0.1 0 -0.1
v -0.1 0.2 -0.1
v -0.1 0.3 -0.1
v -0.1 0.4 -0.1
v 0 0 -0.1
v 0 0.1 -0.1
v 0 0.4 -0.1
v 0 0.5 -0.1
v 0.1 0 -0.1
v 0.1 0.1 -0.1
v 0.1 0.3 -0.1
v 0.1 0.4 -0.1
v 0.2 0 -0.1
v 0.2 0.2 -0.1
v 0.2 0.3 -0.1
v 0.2 0.6 -0.1
v 0.4 0.2 -0.1
v 0.4 0.3 -0.1
v 0.5 0 -0.1
v 0.5 0.2 -0.1
v 0.5 0.3 -0.1
v -0.9 0 0.6
v -0.7 0 0.6
v -0.6 0 0.6
v -0.5 0 0.6
v -0.4 0 0.6
v -0.1 0 0.6
v 0 0 0.6
v 0.1 0 0.6
v 0.2 0 0.6
v 0.5 0 0.6
v -0.9 0 0.5
v -0.8 0 0.5
v -0.7 0 0.5
v -0.6 0 0.5
v -0.5 0 0.5
v -0.4 0 0.5
v -0.1 0 0.5
v 0 0 0.5
v 0.1 0 0.5
v 0.2 0 0.5
v -0.9 0 0.4
v -0.8 0 0.4
v 0.4 0 0.4
v 0.5 0 0.4
v -0.9 0 0.0999999
v -0.8 0 0.0999999
v 0.4 0 0.0999999
v 0.5 0 0.0999999
v -0.9 0 -5.96046e-08
v -0.8 0 -5.96046e-08
v -0.7 0 -5.96046e-08
v -0.6 0 -5.96046e-08
v -0.5 0 -5.96046e-08
v -0.4 0 -5.96046e-08
v -0.1 0 -5.96046e-08
v 0 0 -5.96046e-08
v 0.1 0 -5.96046e-08
v 0.2 0 -5.96046e-08
v -0.9 0 -0.1
v -0.7 0 -0.1
v -0.6 0 -0.1
v -0.5 0 -0.1
v -0.4 0 -0.1
v -0.1 0 -0.1
v 0 0 -0.1
v 0.1 0 -0.1
v 0.2 0 -0.1
v 0.5 0 -0.1
v -0.9 0.3 0.6
v -0.8 0.3 0.6
v -0.7 0.3 0.6
v 0.2 0.3 0.6
v 0.4 0.3 0.6
v 0.5 0.3 0.6
v -0.9 0.3 0.5
v -0.8 0.3 0.5
v -0.7 0.3 0.5
v 0.2 0.3 0.5
v -0.9 0.3 0.4
v -0.8 0.3 0.4
v 0.4 0.3 0.4
v 0.5 0.3 0.4
v -0.9 0.3 0.0999999
v -0.8 0.3 0.0999999
v -0.7 0.3 0.0999999
v 0.2 0.3 0.0999999
v 0.4 0.3 0.0999999
v 0.5 0.3 0.0999999
v -0.9 0.3 -5.96046e-08
v -0.8 0.3 -5.96046e-08
v -0.7 0.3 -5.96046e-08
v 0.2 0.3 -5.96046e-08
v -0.9 0.3 -0.1
v -0.8 0.3 -0.1
v -0.7 0.3 -0.1
v 0.2 0.3 -0.1
v 0.4 0.3 -0.1
v 0.5 0.3 -0.1
v -0.7 0.6 0.6
v 0.2 0.6 0.6
v -0.7 0.6 -0.1
v 0.2 0.6 -0.1

# faces
f 7/9/1 2/9/1 1/9/1
f 7/8/1 3/8/1 2/8/1
f 8/6/1 4/6/1 3/6/1
f 8/8/1 3/8/1 7/8/1
f 9/8/1 5/8/1 4/8/1
f 9/6/1 4/6/1 8/6/1
f 10/9/1 6/9/1 5/9/1
f 10/8/1 5/8/1 9/8/1
f 11/9/1 9/9/1 8/9/1
f 11/9/1 8/9/1 7/9/1
f 11/9/1 10/9/1 9/9/1
f 11/9/1 7/9/1 1/9/1
f 12/9/1 10/9/1 11/9/1
f 13/9/1 10/9/1 12/9/1
f 14/9/1 10/9/1 13/9/1
f 15/9/1 6/9/1 10/9/1
f 15/9/1 10/9/1 14/9/1
f 16/9/1 6/9/1 15/9/1
f 17/1/1 12/1/1 11/1/1
f 18/5/1 13/5/1 12/5/1
f 18/1/1 12/1/1 17/1/1
f 19/9/1 14/9/1 13/9/1
f 19/5/1 13/5/1 18/5/1
f 20/5/1 15/5/1 14/5/1
f 20/9/1 14/9/1 19/9/1
f 21/1/1 16/1/1 15/1/1
f 21/5/1 15/5/1 20/5/1
f 22/1/1 16/1/1 21/1/1
f 28/4/1 25/4/1 24/4/1
f 29/3/1 26/3/1 25/3/1
f 29/4/1 25/4/1 28/4/1
f 30/9/1 24/9/1 23/9/1
f 30/4/1 28/4/1 24/4/1
f 31/3/1 29/3/1 28/3/1
f 31/4/1 28/4/1 30/4/1
f 32/3/1 26/3/1 29/3/1
f 32/3/1 29/3/1 31/3/1
f 32/9/1 27/9/1 26/9/1
f 33/9/1 31/9/1 30/9/1
f 33/9/1 30/9/1 23/9/1
f 33/9/1 32/9/1 31/9/1
f 34/9/1 27/9/1 32/9/1
f 34/9/1 32/9/1 33/9/1
f 36/4/2 37/4/2 40/4/2
f 37/3/2 38/3/2 41/3/2
f 40/4/2 37/4/2 41/4/2
f 35/9/2 36/9/2 42/9/2
f 36/4/2 40/4/2 42/4/2
f 40/3/2 41/3/2 43/3/2
f 42/4/2 40/4/2 43/4/2
f 41/3/2 38/3/2 44/3/2
f 43/3/2 41/3/2 44/3/2
f 38/9/2 39/9/2 44/9/2
f 42/9/2 43/9/2 45/9/2
f 35/9/2 42/9/2 45/9/2
f 43/9/2 44/9/2 45/9/2
f 44/9/2 39/9/2 46/9/2
f 45/9/2 44/9/2 46/9/2
f 47/9/2 48/9/2 51/9/2
f 48/7/2 49/7/2 51/7/2
f 49/9/2 50/9/2 52/9/2
f 51/7/2 49/7/2 52/7/2
f 47/9/2 51/9/2 53/9/2
f 51/9/2 52/9/2 53/9/2
f 53/9/2 52/9/2 54/9/2
f 52/9/2 50/9/2 55/9/2
f 54/9/2 52/9/2 55/9/2
f 55/9/2 50/9/2 56/9/2
f 53/2/2 54/2/2 57/2/2
f 54/9/2 55/9/2 58/9/2
f 57/2/2 54/2/2 58/2/2
f 55/2/2 56/2/2 59/2/2
f 58/9/2 55/9/2 59/9/2
f 59/2/2 56/2/2 60/2/2
f 64/9/3 62/9/3 61/9/3
f 64/1/3 63/1/3 62/1/3
f 65/1/3 63/1/3 64/1/3
f 66/9/3 64/9/3 61/9/3
f 66/9/3 65/9/3 64/9/3
f 67/9/3 65/9/3 66/9/3
f 68/9/3 65/9/3 67/9/3
f 70/8/3 67/8/3 66/8/3
f 71/8/3 67/8/3 70/8/3
f 72/9/3 68/9/3 67/9/3
f 72/9/3 69/9/3 68/9/3
f 73/9/3 69/9/3 72/9/3
f 74/6/3 71/6/3 70/6/3
f 75/8/3 67/8/3 71/8/3
f 75/6/3 71/6/3 74/6/3
f 76/9/3 72/9/3 67/9/3
f 76/3/3 73/3/3 72/3/3
f 77/3/3 73/3/3 76/3/3
f 78/8/3 75/8/3 74/8/3
f 79/8/3 67/8/3 75/8/3
f 79/8/3 75/8/3 78/8/3
f 79/9/3 76/9/3 67/9/3
f 80/3/3 73/3/3 77/3/3
f 80/4/3 77/4/3 76/4/3
f 81/9/3 69/9/3 73/9/3
f 81/3/3 73/3/3 80/3/3
f 82/4/3 80/4/3 76/4/3
f 82/9/3 76/9/3 79/9/3
f 82/4/3 81/4/3 80/4/3
f 82/9/3 79/9/3 78/9/3
f 83/9/3 69/9/3 81/9/3
f 83/4/3 81/4/3 82/4/3
f 84/9/3 82/9/3 78/9/3
f 84/9/3 83/9/3 82/9/3
f 85/9/3 69/9/3 83/9/3
f 85/9/3 83/9/3 84/9/3
f 86/9/3 84/9/3 78/9/3
f 87/9/3 84/9/3 86/9/3
f 88/3/3 85/3/3 84/3/3
f 88/9/3 84/9/3 87/9/3
f 89/3/3 85/3/3 88/3/3
f 90/8/3 87/8/3 86/8/3
f 91/8/3 87/8/3 90/8/3
f 92/3/3 85/3/3 89/3/3
f 92/4/3 89/4/3 88/4/3
f 93/9/3 69/9/3 85/9/3
f 93/3/3 85/3/3 92/3/3
f 94/6/3 91/6/3 90/6/3
f 95/8/3 87/8/3 91/8/3
f 95/6/3 91/6/3 94/6/3
f 96/4/3 92/4/3 88/4/3
f 96/9/3 88/9/3 87/9/3
f 97/9/3 93/9/3 92/9/3
f 97/4/3 92/4/3 96/4/3
f 98/8/3 95/8/3 94/8/3
f 99/8/3 87/8/3 95/8/3
f 99/8/3 95/8/3 98/8/3
f 99/9/3 96/9/3 87/9/3
f 99/9/3 97/9/3 96/9/3
f 100/9/3 97/9/3 99/9/3
f 101/9/3 93/9/3 97/9/3
f 101/9/3 97/9/3 100/9/3
f 101/9/3 69/9/3 93/9/3
f 102/9/3 100/9/3 99/9/3
f 102/9/3 99/9/3 98/9/3
f 103/9/3 100/9/3 102/9/3
f 104/9/3 102/9/3 98/9/3
f 105/2/3 103/2/3 102/2/3
f 105/9/3 102/9/3 104/9/3
f 106/2/3 103/2/3 105/2/3
f 107/9/4 108/9/4 110/9/4
f 108/1/4 109/1/4 110/1/4
f 110/1/4 109/1/4 111/1/4
f 107/9/4 110/9/4 112/9/4
f 110/9/4 111/9/4 112/9/4
f 112/9/4 111/9/4 113/9/4
f 113/9/4 111/9/4 114/9/4
f 112/8/4 113/8/4 116/8/4
f 116/8/4 113/8/4 117/8/4
f 113/9/4 114/9/4 118/9/4
f 114/9/4 115/9/4 118/9/4
f 118/9/4 115/9/4 119/9/4
f 116/6/4 117/6/4 120/6/4
f 117/8/4 113/8/4 121/8/4
f 120/6/4 117/6/4 121/6/4
f 113/9/4 118/9/4 122/9/4
f 118/3/4 119/3/4 122/3/4
f 122/3/4 119/3/4 123/3/4
f 120/8/4 121/8/4 124/8/4
f 121/8/4 113/8/4 125/8/4
f 124/8/4 121/8/4 125/8/4
f 113/9/4 122/9/4 125/9/4
f 123/3/4 119/3/4 126/3/4
f 122/4/4 123/4/4 126/4/4
f 119/9/4 115/9/4 127/9/4
f 126/3/4 119/3/4 127/3/4
f 122/4/4 126/4/4 128/4/4
f 125/9/4 122/9/4 128/9/4
f 126/4/4 127/4/4 128/4/4
f 124/9/4 125/9/4 128/9/4
f 127/9/4 115/9/4 129/9/4
f 128/4/4 127/4/4 129/4/4
f 124/9/4 128/9/4 130/9/4
f 128/9/4 129/9/4 130/9/4
f 129/9/4 115/9/4 131/9/4
f 130/9/4 129/9/4 131/9/4
f 124/9/4 130/9/4 132/9/4
f 132/9/4 130/9/4 133/9/4
f 130/3/4 131/3/4 134/3/4
f 133/9/4 130/9/4 134/9/4
f 134/3/4 131/3/4 135/3/4
f 132/8/4 133/8/4 136/8/4
f 136/8/4 133/8/4 137/8/4
f 135/3/4 131/3/4 138/3/4
f 134/4/4 135/4/4 138/4/4
f 131/9/4 115/9/4 139/9/4
f 138/3/4 131/3/4 139/3/4
f 136/6/4 137/6/4 140/6/4
f 137/8/4 133/8/4 141/8/4
f 140/6/4 137/6/4 141/6/4
f 134/4/4 138/4/4 142/4/4
f 133/9/4 134/9/4 142/9/4
f 138/9/4 139/9/4 143/9/4
f 142/4/4 138/4/4 143/4/4
f 140/8/4 141/8/4 144/8/4
f 141/8/4 133/8/4 145/8/4
f 144/8/4 141/8/4 145/8/4
f 133/9/4 142/9/4 145/9/4
f 142/9/4 143/9/4 145/9/4
f 145/9/4 143/9/4 146/9/4
f 143/9/4 139/9/4 147/9/4
f 146/9/4 143/9/4 147/9/4
f 139/9/4 115/9/4 147/9/4
f 145/9/4 146/9/4 148/9/4
f 144/9/4 145/9/4 148/9/4
f 148/9/4 146/9/4 149/9/4
f 144/9/4 148/9/4 150/9/4
f 148/2/4 149/2/4 151/2/4
f 150/9/4 148/9/4 151/9/4
f 151/2/4 149/2/4 152/2/4
f 163/9/5 154/9/5 153/9/5
f 164/9/5 154/9/5 163/9/5
f 165/8/5 155/8/5 154/8/5
f 165/9/5 154/9/5 164/9/5
f 166/6/5 156/6/5 155/6/5
f 166/8/5 155/8/5 165/8/5
f 167/8/5 157/8/5 156/8/5
f 167/6/5 156/6/5 166/6/5
f 168/9/5 158/9/5 157/9/5
f 168/8/5 157/8/5 167/8/5
f 169/8/5 159/8/5 158/8/5
f 169/9/5 158/9/5 168/9/5
f 170/6/5 160/6/5 159/6/5
f 170/8/5 159/8/5 169/8/5
f 171/8/5 161/8/5 160/8/5
f 171/6/5 160/6/5 170/6/5
f 172/9/5 162/9/5 161/9/5
f 172/8/5 161/8/5 171/8/5
f 173/8/5 164/8/5 163/8/5
f 174/9/5 171/9/5 170/9/5
f 174/8/5 164/8/5 173/8/5
f 174/9/5 165/9/5 164/9/5
f 174/9/5 172/9/5 171/9/5
f 174/9/5 166/9/5 165/9/5
f 174/9/5 170/9/5 169/9/5
f 174/9/5 169/9/5 168/9/5
f 174/9/5 168/9/5 167/9/5
f 174/9/5 167/9/5 166/9/5
f 175/9/5 162/9/5 172/9/5
f 175/9/5 172/9/5 174/9/5
f 176/9/5 162/9/5 175/9/5
f 177/6/5 174/6/5 173/6/5
f 178/9/5 175/9/5 174/9/5
f 178/6/5 174/6/5 177/6/5
f 179/7/5 176/7/5 175/7/5
f 179/9/5 175/9/5 178/9/5
f 180/7/5 176/7/5 179/7/5
f 181/8/5 178/8/5 177/8/5
f 182/9/5 179/9/5 178/9/5
f 182/8/5 178/8/5 181/8/5
f 182/9/5 180/9/5 179/9/5
f 183/9/5 180/9/5 182/9/5
f 184/9/5 180/9/5 183/9/5
f 185/9/5 180/9/5 184/9/5
f 186/9/5 180/9/5 185/9/5
f 187/9/5 180/9/5 186/9/5
f 188/9/5 180/9/5 187/9/5
f 189/9/5 180/9/5 188/9/5
f 190/9/5 180/9/5 189/9/5
f 191/9/5 182/9/5 181/9/5
f 191/9/5 183/9/5 182/9/5
f 192/8/5 184/8/5 183/8/5
f 192/9/5 183/9/5 191/9/5
f 193/6/5 185/6/5 184/6/5
f 193/8/5 184/8/5 192/8/5
f 194/8/5 186/8/5 185/8/5
f 194/6/5 185/6/5 193/6/5
f 195/9/5 187/9/5 186/9/5
f 195/8/5 186/8/5 194/8/5
f 196/8/5 188/8/5 187/8/5
f 196/9/5 187/9/5 195/9/5
f 197/6/5 189/6/5 188/6/5
f 197/8/5 188/8/5 196/8/5
f 198/8/5 190/8/5 189/8/5
f 198/6/5 189/6/5 197/6/5
f 199/9/5 180/9/5 190/9/5
f 199/8/5 190/8/5 198/8/5
f 200/9/5 180/9/5 199/9/5
f 201/1/6 202/1/6 207/1/6
f 202/9/6 203/9/6 208/9/6
f 207/1/6 202/1/6 208/1/6
f 208/9/6 203/9/6 209/9/6
f 204/9/6 205/9/6 210/9/6
f 207/5/6 208/5/6 211/5/6
f 208/9/6 209/9/6 212/9/6
f 211/5/6 208/5/6 212/5/6
f 205/2/6 206/2/6 213/2/6
f 210/9/6 205/9/6 213/9/6
f 213/2/6 206/2/6 214/2/6
f 211/9/6 212/9/6 215/9/6
f 212/9/6 209/9/6 216/9/6
f 215/9/6 212/9/6 216/9/6
f 216/9/6 209/9/6 217/9/6
f 210/9/6 213/9/6 218/9/6
f 213/9/6 214/9/6 218/9/6
f 218/9/6 214/9/6 219/9/6
f 219/9/6 214/9/6 220/9/6
f 215/5/6 216/5/6 221/5/6
f 216/9/6 217/9/6 222/9/6
f 221/5/6 216/5/6 222/5/6
f 222/9/6 217/9/6 223/9/6
f 218/9/6 219/9/6 224/9/6
f 221/1/6 222/1/6 225/1/6
f 222/9/6 223/9/6 226/9/6
f 225/1/6 222/1/6 226/1/6
f 226/9/6 223/9/6 227/9/6
f 224/9/6 219/9/6 228/9/6
f 219/2/6 220/2/6 229/2/6
f 228/9/6 219/9/6 229/9/6
f 229/2/6 220/2/6 230/2/6
f 231/9/6 232/9/6 233/9/6
f 233/9/6 232/9/6 234/9/6
