# MagicaVoxel @ Ephtracy

# group
o 

# material
mtllib gray_car.mtl
usemtl palette

# normals
vn -1 0 0
vn 1 0 0
vn 0 0 1
vn 0 0 -1
vn 0 -1 0
vn 0 1 0

# texcoords
vt 0.0449219 0.5
vt 0.162109 0.5
vt 0.564453 0.5
vt 0.587891 0.5
vt 0.841797 0.5
vt 0.966797 0.5
vt 0.978516 0.5
vt 0.982422 0.5

# verts
v -0.9 0 0.6
v -0.9 0 0.4
v -0.9 0 0.0999999
v -0.9 0 -0.1
v -0.9 0.1 0.4
v -0.9 0.1 0.0999999
v -0.9 0.2 0.6
v -0.9 0.2 0.5
v -0.9 0.2 0.4
v -0.9 0.2 0.0999999
v -0.9 0.2 -5.96046e-08
v -0.9 0.2 -0.1
v -0.9 0.3 0.6
v -0.9 0.3 0.5
v -0.9 0.3 0.4
v -0.9 0.3 0.0999999
v -0.9 0.3 -5.96046e-08
v -0.9 0.3 -0.1
v -0.7 0.3 0.6
v -0.7 0.3 0.5
v -0.7 0.3 0.0999999
v -0.7 0.3 -5.96046e-08
v -0.7 0.3 -0.1
v -0.7 0.4 0.2
v -0.7 0.4 0.0999999
v -0.7 0.5 0.5
v -0.7 0.5 0.2
v -0.7 0.5 -5.96046e-08
v -0.7 0.6 0.6
v -0.7 0.6 -0.1
v 0.2 0.3 0.6
v 0.2 0.3 0.5
v 0.2 0.3 0.0999999
v 0.2 0.3 -5.96046e-08
v 0.2 0.3 -0.1
v 0.2 0.4 0.2
v 0.2 0.4 0.0999999
v 0.2 0.5 0.5
v 0.2 0.5 0.2
v 0.2 0.5 -5.96046e-08
v 0.2 0.6 0.6
v 0.2 0.6 -0.1
v 0.5 0 0.6
v 0.5 0 0.4
v 0.5 0 0.0999999
v 0.5 0 -0.1
v 0.5 0.1 0.4
v 0.5 0.1 0.0999999
v 0.5 0.2 0.6
v 0.5 0.2 0.4
v 0.5 0.2 0.0999999
v 0.5 0.2 -0.1
v 0.5 0.3 0.6
v 0.5 0.3 0.4
v 0.5 0.3 0.0999999
v 0.5 0.3 -0.1
v -0.9 0 0.6
v -0.9 0.2 0.6
v -0.9 0.3 0.6
v -0.8 0.2 0.6
v -0.8 0.3 0.6
v -0.7 0.3 0.6
v -0.7 0.6 0.6
v -0.6 0 0.6
v -0.6 0.1 0.6
v -0.6 0.3 0.6
v -0.6 0.5 0.6
v -0.5 0 0.6
v -0.5 0.1 0.6
v -0.5 0.3 0.6
v -0.5 0.4 0.6
v -0.4 0.4 0.6
v -0.4 0.5 0.6
v -0.3 0.3 0.6
v -0.3 0.5 0.6
v -0.2 0.3 0.6
v -0.2 0.5 0.6
v -0.1 0.3 0.6
v -0.1 0.4 0.6
v 0 0 0.6
v 0 0.1 0.6
v 0 0.4 0.6
v 0 0.5 0.6
v 0.1 0 0.6
v 0.1 0.1 0.6
v 0.1 0.3 0.6
v 0.1 0.4 0.6
v 0.2 0.3 0.6
v 0.2 0.6 0.6
v 0.4 0.2 0.6
v 0.4 0.3 0.6
v 0.5 0 0.6
v 0.5 0.2 0.6
v 0.5 0.3 0.6
v -0.9 0 -0.1
v -0.9 0.2 -0.1
v -0.9 0.3 -0.1
v -0.8 0.2 -0.1
v -0.8 0.3 -0.1
v -0.7 0.3 -0.1
v -0.7 0.6 -0.1
v -0.6 0 -0.1
v -0.6 0.1 -0.1
v -0.6 0.3 -0.1
v -0.6 0.5 -0.1
v -0.5 0 -0.1
v -0.5 0.1 -0.1
v -0.5 0.3 -0.1
v -0.5 0.4 -0.1
v -0.4 0.4 -0.1
v -0.4 0.5 -0.1
v -0.3 0.3 -0.1
v -0.3 0.5 -0.1
v -0.2 0.3 -0.1
v -0.2 0.5 -0.1
v -0.1 0.3 -0.1
v -0.1 0.4 -0.1
v 0 0 -0.1
v 0 0.1 -0.1
v 0 0.4 -0.1
v 0 0.5 -0.1
v 0.1 0 -0.1
v 0.1 0.1 -0.1
v 0.1 0.3 -0.1
v 0.1 0.4 -0.1
v 0.2 0.3 -0.1
v 0.2 0.6 -0.1
v 0.4 0.2 -0.1
v 0.4 0.3 -0.1
v 0.5 0 -0.1
v 0.5 0.2 -0.1
v 0.5 0.3 -0.1
v -0.9 0 0.6
v -0.6 0 0.6
v -0.5 0 0.6
v 0 0 0.6
v 0.1 0 0.6
v 0.5 0 0.6
v -0.6 0 0.5
v -0.5 0 0.5
v 0 0 0.5
v 0.1 0 0.5
v -0.9 0 0.4
v -0.8 0 0.4
v 0.4 0 0.4
v 0.5 0 0.4
v -0.9 0 0.0999999
v -0.8 0 0.0999999
v 0.4 0 0.0999999
v 0.5 0 0.0999999
v -0.6 0 -5.96046e-08
v -0.5 0 -5.96046e-08
v 0 0 -5.96046e-08
v 0.1 0 -5.96046e-08
v -0.9 0 -0.1
v -0.6 0 -0.1
v -0.5 0 -0.1
v 0 0 -0.1
v 0.1 0 -0.1
v 0.5 0 -0.1
v -0.9 0.3 0.6
v -0.8 0.3 0.6
v -0.7 0.3 0.6
v 0.2 0.3 0.6
v 0.4 0.3 0.6
v 0.5 0.3 0.6
v -0.9 0.3 0.5
v -0.8 0.3 0.5
v -0.7 0.3 0.5
v 0.2 0.3 0.5
v -0.9 0.3 0.4
v -0.8 0.3 0.4
v 0.4 0.3 0.4
v 0.5 0.3 0.4
v -0.9 0.3 0.0999999
v -0.8 0.3 0.0999999
v -0.7 0.3 0.0999999
v 0.2 0.3 0.0999999
v 0.4 0.3 0.0999999
v 0.5 0.3 0.0999999
v -0.9 0.3 -5.96046e-08
v -0.8 0.3 -5.96046e-08
v -0.7 0.3 -5.96046e-08
v 0.2 0.3 -5.96046e-08
v -0.9 0.3 -0.1
v -0.8 0.3 -0.1
v -0.7 0.3 -0.1
v 0.2 0.3 -0.1
v 0.4 0.3 -0.1
v 0.5 0.3 -0.1
v -0.7 0.6 0.6
v 0.2 0.6 0.6
v -0.7 0.6 -0.1
v 0.2 0.6 -0.1

# faces
f 5/8/1 2/8/1 1/8/1
f 5/6/1 3/6/1 2/6/1
f 6/8/1 4/8/1 3/8/1
f 6/6/1 3/6/1 5/6/1
f 7/8/1 5/8/1 1/8/1
f 7/8/1 6/8/1 5/8/1
f 8/8/1 6/8/1 7/8/1
f 9/8/1 6/8/1 8/8/1
f 10/8/1 4/8/1 6/8/1
f 10/8/1 6/8/1 9/8/1
f 11/8/1 4/8/1 10/8/1
f 12/8/1 4/8/1 11/8/1
f 13/1/1 8/1/1 7/1/1
f 14/5/1 9/5/1 8/5/1
f 14/1/1 8/1/1 13/1/1
f 15/8/1 10/8/1 9/8/1
f 15/5/1 9/5/1 14/5/1
f 16/5/1 11/5/1 10/5/1
f 16/8/1 10/8/1 15/8/1
f 17/1/1 12/1/1 11/1/1
f 17/5/1 11/5/1 16/5/1
f 18/1/1 12/1/1 17/1/1
f 24/4/1 21/4/1 20/4/1
f 25/3/1 22/3/1 21/3/1
f 25/4/1 21/4/1 24/4/1
f 26/8/1 20/8/1 19/8/1
f 26/4/1 24/4/1 20/4/1
f 27/3/1 25/3/1 24/3/1
f 27/4/1 24/4/1 26/4/1
f 28/3/1 22/3/1 25/3/1
f 28/3/1 25/3/1 27/3/1
f 28/8/1 23/8/1 22/8/1
f 29/8/1 27/8/1 26/8/1
f 29/8/1 26/8/1 19/8/1
f 29/8/1 28/8/1 27/8/1
f 30/8/1 23/8/1 28/8/1
f 30/8/1 28/8/1 29/8/1
f 32/4/2 33/4/2 36/4/2
f 33/3/2 34/3/2 37/3/2
f 36/4/2 33/4/2 37/4/2
f 31/8/2 32/8/2 38/8/2
f 32/4/2 36/4/2 38/4/2
f 36/3/2 37/3/2 39/3/2
f 38/4/2 36/4/2 39/4/2
f 37/3/2 34/3/2 40/3/2
f 39/3/2 37/3/2 40/3/2
f 34/8/2 35/8/2 40/8/2
f 38/8/2 39/8/2 41/8/2
f 31/8/2 38/8/2 41/8/2
f 39/8/2 40/8/2 41/8/2
f 40/8/2 35/8/2 42/8/2
f 41/8/2 40/8/2 42/8/2
f 43/8/2 44/8/2 47/8/2
f 44/7/2 45/7/2 47/7/2
f 45/8/2 46/8/2 48/8/2
f 47/7/2 45/7/2 48/7/2
f 43/8/2 47/8/2 49/8/2
f 47/8/2 48/8/2 49/8/2
f 49/8/2 48/8/2 50/8/2
f 48/8/2 46/8/2 51/8/2
f 50/8/2 48/8/2 51/8/2
f 51/8/2 46/8/2 52/8/2
f 49/2/2 50/2/2 53/2/2
f 50/8/2 51/8/2 54/8/2
f 53/2/2 50/2/2 54/2/2
f 51/2/2 52/2/2 55/2/2
f 54/8/2 51/8/2 55/8/2
f 55/2/2 52/2/2 56/2/2
f 60/8/3 58/8/3 57/8/3
f 60/1/3 59/1/3 58/1/3
f 61/1/3 59/1/3 60/1/3
f 62/8/3 61/8/3 60/8/3
f 64/8/3 60/8/3 57/8/3
f 64/8/3 63/8/3 62/8/3
f 64/8/3 62/8/3 60/8/3
f 65/8/3 63/8/3 64/8/3
f 66/8/3 63/8/3 65/8/3
f 67/8/3 63/8/3 66/8/3
f 68/6/3 65/6/3 64/6/3
f 69/8/3 66/8/3 65/8/3
f 69/6/3 65/6/3 68/6/3
f 70/3/3 67/3/3 66/3/3
f 70/8/3 66/8/3 69/8/3
f 71/3/3 67/3/3 70/3/3
f 72/4/3 71/4/3 70/4/3
f 72/3/3 67/3/3 71/3/3
f 73/8/3 63/8/3 67/8/3
f 73/3/3 67/3/3 72/3/3
f 74/4/3 72/4/3 70/4/3
f 74/8/3 69/8/3 68/8/3
f 74/4/3 73/4/3 72/4/3
f 74/8/3 70/8/3 69/8/3
f 75/8/3 63/8/3 73/8/3
f 75/4/3 73/4/3 74/4/3
f 76/8/3 74/8/3 68/8/3
f 76/8/3 75/8/3 74/8/3
f 77/8/3 63/8/3 75/8/3
f 77/8/3 75/8/3 76/8/3
f 78/8/3 76/8/3 68/8/3
f 78/3/3 77/3/3 76/3/3
f 79/3/3 77/3/3 78/3/3
f 80/8/3 78/8/3 68/8/3
f 81/8/3 78/8/3 80/8/3
f 82/3/3 77/3/3 79/3/3
f 82/4/3 79/4/3 78/4/3
f 83/8/3 63/8/3 77/8/3
f 83/3/3 77/3/3 82/3/3
f 84/6/3 81/6/3 80/6/3
f 85/8/3 78/8/3 81/8/3
f 85/6/3 81/6/3 84/6/3
f 86/4/3 82/4/3 78/4/3
f 86/8/3 78/8/3 85/8/3
f 87/8/3 83/8/3 82/8/3
f 87/4/3 82/4/3 86/4/3
f 88/8/3 85/8/3 84/8/3
f 88/8/3 86/8/3 85/8/3
f 88/8/3 87/8/3 86/8/3
f 89/8/3 83/8/3 87/8/3
f 89/8/3 87/8/3 88/8/3
f 89/8/3 63/8/3 83/8/3
f 90/8/3 88/8/3 84/8/3
f 91/8/3 88/8/3 90/8/3
f 92/8/3 90/8/3 84/8/3
f 93/2/3 91/2/3 90/2/3
f 93/8/3 90/8/3 92/8/3
f 94/2/3 91/2/3 93/2/3
f 95/8/4 96/8/4 98/8/4
f 96/1/4 97/1/4 98/1/4
f 98/1/4 97/1/4 99/1/4
f 98/8/4 99/8/4 100/8/4
f 95/8/4 98/8/4 102/8/4
f 100/8/4 101/8/4 102/8/4
f 98/8/4 100/8/4 102/8/4
f 102/8/4 101/8/4 103/8/4
f 103/8/4 101/8/4 104/8/4
f 104/8/4 101/8/4 105/8/4
f 102/6/4 103/6/4 106/6/4
f 103/8/4 104/8/4 107/8/4
f 106/6/4 103/6/4 107/6/4
f 104/3/4 105/3/4 108/3/4
f 107/8/4 104/8/4 108/8/4
f 108/3/4 105/3/4 109/3/4
f 108/4/4 109/4/4 110/4/4
f 109/3/4 105/3/4 110/3/4
f 105/8/4 101/8/4 111/8/4
f 110/3/4 105/3/4 111/3/4
f 108/4/4 110/4/4 112/4/4
f 106/8/4 107/8/4 112/8/4
f 110/4/4 111/4/4 112/4/4
f 107/8/4 108/8/4 112/8/4
f 111/8/4 101/8/4 113/8/4
f 112/4/4 111/4/4 113/4/4
f 106/8/4 112/8/4 114/8/4
f 112/8/4 113/8/4 114/8/4
f 113/8/4 101/8/4 115/8/4
f 114/8/4 113/8/4 115/8/4
f 106/8/4 114/8/4 116/8/4
f 114/3/4 115/3/4 116/3/4
f 116/3/4 115/3/4 117/3/4
f 106/8/4 116/8/4 118/8/4
f 118/8/4 116/8/4 119/8/4
f 117/3/4 115/3/4 120/3/4
f 116/4/4 117/4/4 120/4/4
f 115/8/4 101/8/4 121/8/4
f 120/3/4 115/3/4 121/3/4
f 118/6/4 119/6/4 122/6/4
f 119/8/4 116/8/4 123/8/4
f 122/6/4 119/6/4 123/6/4
f 116/4/4 120/4/4 124/4/4
f 123/8/4 116/8/4 124/8/4
f 120/8/4 121/8/4 125/8/4
f 124/4/4 120/4/4 125/4/4
f 122/8/4 123/8/4 126/8/4
f 123/8/4 124/8/4 126/8/4
f 124/8/4 125/8/4 126/8/4
f 125/8/4 121/8/4 127/8/4
f 126/8/4 125/8/4 127/8/4
f 121/8/4 101/8/4 127/8/4
f 122/8/4 126/8/4 128/8/4
f 128/8/4 126/8/4 129/8/4
f 122/8/4 128/8/4 130/8/4
f 128/2/4 129/2/4 131/2/4
f 130/8/4 128/8/4 131/8/4
f 131/2/4 129/2/4 132/2/4
f 139/8/5 134/8/5 133/8/5
f 139/6/5 135/6/5 134/6/5
f 140/8/5 136/8/5 135/8/5
f 140/6/5 135/6/5 139/6/5
f 141/6/5 137/6/5 136/6/5
f 141/8/5 136/8/5 140/8/5
f 142/8/5 138/8/5 137/8/5
f 142/6/5 137/6/5 141/6/5
f 143/8/5 141/8/5 140/8/5
f 143/8/5 140/8/5 139/8/5
f 143/8/5 142/8/5 141/8/5
f 143/8/5 139/8/5 133/8/5
f 144/8/5 142/8/5 143/8/5
f 145/8/5 138/8/5 142/8/5
f 145/8/5 142/8/5 144/8/5
f 146/8/5 138/8/5 145/8/5
f 147/6/5 144/6/5 143/6/5
f 148/8/5 145/8/5 144/8/5
f 148/6/5 144/6/5 147/6/5
f 149/7/5 146/7/5 145/7/5
f 149/8/5 145/8/5 148/8/5
f 150/7/5 146/7/5 149/7/5
f 151/8/5 148/8/5 147/8/5
f 151/8/5 149/8/5 148/8/5
f 151/8/5 150/8/5 149/8/5
f 152/8/5 150/8/5 151/8/5
f 153/8/5 150/8/5 152/8/5
f 154/8/5 150/8/5 153/8/5
f 155/8/5 151/8/5 147/8/5
f 156/6/5 152/6/5 151/6/5
f 156/8/5 151/8/5 155/8/5
f 157/8/5 153/8/5 152/8/5
f 157/6/5 152/6/5 156/6/5
f 158/6/5 154/6/5 153/6/5
f 158/8/5 153/8/5 157/8/5
f 159/8/5 150/8/5 154/8/5
f 159/6/5 154/6/5 158/6/5
f 160/8/5 150/8/5 159/8/5
f 161/1/6 162/1/6 167/1/6
f 162/8/6 163/8/6 168/8/6
f 167/1/6 162/1/6 168/1/6
f 168/8/6 163/8/6 169/8/6
f 164/8/6 165/8/6 170/8/6
f 167/5/6 168/5/6 171/5/6
f 168/8/6 169/8/6 172/8/6
f 171/5/6 168/5/6 172/5/6
f 165/2/6 166/2/6 173/2/6
f 170/8/6 165/8/6 173/8/6
f 173/2/6 166/2/6 174/2/6
f 171/8/6 172/8/6 175/8/6
f 172/8/6 169/8/6 176/8/6
f 175/8/6 172/8/6 176/8/6
f 176/8/6 169/8/6 177/8/6
f 170/8/6 173/8/6 178/8/6
f 173/8/6 174/8/6 178/8/6
f 178/8/6 174/8/6 179/8/6
f 179/8/6 174/8/6 180/8/6
f 175/5/6 176/5/6 181/5/6
f 176/8/6 177/8/6 182/8/6
f 181/5/6 176/5/6 182/5/6
f 182/8/6 177/8/6 183/8/6
f 178/8/6 179/8/6 184/8/6
f 181/1/6 182/1/6 185/1/6
f 182/8/6 183/8/6 186/8/6
f 185/1/6 182/1/6 186/1/6
f 186/8/6 183/8/6 187/8/6
f 184/8/6 179/8/6 188/8/6
f 179/2/6 180/2/6 189/2/6
f 188/8/6 179/8/6 189/8/6
f 189/2/6 180/2/6 190/2/6
f 191/8/6 192/8/6 193/8/6
f 193/8/6 192/8/6 194/8/6
