# MagicaVoxel @ Ephtracy

# group
o 

# material
mtllib green_car.mtl
usemtl palette

# normals
vn -1 0 0
vn 1 0 0
vn 0 0 1
vn 0 0 -1
vn 0 -1 0
vn 0 1 0

# texcoords
vt 0.0449219 0.5
vt 0.162109 0.5
vt 0.564453 0.5
vt 0.587891 0.5
vt 0.794922 0.5
vt 0.841797 0.5
vt 0.966797 0.5
vt 0.978516 0.5
vt 0.982422 0.5

# verts
v -0.9 0 0.6
v -0.9 0 0.5
v -0.9 0 0.4
v -0.9 0 0.0999999
v -0.9 0 -5.96046e-08
v -0.9 0 -0.1
v -0.9 0.1 0.5
v -0.9 0.1 0.4
v -0.9 0.1 0.0999999
v -0.9 0.1 -5.96046e-08
v -0.9 0.2 0.6
v -0.9 0.2 0.5
v -0.9 0.2 0.4
v -0.9 0.2 0.0999999
v -0.9 0.2 -5.96046e-08
v -0.9 0.2 -0.1
v -0.9 0.3 0.6
v -0.9 0.3 0.5
v -0.9 0.3 0.4
v -0.9 0.3 0.0999999
v -0.9 0.3 -5.96046e-08
v -0.9 0.3 -0.1
v -0.7 0.3 0.6
v -0.7 0.3 0.5
v -0.7 0.3 0.0999999
v -0.7 0.3 -5.96046e-08
v -0.7 0.3 -0.1
v -0.7 0.4 0.2
v -0.7 0.4 0.0999999
v -0.7 0.5 0.5
v -0.7 0.5 0.2
v -0.7 0.5 -5.96046e-08
v -0.7 0.6 0.6
v -0.7 0.6 -0.1
v 0.2 0.3 0.6
v 0.2 0.3 0.5
v 0.2 0.3 0.0999999
v 0.2 0.3 -5.96046e-08
v 0.2 0.3 -0.1
v 0.2 0.4 0.2
v 0.2 0.4 0.0999999
v 0.2 0.5 0.5
v 0.2 0.5 0.2
v 0.2 0.5 -5.96046e-08
v 0.2 0.6 0.6
v 0.2 0.6 -0.1
v 0.5 0 0.6
v 0.5 0 0.4
v 0.5 0 0.0999999
v 0.5 0 -0.1
v 0.5 0.1 0.4
v 0.5 0.1 0.0999999
v 0.5 0.2 0.6
v 0.5 0.2 0.4
v 0.5 0.2 0.0999999
v 0.5 0.2 -0.1
v 0.5 0.3 0.6
v 0.5 0.3 0.4
v 0.5 0.3 0.0999999
v 0.5 0.3 -0.1
v -0.9 0 0.6
v -0.9 0.2 0.6
v -0.9 0.3 0.6
v -0.8 0.2 0.6
v -0.8 0.3 0.6
v -0.7 0 0.6
v -0.7 0.2 0.6
v -0.7 0.3 0.6
v -0.7 0.6 0.6
v -0.6 0 0.6
v -0.6 0.1 0.6
v -0.6 0.3 0.6
v -0.6 0.5 0.6
v -0.5 0 0.6
v -0.5 0.1 0.6
v -0.5 0.3 0.6
v -0.5 0.4 0.6
v -0.4 0 0.6
v -0.4 0.2 0.6
v -0.4 0.4 0.6
v -0.4 0.5 0.6
v -0.3 0.3 0.6
v -0.3 0.5 0.6
v -0.2 0.3 0.6
v -0.2 0.5 0.6
v -0.1 0 0.6
v -0.1 0.2 0.6
v -0.1 0.3 0.6
v -0.1 0.4 0.6
v 0 0 0.6
v 0 0.1 0.6
v 0 0.4 0.6
v 0 0.5 0.6
v 0.1 0 0.6
v 0.1 0.1 0.6
v 0.1 0.3 0.6
v 0.1 0.4 0.6
v 0.2 0 0.6
v 0.2 0.2 0.6
v 0.2 0.3 0.6
v 0.2 0.6 0.6
v 0.4 0.2 0.6
v 0.4 0.3 0.6
v 0.5 0 0.6
v 0.5 0.2 0.6
v 0.5 0.3 0.6
v -0.9 0 -0.1
v -0.9 0.2 -0.1
v -0.9 0.3 -0.1
v -0.8 0.2 -0.1
v -0.8 0.3 -0.1
v -0.7 0 -0.1
v -0.7 0.2 -0.1
v -0.7 0.3 -0.1
v -0.7 0.6 -0.1
v -0.6 0 -0.1
v -0.6 0.1 -0.1
v -0.6 0.3 -0.1
v -0.6 0.5 -0.1
v -0.5 0 -0.1
v -0.5 0.1 -0.1
v -0.5 0.3 -0.1
v -0.5 0.4 -0.1
v -0.4 0 -0.1
v -0.4 0.2 -0.1
v -0.4 0.4 -0.1
v -0.4 0.5 -0.1
v -0.3 0.3 -0.1
v -0.3 0.5 -0.1
v -0.2 0.3 -0.1
v -0.2 0.5 -0.1
v -0.1 0 -0.1
v -0.1 0.2 -0.1
v -0.1 0.3 -0.1
v -0.1 0.4 -0.1
v 0 0 -0.1
v 0 0.1 -0.1
v 0 0.4 -0.1
v 0 0.5 -0.1
v 0.1 0 -0.1
v 0.1 0.1 -0.1
v 0.1 0.3 -0.1
v 0.1 0.4 -0.1
v 0.2 0 -0.1
v 0.2 0.2 -0.1
v 0.2 0.3 -0.1
v 0.2 0.6 -0.1
v 0.4 0.2 -0.1
v 0.4 0.3 -0.1
v 0.5 0 -0.1
v 0.5 0.2 -0.1
v 0.5 0.3 -0.1
v -0.9 0 0.6
v -0.7 0 0.6
v -0.6 0 0.6
v -0.5 0 0.6
v -0.4 0 0.6
v -0.1 0 0.6
v 0 0 0.6
v 0.1 0 0.6
v 0.2 0 0.6
v 0.5 0 0.6
v -0.9 0 0.5
v -0.8 0 0.5
v -0.7 0 0.5
v -0.6 0 0.5
v -0.5 0 0.5
v -0.4 0 0.5
v -0.1 0 0.5
v 0 0 0.5
v 0.1 0 0.5
v 0.2 0 0.5
v -0.9 0 0.4
v -0.8 0 0.4
v 0.4 0 0.4
v 0.5 0 0.4
v -0.9 0 0.0999999
v -0.8 0 0.0999999
v 0.4 0 0.0999999
v 0.5 0 0.0999999
v -0.9 0 -5.96046e-08
v -0.8 0 -5.96046e-08
v -0.7 0 -5.96046e-08
v -0.6 0 -5.96046e-08
v -0.5 0 -5.96046e-08
v -0.4 0 -5.96046e-08
v -0.1 0 -5.96046e-08
v 0 0 -5.96046e-08
v 0.1 0 -5.96046e-08
v 0.2 0 -5.96046e-08
v -0.9 0 -0.1
v -0.7 0 -0.1
v -0.6 0 -0.1
v -0.5 0 -0.1
v -0.4 0 -0.1
v -0.1 0 -0.1
v 0 0 -0.1
v 0.1 0 -0.1
v 0.2 0 -0.1
v 0.5 0 -0.1
v -0.9 0.3 0.6
v -0.8 0.3 0.6
v -0.7 0.3 0.6
v 0.2 0.3 0.6
v 0.4 0.3 0.6
v 0.5 0.3 0.6
v -0.9 0.3 0.5
v -0.8 0.3 0.5
v -0.7 0.3 0.5
v 0.2 0.3 0.5
v -0.9 0.3 0.4
v -0.8 0.3 0.4
v 0.4 0.3 0.4
v 0.5 0.3 0.4
v -0.9 0.3 0.0999999
v -0.8 0.3 0.0999999
v -0.7 0.3 0.0999999
v 0.2 0.3 0.0999999
v 0.4 0.3 0.0999999
v 0.5 0.3 0.0999999
v -0.9 0.3 -5.96046e-08
v -0.8 0.3 -5.96046e-08
v -0.7 0.3 -5.96046e-08
v 0.2 0.3 -5.96046e-08
v -0.9 0.3 -0.1
v -0.8 0.3 -0.1
v -0.7 0.3 -0.1
v 0.2 0.3 -0.1
v 0.4 0.3 -0.1
v 0.5 0.3 -0.1
v -0.7 0.6 0.6
v 0.2 0.6 0.6
v -0.7 0.6 -0.1
v 0.2 0.6 -0.1

# faces
f 7/5/1 2/5/1 1/5/1
f 7/9/1 3/9/1 2/9/1
f 8/7/1 4/7/1 3/7/1
f 8/9/1 3/9/1 7/9/1
f 9/9/1 5/9/1 4/9/1
f 9/7/1 4/7/1 8/7/1
f 10/5/1 6/5/1 5/5/1
f 10/9/1 5/9/1 9/9/1
f 11/5/1 9/5/1 8/5/1
f 11/5/1 8/5/1 7/5/1
f 11/5/1 10/5/1 9/5/1
f 11/5/1 7/5/1 1/5/1
f 12/5/1 10/5/1 11/5/1
f 13/5/1 10/5/1 12/5/1
f 14/5/1 10/5/1 13/5/1
f 15/5/1 6/5/1 10/5/1
f 15/5/1 10/5/1 14/5/1
f 16/5/1 6/5/1 15/5/1
f 17/1/1 12/1/1 11/1/1
f 18/6/1 13/6/1 12/6/1
f 18/1/1 12/1/1 17/1/1
f 19/5/1 14/5/1 13/5/1
f 19/6/1 13/6/1 18/6/1
f 20/6/1 15/6/1 14/6/1
f 20/5/1 14/5/1 19/5/1
f 21/1/1 16/1/1 15/1/1
f 21/6/1 15/6/1 20/6/1
f 22/1/1 16/1/1 21/1/1
f 28/4/1 25/4/1 24/4/1
f 29/3/1 26/3/1 25/3/1
f 29/4/1 25/4/1 28/4/1
f 30/5/1 24/5/1 23/5/1
f 30/4/1 28/4/1 24/4/1
f 31/3/1 29/3/1 28/3/1
f 31/4/1 28/4/1 30/4/1
f 32/3/1 26/3/1 29/3/1
f 32/3/1 29/3/1 31/3/1
f 32/5/1 27/5/1 26/5/1
f 33/5/1 31/5/1 30/5/1
f 33/5/1 30/5/1 23/5/1
f 33/5/1 32/5/1 31/5/1
f 34/5/1 27/5/1 32/5/1
f 34/5/1 32/5/1 33/5/1
f 36/4/2 37/4/2 40/4/2
f 37/3/2 38/3/2 41/3/2
f 40/4/2 37/4/2 41/4/2
f 35/5/2 36/5/2 42/5/2
f 36/4/2 40/4/2 42/4/2
f 40/3/2 41/3/2 43/3/2
f 42/4/2 40/4/2 43/4/2
f 41/3/2 38/3/2 44/3/2
f 43/3/2 41/3/2 44/3/2
f 38/5/2 39/5/2 44/5/2
f 42/5/2 43/5/2 45/5/2
f 35/5/2 42/5/2 45/5/2
f 43/5/2 44/5/2 45/5/2
f 44/5/2 39/5/2 46/5/2
f 45/5/2 44/5/2 46/5/2
f 47/5/2 48/5/2 51/5/2
f 48/8/2 49/8/2 51/8/2
f 49/5/2 50/5/2 52/5/2
f 51/8/2 49/8/2 52/8/2
f 47/5/2 51/5/2 53/5/2
f 51/5/2 52/5/2 53/5/2
f 53/5/2 52/5/2 54/5/2
f 52/5/2 50/5/2 55/5/2
f 54/5/2 52/5/2 55/5/2
f 55/5/2 50/5/2 56/5/2
f 53/2/2 54/2/2 57/2/2
f 54/5/2 55/5/2 58/5/2
f 57/2/2 54/2/2 58/2/2
f 55/2/2 56/2/2 59/2/2
f 58/5/2 55/5/2 59/5/2
f 59/2/2 56/2/2 60/2/2
f 64/5/3 62/5/3 61/5/3
f 64/1/3 63/1/3 62/1/3
f 65/1/3 63/1/3 64/1/3
f 66/5/3 64/5/3 61/5/3
f 66/5/3 65/5/3 64/5/3
f 67/5/3 65/5/3 66/5/3
f 68/5/3 65/5/3 67/5/3
f 70/9/3 67/9/3 66/9/3
f 71/9/3 67/9/3 70/9/3
f 72/5/3 68/5/3 67/5/3
f 72/5/3 69/5/3 68/5/3
f 73/5/3 69/5/3 72/5/3
f 74/7/3 71/7/3 70/7/3
f 75/9/3 67/9/3 71/9/3
f 75/7/3 71/7/3 74/7/3
f 76/5/3 72/5/3 67/5/3
f 76/3/3 73/3/3 72/3/3
f 77/3/3 73/3/3 76/3/3
f 78/9/3 75/9/3 74/9/3
f 79/9/3 67/9/3 75/9/3
f 79/9/3 75/9/3 78/9/3
f 79/5/3 76/5/3 67/5/3
f 80/3/3 73/3/3 77/3/3
f 80/4/3 77/4/3 76/4/3
f 81/5/3 69/5/3 73/5/3
f 81/3/3 73/3/3 80/3/3
f 82/4/3 80/4/3 76/4/3
f 82/5/3 76/5/3 79/5/3
f 82/4/3 81/4/3 80/4/3
f 82/5/3 79/5/3 78/5/3
f 83/5/3 69/5/3 81/5/3
f 83/4/3 81/4/3 82/4/3
f 84/5/3 82/5/3 78/5/3
f 84/5/3 83/5/3 82/5/3
f 85/5/3 69/5/3 83/5/3
f 85/5/3 83/5/3 84/5/3
f 86/5/3 84/5/3 78/5/3
f 87/5/3 84/5/3 86/5/3
f 88/3/3 85/3/3 84/3/3
f 88/5/3 84/5/3 87/5/3
f 89/3/3 85/3/3 88/3/3
f 90/9/3 87/9/3 86/9/3
f 91/9/3 87/9/3 90/9/3
f 92/3/3 85/3/3 89/3/3
f 92/4/3 89/4/3 88/4/3
f 93/5/3 69/5/3 85/5/3
f 93/3/3 85/3/3 92/3/3
f 94/7/3 91/7/3 90/7/3
f 95/9/3 87/9/3 91/9/3
f 95/7/3 91/7/3 94/7/3
f 96/4/3 92/4/3 88/4/3
f 96/5/3 88/5/3 87/5/3
f 97/5/3 93/5/3 92/5/3
f 97/4/3 92/4/3 96/4/3
f 98/9/3 95/9/3 94/9/3
f 99/9/3 87/9/3 95/9/3
f 99/9/3 95/9/3 98/9/3
f 99/5/3 96/5/3 87/5/3
f 99/5/3 97/5/3 96/5/3
f 100/5/3 97/5/3 99/5/3
f 101/5/3 93/5/3 97/5/3
f 101/5/3 97/5/3 100/5/3
f 101/5/3 69/5/3 93/5/3
f 102/5/3 100/5/3 99/5/3
f 102/5/3 99/5/3 98/5/3
f 103/5/3 100/5/3 102/5/3
f 104/5/3 102/5/3 98/5/3
f 105/2/3 103/2/3 102/2/3
f 105/5/3 102/5/3 104/5/3
f 106/2/3 103/2/3 105/2/3
f 107/5/4 108/5/4 110/5/4
f 108/1/4 109/1/4 110/1/4
f 110/1/4 109/1/4 111/1/4
f 107/5/4 110/5/4 112/5/4
f 110/5/4 111/5/4 112/5/4
f 112/5/4 111/5/4 113/5/4
f 113/5/4 111/5/4 114/5/4
f 112/9/4 113/9/4 116/9/4
f 116/9/4 113/9/4 117/9/4
f 113/5/4 114/5/4 118/5/4
f 114/5/4 115/5/4 118/5/4
f 118/5/4 115/5/4 119/5/4
f 116/7/4 117/7/4 120/7/4
f 117/9/4 113/9/4 121/9/4
f 120/7/4 117/7/4 121/7/4
f 113/5/4 118/5/4 122/5/4
f 118/3/4 119/3/4 122/3/4
f 122/3/4 119/3/4 123/3/4
f 120/9/4 121/9/4 124/9/4
f 121/9/4 113/9/4 125/9/4
f 124/9/4 121/9/4 125/9/4
f 113/5/4 122/5/4 125/5/4
f 123/3/4 119/3/4 126/3/4
f 122/4/4 123/4/4 126/4/4
f 119/5/4 115/5/4 127/5/4
f 126/3/4 119/3/4 127/3/4
f 122/4/4 126/4/4 128/4/4
f 125/5/4 122/5/4 128/5/4
f 126/4/4 127/4/4 128/4/4
f 124/5/4 125/5/4 128/5/4
f 127/5/4 115/5/4 129/5/4
f 128/4/4 127/4/4 129/4/4
f 124/5/4 128/5/4 130/5/4
f 128/5/4 129/5/4 130/5/4
f 129/5/4 115/5/4 131/5/4
f 130/5/4 129/5/4 131/5/4
f 124/5/4 130/5/4 132/5/4
f 132/5/4 130/5/4 133/5/4
f 130/3/4 131/3/4 134/3/4
f 133/5/4 130/5/4 134/5/4
f 134/3/4 131/3/4 135/3/4
f 132/9/4 133/9/4 136/9/4
f 136/9/4 133/9/4 137/9/4
f 135/3/4 131/3/4 138/3/4
f 134/4/4 135/4/4 138/4/4
f 131/5/4 115/5/4 139/5/4
f 138/3/4 131/3/4 139/3/4
f 136/7/4 137/7/4 140/7/4
f 137/9/4 133/9/4 141/9/4
f 140/7/4 137/7/4 141/7/4
f 134/4/4 138/4/4 142/4/4
f 133/5/4 134/5/4 142/5/4
f 138/5/4 139/5/4 143/5/4
f 142/4/4 138/4/4 143/4/4
f 140/9/4 141/9/4 144/9/4
f 141/9/4 133/9/4 145/9/4
f 144/9/4 141/9/4 145/9/4
f 133/5/4 142/5/4 145/5/4
f 142/5/4 143/5/4 145/5/4
f 145/5/4 143/5/4 146/5/4
f 143/5/4 139/5/4 147/5/4
f 146/5/4 143/5/4 147/5/4
f 139/5/4 115/5/4 147/5/4
f 145/5/4 146/5/4 148/5/4
f 144/5/4 145/5/4 148/5/4
f 148/5/4 146/5/4 149/5/4
f 144/5/4 148/5/4 150/5/4
f 148/2/4 149/2/4 151/2/4
f 150/5/4 148/5/4 151/5/4
f 151/2/4 149/2/4 152/2/4
f 163/5/5 154/5/5 153/5/5
f 164/5/5 154/5/5 163/5/5
f 165/9/5 155/9/5 154/9/5
f 165/5/5 154/5/5 164/5/5
f 166/7/5 156/7/5 155/7/5
f 166/9/5 155/9/5 165/9/5
f 167/9/5 157/9/5 156/9/5
f 167/7/5 156/7/5 166/7/5
f 168/5/5 158/5/5 157/5/5
f 168/9/5 157/9/5 167/9/5
f 169/9/5 159/9/5 158/9/5
f 169/5/5 158/5/5 168/5/5
f 170/7/5 160/7/5 159/7/5
f 170/9/5 159/9/5 169/9/5
f 171/9/5 161/9/5 160/9/5
f 171/7/5 160/7/5 170/7/5
f 172/5/5 162/5/5 161/5/5
f 172/9/5 161/9/5 171/9/5
f 173/9/5 164/9/5 163/9/5
f 174/5/5 171/5/5 170/5/5
f 174/9/5 164/9/5 173/9/5
f 174/5/5 165/5/5 164/5/5
f 174/5/5 172/5/5 171/5/5
f 174/5/5 166/5/5 165/5/5
f 174/5/5 170/5/5 169/5/5
f 174/5/5 169/5/5 168/5/5
f 174/5/5 168/5/5 167/5/5
f 174/5/5 167/5/5 166/5/5
f 175/5/5 162/5/5 172/5/5
f 175/5/5 172/5/5 174/5/5
f 176/5/5 162/5/5 175/5/5
f 177/7/5 174/7/5 173/7/5
f 178/5/5 175/5/5 174/5/5
f 178/7/5 174/7/5 177/7/5
f 179/8/5 176/8/5 175/8/5
f 179/5/5 175/5/5 178/5/5
f 180/8/5 176/8/5 179/8/5
f 181/9/5 178/9/5 177/9/5
f 182/5/5 179/5/5 178/5/5
f 182/9/5 178/9/5 181/9/5
f 182/5/5 180/5/5 179/5/5
f 183/5/5 180/5/5 182/5/5
f 184/5/5 180/5/5 183/5/5
f 185/5/5 180/5/5 184/5/5
f 186/5/5 180/5/5 185/5/5
f 187/5/5 180/5/5 186/5/5
f 188/5/5 180/5/5 187/5/5
f 189/5/5 180/5/5 188/5/5
f 190/5/5 180/5/5 189/5/5
f 191/5/5 182/5/5 181/5/5
f 191/5/5 183/5/5 182/5/5
f 192/9/5 184/9/5 183/9/5
f 192/5/5 183/5/5 191/5/5
f 193/7/5 185/7/5 184/7/5
f 193/9/5 184/9/5 192/9/5
f 194/9/5 186/9/5 185/9/5
f 194/7/5 185/7/5 193/7/5
f 195/5/5 187/5/5 186/5/5
f 195/9/5 186/9/5 194/9/5
f 196/9/5 188/9/5 187/9/5
f 196/5/5 187/5/5 195/5/5
f 197/7/5 189/7/5 188/7/5
f 197/9/5 188/9/5 196/9/5
f 198/9/5 190/9/5 189/9/5
f 198/7/5 189/7/5 197/7/5
f 199/5/5 180/5/5 190/5/5
f 199/9/5 190/9/5 198/9/5
f 200/5/5 180/5/5 199/5/5
f 201/1/6 202/1/6 207/1/6
f 202/5/6 203/5/6 208/5/6
f 207/1/6 202/1/6 208/1/6
f 208/5/6 203/5/6 209/5/6
f 204/5/6 205/5/6 210/5/6
f 207/6/6 208/6/6 211/6/6
f 208/5/6 209/5/6 212/5/6
f 211/6/6 208/6/6 212/6/6
f 205/2/6 206/2/6 213/2/6
f 210/5/6 205/5/6 213/5/6
f 213/2/6 206/2/6 214/2/6
f 211/5/6 212/5/6 215/5/6
f 212/5/6 209/5/6 216/5/6
f 215/5/6 212/5/6 216/5/6
f 216/5/6 209/5/6 217/5/6
f 210/5/6 213/5/6 218/5/6
f 213/5/6 214/5/6 218/5/6
f 218/5/6 214/5/6 219/5/6
f 219/5/6 214/5/6 220/5/6
f 215/6/6 216/6/6 221/6/6
f 216/5/6 217/5/6 222/5/6
f 221/6/6 216/6/6 222/6/6
f 222/5/6 217/5/6 223/5/6
f 218/5/6 219/5/6 224/5/6
f 221/1/6 222/1/6 225/1/6
f 222/5/6 223/5/6 226/5/6
f 225/1/6 222/1/6 226/1/6
f 226/5/6 223/5/6 227/5/6
f 224/5/6 219/5/6 228/5/6
f 219/2/6 220/2/6 229/2/6
f 228/5/6 219/5/6 229/5/6
f 229/2/6 220/2/6 230/2/6
f 231/5/6 232/5/6 233/5/6
f 233/5/6 232/5/6 234/5/6
