# MagicaVoxel @ Ephtracy

# group
o 

# material
mtllib lemon_car.mtl
usemtl palette

# normals
vn -1 0 0
vn 1 0 0
vn 0 0 1
vn 0 0 -1
vn 0 -1 0
vn 0 1 0

# texcoords
vt 0.0214844 0.5
vt 0.0449219 0.5
vt 0.162109 0.5
vt 0.564453 0.5
vt 0.587891 0.5
vt 0.841797 0.5
vt 0.966797 0.5
vt 0.978516 0.5
vt 0.982422 0.5

# verts
v -0.9 0 0.6
v -0.9 0 0.5
v -0.9 0 0.4
v -0.9 0 0.0999999
v -0.9 0 -5.96046e-08
v -0.9 0 -0.1
v -0.9 0.1 0.5
v -0.9 0.1 0.4
v -0.9 0.1 0.0999999
v -0.9 0.1 -5.96046e-08
v -0.9 0.2 0.6
v -0.9 0.2 0.5
v -0.9 0.2 0.4
v -0.9 0.2 0.0999999
v -0.9 0.2 -5.96046e-08
v -0.9 0.2 -0.1
v -0.9 0.3 0.6
v -0.9 0.3 0.5
v -0.9 0.3 0.4
v -0.9 0.3 0.0999999
v -0.9 0.3 -5.96046e-08
v -0.9 0.3 -0.1
v -0.7 0.3 0.6
v -0.7 0.3 0.5
v -0.7 0.3 0.0999999
v -0.7 0.3 -5.96046e-08
v -0.7 0.3 -0.1
v -0.7 0.4 0.2
v -0.7 0.4 0.0999999
v -0.7 0.5 0.5
v -0.7 0.5 0.2
v -0.7 0.5 -5.96046e-08
v -0.7 0.6 0.6
v -0.7 0.6 -0.1
v 0.2 0.3 0.6
v 0.2 0.3 0.5
v 0.2 0.3 0.0999999
v 0.2 0.3 -5.96046e-08
v 0.2 0.3 -0.1
v 0.2 0.4 0.2
v 0.2 0.4 0.0999999
v 0.2 0.5 0.5
v 0.2 0.5 0.2
v 0.2 0.5 -5.96046e-08
v 0.2 0.6 0.6
v 0.2 0.6 -0.1
v 0.5 0 0.6
v 0.5 0 0.4
v 0.5 0 0.0999999
v 0.5 0 -0.1
v 0.5 0.1 0.4
v 0.5 0.1 0.0999999
v 0.5 0.2 0.6
v 0.5 0.2 0.4
v 0.5 0.2 0.0999999
v 0.5 0.2 -0.1
v 0.5 0.3 0.6
v 0.5 0.3 0.4
v 0.5 0.3 0.0999999
v 0.5 0.3 -0.1
v -0.9 0 0.6
v -0.9 0.2 0.6
v -0.9 0.3 0.6
v -0.8 0.2 0.6
v -0.8 0.3 0.6
v -0.7 0 0.6
v -0.7 0.2 0.6
v -0.7 0.3 0.6
v -0.7 0.6 0.6
v -0.6 0 0.6
v -0.6 0.1 0.6
v -0.6 0.3 0.6
v -0.6 0.5 0.6
v -0.5 0 0.6
v -0.5 0.1 0.6
v -0.5 0.3 0.6
v -0.5 0.4 0.6
v -0.4 0 0.6
v -0.4 0.2 0.6
v -0.4 0.4 0.6
v -0.4 0.5 0.6
v -0.3 0.3 0.6
v -0.3 0.5 0.6
v -0.2 0.3 0.6
v -0.2 0.5 0.6
v -0.1 0 0.6
v -0.1 0.2 0.6
v -0.1 0.3 0.6
v -0.1 0.4 0.6
v 0 0 0.6
v 0 0.1 0.6
v 0 0.4 0.6
v 0 0.5 0.6
v 0.1 0 0.6
v 0.1 0.1 0.6
v 0.1 0.3 0.6
v 0.1 0.4 0.6
v 0.2 0 0.6
v 0.2 0.2 0.6
v 0.2 0.3 0.6
v 0.2 0.6 0.6
v 0.4 0.2 0.6
v 0.4 0.3 0.6
v 0.5 0 0.6
v 0.5 0.2 0.6
v 0.5 0.3 0.6
v -0.9 0 -0.1
v -0.9 0.2 -0.1
v -0.9 0.3 -0.1
v -0.8 0.2 -0.1
v -0.8 0.3 -0.1
v -0.7 0 -0.1
v -0.7 0.2 -0.1
v -0.7 0.3 -0.1
v -0.7 0.6 -0.1
v -0.6 0 -0.1
v -0.6 0.1 -0.1
v -0.6 0.3 -0.1
v -0.6 0.5 -0.1
v -0.5 0 -0.1
v -0.5 0.1 -0.1
v -0.5 0.3 -0.1
v -0.5 0.4 -0.1
v -0.4 0 -0.1
v -0.4 0.2 -0.1
v -0.4 0.4 -0.1
v -0.4 0.5 -0.1
v -0.3 0.3 -0.1
v -0.3 0.5 -0.1
v -0.2 0.3 -0.1
v -0.2 0.5 -0.1
v -0.1 0 -0.1
v -0.1 0.2 -0.1
v -0.1 0.3 -0.1
v -0.1 0.4 -0.1
v 0 0 -0.1
v 0 0.1 -0.1
v 0 0.4 -0.1
v 0 0.5 -0.1
v 0.1 0 -0.1
v 0.1 0.1 -0.1
v 0.1 0.3 -0.1
v 0.1 0.4 -0.1
v 0.2 0 -0.1
v 0.2 0.2 -0.1
v 0.2 0.3 -0.1
v 0.2 0.6 -0.1
v 0.4 0.2 -0.1
v 0.4 0.3 -0.1
v 0.5 0 -0.1
v 0.5 0.2 -0.1
v 0.5 0.3 -0.1
v -0.9 0 0.6
v -0.7 0 0.6
v -0.6 0 0.6
v -0.5 0 0.6
v -0.4 0 0.6
v -0.1 0 0.6
v 0 0 0.6
v 0.1 0 0.6
v 0.2 0 0.6
v 0.5 0 0.6
v -0.9 0 0.5
v -0.8 0 0.5
v -0.7 0 0.5
v -0.6 0 0.5
v -0.5 0 0.5
v -0.4 0 0.5
v -0.1 0 0.5
v 0 0 0.5
v 0.1 0 0.5
v 0.2 0 0.5
v -0.9 0 0.4
v -0.8 0 0.4
v 0.4 0 0.4
v 0.5 0 0.4
v -0.9 0 0.0999999
v -0.8 0 0.0999999
v 0.4 0 0.0999999
v 0.5 0 0.0999999
v -0.9 0 -5.96046e-08
v -0.8 0 -5.96046e-08
v -0.7 0 -5.96046e-08
v -0.6 0 -5.96046e-08
v -0.5 0 -5.96046e-08
v -0.4 0 -5.96046e-08
v -0.1 0 -5.96046e-08
v 0 0 -5.96046e-08
v 0.1 0 -5.96046e-08
v 0.2 0 -5.96046e-08
v -0.9 0 -0.1
v -0.7 0 -0.1
v -0.6 0 -0.1
v -0.5 0 -0.1
v -0.4 0 -0.1
v -0.1 0 -0.1
v 0 0 -0.1
v 0.1 0 -0.1
v 0.2 0 -0.1
v 0.5 0 -0.1
v -0.9 0.3 0.6
v -0.8 0.3 0.6
v -0.7 0.3 0.6
v 0.2 0.3 0.6
v 0.4 0.3 0.6
v 0.5 0.3 0.6
v -0.9 0.3 0.5
v -0.8 0.3 0.5
v -0.7 0.3 0.5
v 0.2 0.3 0.5
v -0.9 0.3 0.4
v -0.8 0.3 0.4
v 0.4 0.3 0.4
v 0.5 0.3 0.4
v -0.9 0.3 0.0999999
v -0.8 0.3 0.0999999
v -0.7 0.3 0.0999999
v 0.2 0.3 0.0999999
v 0.4 0.3 0.0999999
v 0.5 0.3 0.0999999
v -0.9 0.3 -5.96046e-08
v -0.8 0.3 -5.96046e-08
v -0.7 0.3 -5.96046e-08
v 0.2 0.3 -5.96046e-08
v -0.9 0.3 -0.1
v -0.8 0.3 -0.1
v -0.7 0.3 -0.1
v 0.2 0.3 -0.1
v 0.4 0.3 -0.1
v 0.5 0.3 -0.1
v -0.7 0.6 0.6
v 0.2 0.6 0.6
v -0.7 0.6 -0.1
v 0.2 0.6 -0.1

# faces
f 7/1/1 2/1/1 1/1/1
f 7/9/1 3/9/1 2/9/1
f 8/7/1 4/7/1 3/7/1
f 8/9/1 3/9/1 7/9/1
f 9/9/1 5/9/1 4/9/1
f 9/7/1 4/7/1 8/7/1
f 10/1/1 6/1/1 5/1/1
f 10/9/1 5/9/1 9/9/1
f 11/1/1 9/1/1 8/1/1
f 11/1/1 8/1/1 7/1/1
f 11/1/1 10/1/1 9/1/1
f 11/1/1 7/1/1 1/1/1
f 12/1/1 10/1/1 11/1/1
f 13/1/1 10/1/1 12/1/1
f 14/1/1 10/1/1 13/1/1
f 15/1/1 6/1/1 10/1/1
f 15/1/1 10/1/1 14/1/1
f 16/1/1 6/1/1 15/1/1
f 17/2/1 12/2/1 11/2/1
f 18/6/1 13/6/1 12/6/1
f 18/2/1 12/2/1 17/2/1
f 19/1/1 14/1/1 13/1/1
f 19/6/1 13/6/1 18/6/1
f 20/6/1 15/6/1 14/6/1
f 20/1/1 14/1/1 19/1/1
f 21/2/1 16/2/1 15/2/1
f 21/6/1 15/6/1 20/6/1
f 22/2/1 16/2/1 21/2/1
f 28/5/1 25/5/1 24/5/1
f 29/4/1 26/4/1 25/4/1
f 29/5/1 25/5/1 28/5/1
f 30/1/1 24/1/1 23/1/1
f 30/5/1 28/5/1 24/5/1
f 31/4/1 29/4/1 28/4/1
f 31/5/1 28/5/1 30/5/1
f 32/4/1 26/4/1 29/4/1
f 32/4/1 29/4/1 31/4/1
f 32/1/1 27/1/1 26/1/1
f 33/1/1 31/1/1 30/1/1
f 33/1/1 30/1/1 23/1/1
f 33/1/1 32/1/1 31/1/1
f 34/1/1 27/1/1 32/1/1
f 34/1/1 32/1/1 33/1/1
f 36/5/2 37/5/2 40/5/2
f 37/4/2 38/4/2 41/4/2
f 40/5/2 37/5/2 41/5/2
f 35/1/2 36/1/2 42/1/2
f 36/5/2 40/5/2 42/5/2
f 40/4/2 41/4/2 43/4/2
f 42/5/2 40/5/2 43/5/2
f 41/4/2 38/4/2 44/4/2
f 43/4/2 41/4/2 44/4/2
f 38/1/2 39/1/2 44/1/2
f 42/1/2 43/1/2 45/1/2
f 35/1/2 42/1/2 45/1/2
f 43/1/2 44/1/2 45/1/2
f 44/1/2 39/1/2 46/1/2
f 45/1/2 44/1/2 46/1/2
f 47/1/2 48/1/2 51/1/2
f 48/8/2 49/8/2 51/8/2
f 49/1/2 50/1/2 52/1/2
f 51/8/2 49/8/2 52/8/2
f 47/1/2 51/1/2 53/1/2
f 51/1/2 52/1/2 53/1/2
f 53/1/2 52/1/2 54/1/2
f 52/1/2 50/1/2 55/1/2
f 54/1/2 52/1/2 55/1/2
f 55/1/2 50/1/2 56/1/2
f 53/3/2 54/3/2 57/3/2
f 54/1/2 55/1/2 58/1/2
f 57/3/2 54/3/2 58/3/2
f 55/3/2 56/3/2 59/3/2
f 58/1/2 55/1/2 59/1/2
f 59/3/2 56/3/2 60/3/2
f 64/1/3 62/1/3 61/1/3
f 64/2/3 63/2/3 62/2/3
f 65/2/3 63/2/3 64/2/3
f 66/1/3 64/1/3 61/1/3
f 66/1/3 65/1/3 64/1/3
f 67/1/3 65/1/3 66/1/3
f 68/1/3 65/1/3 67/1/3
f 70/9/3 67/9/3 66/9/3
f 71/9/3 67/9/3 70/9/3
f 72/1/3 68/1/3 67/1/3
f 72/1/3 69/1/3 68/1/3
f 73/1/3 69/1/3 72/1/3
f 74/7/3 71/7/3 70/7/3
f 75/9/3 67/9/3 71/9/3
f 75/7/3 71/7/3 74/7/3
f 76/1/3 72/1/3 67/1/3
f 76/4/3 73/4/3 72/4/3
f 77/4/3 73/4/3 76/4/3
f 78/9/3 75/9/3 74/9/3
f 79/9/3 67/9/3 75/9/3
f 79/9/3 75/9/3 78/9/3
f 79/1/3 76/1/3 67/1/3
f 80/4/3 73/4/3 77/4/3
f 80/5/3 77/5/3 76/5/3
f 81/1/3 69/1/3 73/1/3
f 81/4/3 73/4/3 80/4/3
f 82/5/3 80/5/3 76/5/3
f 82/1/3 76/1/3 79/1/3
f 82/5/3 81/5/3 80/5/3
f 82/1/3 79/1/3 78/1/3
f 83/1/3 69/1/3 81/1/3
f 83/5/3 81/5/3 82/5/3
f 84/1/3 82/1/3 78/1/3
f 84/1/3 83/1/3 82/1/3
f 85/1/3 69/1/3 83/1/3
f 85/1/3 83/1/3 84/1/3
f 86/1/3 84/1/3 78/1/3
f 87/1/3 84/1/3 86/1/3
f 88/4/3 85/4/3 84/4/3
f 88/1/3 84/1/3 87/1/3
f 89/4/3 85/4/3 88/4/3
f 90/9/3 87/9/3 86/9/3
f 91/9/3 87/9/3 90/9/3
f 92/4/3 85/4/3 89/4/3
f 92/5/3 89/5/3 88/5/3
f 93/1/3 69/1/3 85/1/3
f 93/4/3 85/4/3 92/4/3
f 94/7/3 91/7/3 90/7/3
f 95/9/3 87/9/3 91/9/3
f 95/7/3 91/7/3 94/7/3
f 96/5/3 92/5/3 88/5/3
f 96/1/3 88/1/3 87/1/3
f 97/1/3 93/1/3 92/1/3
f 97/5/3 92/5/3 96/5/3
f 98/9/3 95/9/3 94/9/3
f 99/9/3 87/9/3 95/9/3
f 99/9/3 95/9/3 98/9/3
f 99/1/3 96/1/3 87/1/3
f 99/1/3 97/1/3 96/1/3
f 100/1/3 97/1/3 99/1/3
f 101/1/3 93/1/3 97/1/3
f 101/1/3 97/1/3 100/1/3
f 101/1/3 69/1/3 93/1/3
f 102/1/3 100/1/3 99/1/3
f 102/1/3 99/1/3 98/1/3
f 103/1/3 100/1/3 102/1/3
f 104/1/3 102/1/3 98/1/3
f 105/3/3 103/3/3 102/3/3
f 105/1/3 102/1/3 104/1/3
f 106/3/3 103/3/3 105/3/3
f 107/1/4 108/1/4 110/1/4
f 108/2/4 109/2/4 110/2/4
f 110/2/4 109/2/4 111/2/4
f 107/1/4 110/1/4 112/1/4
f 110/1/4 111/1/4 112/1/4
f 112/1/4 111/1/4 113/1/4
f 113/1/4 111/1/4 114/1/4
f 112/9/4 113/9/4 116/9/4
f 116/9/4 113/9/4 117/9/4
f 113/1/4 114/1/4 118/1/4
f 114/1/4 115/1/4 118/1/4
f 118/1/4 115/1/4 119/1/4
f 116/7/4 117/7/4 120/7/4
f 117/9/4 113/9/4 121/9/4
f 120/7/4 117/7/4 121/7/4
f 113/1/4 118/1/4 122/1/4
f 118/4/4 119/4/4 122/4/4
f 122/4/4 119/4/4 123/4/4
f 120/9/4 121/9/4 124/9/4
f 121/9/4 113/9/4 125/9/4
f 124/9/4 121/9/4 125/9/4
f 113/1/4 122/1/4 125/1/4
f 123/4/4 119/4/4 126/4/4
f 122/5/4 123/5/4 126/5/4
f 119/1/4 115/1/4 127/1/4
f 126/4/4 119/4/4 127/4/4
f 122/5/4 126/5/4 128/5/4
f 125/1/4 122/1/4 128/1/4
f 126/5/4 127/5/4 128/5/4
f 124/1/4 125/1/4 128/1/4
f 127/1/4 115/1/4 129/1/4
f 128/5/4 127/5/4 129/5/4
f 124/1/4 128/1/4 130/1/4
f 128/1/4 129/1/4 130/1/4
f 129/1/4 115/1/4 131/1/4
f 130/1/4 129/1/4 131/1/4
f 124/1/4 130/1/4 132/1/4
f 132/1/4 130/1/4 133/1/4
f 130/4/4 131/4/4 134/4/4
f 133/1/4 130/1/4 134/1/4
f 134/4/4 131/4/4 135/4/4
f 132/9/4 133/9/4 136/9/4
f 136/9/4 133/9/4 137/9/4
f 135/4/4 131/4/4 138/4/4
f 134/5/4 135/5/4 138/5/4
f 131/1/4 115/1/4 139/1/4
f 138/4/4 131/4/4 139/4/4
f 136/7/4 137/7/4 140/7/4
f 137/9/4 133/9/4 141/9/4
f 140/7/4 137/7/4 141/7/4
f 134/5/4 138/5/4 142/5/4
f 133/1/4 134/1/4 142/1/4
f 138/1/4 139/1/4 143/1/4
f 142/5/4 138/5/4 143/5/4
f 140/9/4 141/9/4 144/9/4
f 141/9/4 133/9/4 145/9/4
f 144/9/4 141/9/4 145/9/4
f 133/1/4 142/1/4 145/1/4
f 142/1/4 143/1/4 145/1/4
f 145/1/4 143/1/4 146/1/4
f 143/1/4 139/1/4 147/1/4
f 146/1/4 143/1/4 147/1/4
f 139/1/4 115/1/4 147/1/4
f 145/1/4 146/1/4 148/1/4
f 144/1/4 145/1/4 148/1/4
f 148/1/4 146/1/4 149/1/4
f 144/1/4 148/1/4 150/1/4
f 148/3/4 149/3/4 151/3/4
f 150/1/4 148/1/4 151/1/4
f 151/3/4 149/3/4 152/3/4
f 163/1/5 154/1/5 153/1/5
f 164/1/5 154/1/5 163/1/5
f 165/9/5 155/9/5 154/9/5
f 165/1/5 154/1/5 164/1/5
f 166/7/5 156/7/5 155/7/5
f 166/9/5 155/9/5 165/9/5
f 167/9/5 157/9/5 156/9/5
f 167/7/5 156/7/5 166/7/5
f 168/1/5 158/1/5 157/1/5
f 168/9/5 157/9/5 167/9/5
f 169/9/5 159/9/5 158/9/5
f 169/1/5 158/1/5 168/1/5
f 170/7/5 160/7/5 159/7/5
f 170/9/5 159/9/5 169/9/5
f 171/9/5 161/9/5 160/9/5
f 171/7/5 160/7/5 170/7/5
f 172/1/5 162/1/5 161/1/5
f 172/9/5 161/9/5 171/9/5
f 173/9/5 164/9/5 163/9/5
f 174/1/5 171/1/5 170/1/5
f 174/9/5 164/9/5 173/9/5
f 174/1/5 165/1/5 164/1/5
f 174/1/5 172/1/5 171/1/5
f 174/1/5 166/1/5 165/1/5
f 174/1/5 170/1/5 169/1/5
f 174/1/5 169/1/5 168/1/5
f 174/1/5 168/1/5 167/1/5
f 174/1/5 167/1/5 166/1/5
f 175/1/5 162/1/5 172/1/5
f 175/1/5 172/1/5 174/1/5
f 176/1/5 162/1/5 175/1/5
f 177/7/5 174/7/5 173/7/5
f 178/1/5 175/1/5 174/1/5
f 178/7/5 174/7/5 177/7/5
f 179/8/5 176/8/5 175/8/5
f 179/1/5 175/1/5 178/1/5
f 180/8/5 176/8/5 179/8/5
f 181/9/5 178/9/5 177/9/5
f 182/1/5 179/1/5 178/1/5
f 182/9/5 178/9/5 181/9/5
f 182/1/5 180/1/5 179/1/5
f 183/1/5 180/1/5 182/1/5
f 184/1/5 180/1/5 183/1/5
f 185/1/5 180/1/5 184/1/5
f 186/1/5 180/1/5 185/1/5
f 187/1/5 180/1/5 186/1/5
f 188/1/5 180/1/5 187/1/5
f 189/1/5 180/1/5 188/1/5
f 190/1/5 180/1/5 189/1/5
f 191/1/5 182/1/5 181/1/5
f 191/1/5 183/1/5 182/1/5
f 192/9/5 184/9/5 183/9/5
f 192/1/5 183/1/5 191/1/5
f 193/7/5 185/7/5 184/7/5
f 193/9/5 184/9/5 192/9/5
f 194/9/5 186/9/5 185/9/5
f 194/7/5 185/7/5 193/7/5
f 195/1/5 187/1/5 186/1/5
f 195/9/5 186/9/5 194/9/5
f 196/9/5 188/9/5 187/9/5
f 196/1/5 187/1/5 195/1/5
f 197/7/5 189/7/5 188/7/5
f 197/9/5 188/9/5 196/9/5
f 198/9/5 190/9/5 189/9/5
f 198/7/5 189/7/5 197/7/5
f 199/1/5 180/1/5 190/1/5
f 199/9/5 190/9/5 198/9/5
f 200/1/5 180/1/5 199/1/5
f 201/2/6 202/2/6 207/2/6
f 202/1/6 203/1/6 208/1/6
f 207/2/6 202/2/6 208/2/6
f 208/1/6 203/1/6 209/1/6
f 204/1/6 205/1/6 210/1/6
f 207/6/6 208/6/6 211/6/6
f 208/1/6 209/1/6 212/1/6
f 211/6/6 208/6/6 212/6/6
f 205/3/6 206/3/6 213/3/6
f 210/1/6 205/1/6 213/1/6
f 213/3/6 206/3/6 214/3/6
f 211/1/6 212/1/6 215/1/6
f 212/1/6 209/1/6 216/1/6
f 215/1/6 212/1/6 216/1/6
f 216/1/6 209/1/6 217/1/6
f 210/1/6 213/1/6 218/1/6
f 213/1/6 214/1/6 218/1/6
f 218/1/6 214/1/6 219/1/6
f 219/1/6 214/1/6 220/1/6
f 215/6/6 216/6/6 221/6/6
f 216/1/6 217/1/6 222/1/6
f 221/6/6 216/6/6 222/6/6
f 222/1/6 217/1/6 223/1/6
f 218/1/6 219/1/6 224/1/6
f 221/2/6 222/2/6 225/2/6
f 222/1/6 223/1/6 226/1/6
f 225/2/6 222/2/6 226/2/6
f 226/1/6 223/1/6 227/1/6
f 224/1/6 219/1/6 228/1/6
f 219/3/6 220/3/6 229/3/6
f 228/1/6 219/1/6 229/1/6
f 229/3/6 220/3/6 230/3/6
f 231/1/6 232/1/6 233/1/6
f 233/1/6 232/1/6 234/1/6
