# MagicaVoxel @ Ephtracy

# group
o 

# material
mtllib white_car.mtl
usemtl palette

# normals
vn -1 0 0
vn 1 0 0
vn 0 0 1
vn 0 0 -1
vn 0 -1 0
vn 0 1 0

# texcoords
vt 0.0449219 0.5
vt 0.162109 0.5
vt 0.564453 0.5
vt 0.587891 0.5
vt 0.841797 0.5
vt 0.958984 0.5
vt 0.966797 0.5
vt 0.978516 0.5
vt 0.982422 0.5

# verts
v -0.9 0 0.6
v -0.9 0 0.5
v -0.9 0 0.4
v -0.9 0 0.0999999
v -0.9 0 -5.96046e-08
v -0.9 0 -0.1
v -0.9 0.1 0.5
v -0.9 0.1 0.4
v -0.9 0.1 0.0999999
v -0.9 0.1 -5.96046e-08
v -0.9 0.2 0.6
v -0.9 0.2 0.5
v -0.9 0.2 0.4
v -0.9 0.2 0.0999999
v -0.9 0.2 -5.96046e-08
v -0.9 0.2 -0.1
v -0.9 0.3 0.6
v -0.9 0.3 0.5
v -0.9 0.3 0.4
v -0.9 0.3 0.0999999
v -0.9 0.3 -5.96046e-08
v -0.9 0.3 -0.1
v -0.7 0.3 0.6
v -0.7 0.3 0.5
v -0.7 0.3 0.0999999
v -0.7 0.3 -5.96046e-08
v -0.7 0.3 -0.1
v -0.7 0.4 0.2
v -0.7 0.4 0.0999999
v -0.7 0.5 0.5
v -0.7 0.5 0.2
v -0.7 0.5 -5.96046e-08
v -0.7 0.6 0.6
v -0.7 0.6 -0.1
v 0.2 0.3 0.6
v 0.2 0.3 0.5
v 0.2 0.3 0.0999999
v 0.2 0.3 -5.96046e-08
v 0.2 0.3 -0.1
v 0.2 0.4 0.2
v 0.2 0.4 0.0999999
v 0.2 0.5 0.5
v 0.2 0.5 0.2
v 0.2 0.5 -5.96046e-08
v 0.2 0.6 0.6
v 0.2 0.6 -0.1
v 0.5 0 0.6
v 0.5 0 0.4
v 0.5 0 0.0999999
v 0.5 0 -0.1
v 0.5 0.1 0.4
v 0.5 0.1 0.0999999
v 0.5 0.2 0.6
v 0.5 0.2 0.4
v 0.5 0.2 0.0999999
v 0.5 0.2 -0.1
v 0.5 0.3 0.6
v 0.5 0.3 0.4
v 0.5 0.3 0.0999999
v 0.5 0.3 -0.1
v -0.9 0 0.6
v -0.9 0.2 0.6
v -0.9 0.3 0.6
v -0.8 0.2 0.6
v -0.8 0.3 0.6
v -0.7 0 0.6
v -0.7 0.2 0.6
v -0.7 0.3 0.6
v -0.7 0.6 0.6
v -0.6 0 0.6
v -0.6 0.1 0.6
v -0.6 0.3 0.6
v -0.6 0.5 0.6
v -0.5 0 0.6
v -0.5 0.1 0.6
v -0.5 0.3 0.6
v -0.5 0.4 0.6
v -0.4 0 0.6
v -0.4 0.2 0.6
v -0.4 0.4 0.6
v -0.4 0.5 0.6
v -0.3 0.3 0.6
v -0.3 0.5 0.6
v -0.2 0.3 0.6
v -0.2 0.5 0.6
v -0.1 0 0.6
v -0.1 0.2 0.6
v -0.1 0.3 0.6
v -0.1 0.4 0.6
v 0 0 0.6
v 0 0.1 0.6
v 0 0.4 0.6
v 0 0.5 0.6
v 0.1 0 0.6
v 0.1 0.1 0.6
v 0.1 0.3 0.6
v 0.1 0.4 0.6
v 0.2 0 0.6
v 0.2 0.2 0.6
v 0.2 0.3 0.6
v 0.2 0.6 0.6
v 0.4 0.2 0.6
v 0.4 0.3 0.6
v 0.5 0 0.6
v 0.5 0.2 0.6
v 0.5 0.3 0.6
v -0.9 0 -0.1
v -0.9 0.2 -0.1
v -0.9 0.3 -0.1
v -0.8 0.2 -0.1
v -0.8 0.3 -0.1
v -0.7 0 -0.1
v -0.7 0.2 -0.1
v -0.7 0.3 -0.1
v -0.7 0.6 -0.1
v -0.6 0 -0.1
v -0.6 0.1 -0.1
v -0.6 0.3 -0.1
v -0.6 0.5 -0.1
v -0.5 0 -0.1
v -0.5 0.1 -0.1
v -0.5 0.3 -0.1
v -0.5 0.4 -0.1
v -0.4 0 -0.1
v -0.4 0.2 -0.1
v -0.4 0.4 -0.1
v -0.4 0.5 -0.1
v -0.3 0.3 -0.1
v -0.3 0.5 -0.1
v -0.2 0.3 -0.1
v -0.2 0.5 -0.1
v -0.1 0 -0.1
v -0.1 0.2 -0.1
v -0.1 0.3 -0.1
v -0.1 0.4 -0.1
v 0 0 -0.1
v 0 0.1 -0.1
v 0 0.4 -0.1
v 0 0.5 -0.1
v 0.1 0 -0.1
v 0.1 0.1 -0.1
v 0.1 0.3 -0.1
v 0.1 0.4 -0.1
v 0.2 0 -0.1
v 0.2 0.2 -0.1
v 0.2 0.3 -0.1
v 0.2 0.6 -0.1
v 0.4 0.2 -0.1
v 0.4 0.3 -0.1
v 0.5 0 -0.1
v 0.5 0.2 -0.1
v 0.5 0.3 -0.1
v -0.9 0 0.6
v -0.7 0 0.6
v -0.6 0 0.6
v -0.5 0 0.6
v -0.4 0 0.6
v -0.1 0 0.6
v 0 0 0.6
v 0.1 0 0.6
v 0.2 0 0.6
v 0.5 0 0.6
v -0.9 0 0.5
v -0.8 0 0.5
v -0.7 0 0.5
v -0.6 0 0.5
v -0.5 0 0.5
v -0.4 0 0.5
v -0.1 0 0.5
v 0 0 0.5
v 0.1 0 0.5
v 0.2 0 0.5
v -0.9 0 0.4
v -0.8 0 0.4
v 0.4 0 0.4
v 0.5 0 0.4
v -0.9 0 0.0999999
v -0.8 0 0.0999999
v 0.4 0 0.0999999
v 0.5 0 0.0999999
v -0.9 0 -5.96046e-08
v -0.8 0 -5.96046e-08
v -0.7 0 -5.96046e-08
v -0.6 0 -5.96046e-08
v -0.5 0 -5.96046e-08
v -0.4 0 -5.96046e-08
v -0.1 0 -5.96046e-08
v 0 0 -5.96046e-08
v 0.1 0 -5.96046e-08
v 0.2 0 -5.96046e-08
v -0.9 0 -0.1
v -0.7 0 -0.1
v -0.6 0 -0.1
v -0.5 0 -0.1
v -0.4 0 -0.1
v -0.1 0 -0.1
v 0 0 -0.1
v 0.1 0 -0.1
v 0.2 0 -0.1
v 0.5 0 -0.1
v -0.9 0.3 0.6
v -0.8 0.3 0.6
v -0.7 0.3 0.6
v 0.2 0.3 0.6
v 0.4 0.3 0.6
v 0.5 0.3 0.6
v -0.9 0.3 0.5
v -0.8 0.3 0.5
v -0.7 0.3 0.5
v 0.2 0.3 0.5
v -0.9 0.3 0.4
v -0.8 0.3 0.4
v 0.4 0.3 0.4
v 0.5 0.3 0.4
v -0.9 0.3 0.0999999
v -0.8 0.3 0.0999999
v -0.7 0.3 0.0999999
v 0.2 0.3 0.0999999
v 0.4 0.3 0.0999999
v 0.5 0.3 0.0999999
v -0.9 0.3 -5.96046e-08
v -0.8 0.3 -5.96046e-08
v -0.7 0.3 -5.96046e-08
v 0.2 0.3 -5.96046e-08
v -0.9 0.3 -0.1
v -0.8 0.3 -0.1
v -0.7 0.3 -0.1
v 0.2 0.3 -0.1
v 0.4 0.3 -0.1
v 0.5 0.3 -0.1
v -0.7 0.6 0.6
v 0.2 0.6 0.6
v -0.7 0.6 -0.1
v 0.2 0.6 -0.1

# faces
f 7/6/1 2/6/1 1/6/1
f 7/9/1 3/9/1 2/9/1
f 8/7/1 4/7/1 3/7/1
f 8/9/1 3/9/1 7/9/1
f 9/9/1 5/9/1 4/9/1
f 9/7/1 4/7/1 8/7/1
f 10/6/1 6/6/1 5/6/1
f 10/9/1 5/9/1 9/9/1
f 11/6/1 9/6/1 8/6/1
f 11/6/1 8/6/1 7/6/1
f 11/6/1 10/6/1 9/6/1
f 11/6/1 7/6/1 1/6/1
f 12/6/1 10/6/1 11/6/1
f 13/6/1 10/6/1 12/6/1
f 14/6/1 10/6/1 13/6/1
f 15/6/1 6/6/1 10/6/1
f 15/6/1 10/6/1 14/6/1
f 16/6/1 6/6/1 15/6/1
f 17/1/1 12/1/1 11/1/1
f 18/5/1 13/5/1 12/5/1
f 18/1/1 12/1/1 17/1/1
f 19/6/1 14/6/1 13/6/1
f 19/5/1 13/5/1 18/5/1
f 20/5/1 15/5/1 14/5/1
f 20/6/1 14/6/1 19/6/1
f 21/1/1 16/1/1 15/1/1
f 21/5/1 15/5/1 20/5/1
f 22/1/1 16/1/1 21/1/1
f 28/4/1 25/4/1 24/4/1
f 29/3/1 26/3/1 25/3/1
f 29/4/1 25/4/1 28/4/1
f 30/6/1 24/6/1 23/6/1
f 30/4/1 28/4/1 24/4/1
f 31/3/1 29/3/1 28/3/1
f 31/4/1 28/4/1 30/4/1
f 32/3/1 26/3/1 29/3/1
f 32/3/1 29/3/1 31/3/1
f 32/6/1 27/6/1 26/6/1
f 33/6/1 31/6/1 30/6/1
f 33/6/1 30/6/1 23/6/1
f 33/6/1 32/6/1 31/6/1
f 34/6/1 27/6/1 32/6/1
f 34/6/1 32/6/1 33/6/1
f 36/4/2 37/4/2 40/4/2
f 37/3/2 38/3/2 41/3/2
f 40/4/2 37/4/2 41/4/2
f 35/6/2 36/6/2 42/6/2
f 36/4/2 40/4/2 42/4/2
f 40/3/2 41/3/2 43/3/2
f 42/4/2 40/4/2 43/4/2
f 41/3/2 38/3/2 44/3/2
f 43/3/2 41/3/2 44/3/2
f 38/6/2 39/6/2 44/6/2
f 42/6/2 43/6/2 45/6/2
f 35/6/2 42/6/2 45/6/2
f 43/6/2 44/6/2 45/6/2
f 44/6/2 39/6/2 46/6/2
f 45/6/2 44/6/2 46/6/2
f 47/6/2 48/6/2 51/6/2
f 48/8/2 49/8/2 51/8/2
f 49/6/2 50/6/2 52/6/2
f 51/8/2 49/8/2 52/8/2
f 47/6/2 51/6/2 53/6/2
f 51/6/2 52/6/2 53/6/2
f 53/6/2 52/6/2 54/6/2
f 52/6/2 50/6/2 55/6/2
f 54/6/2 52/6/2 55/6/2
f 55/6/2 50/6/2 56/6/2
f 53/2/2 54/2/2 57/2/2
f 54/6/2 55/6/2 58/6/2
f 57/2/2 54/2/2 58/2/2
f 55/2/2 56/2/2 59/2/2
f 58/6/2 55/6/2 59/6/2
f 59/2/2 56/2/2 60/2/2
f 64/6/3 62/6/3 61/6/3
f 64/1/3 63/1/3 62/1/3
f 65/1/3 63/1/3 64/1/3
f 66/6/3 64/6/3 61/6/3
f 66/6/3 65/6/3 64/6/3
f 67/6/3 65/6/3 66/6/3
f 68/6/3 65/6/3 67/6/3
f 70/9/3 67/9/3 66/9/3
f 71/9/3 67/9/3 70/9/3
f 72/6/3 68/6/3 67/6/3
f 72/6/3 69/6/3 68/6/3
f 73/6/3 69/6/3 72/6/3
f 74/7/3 71/7/3 70/7/3
f 75/9/3 67/9/3 71/9/3
f 75/7/3 71/7/3 74/7/3
f 76/6/3 72/6/3 67/6/3
f 76/3/3 73/3/3 72/3/3
f 77/3/3 73/3/3 76/3/3
f 78/9/3 75/9/3 74/9/3
f 79/9/3 67/9/3 75/9/3
f 79/9/3 75/9/3 78/9/3
f 79/6/3 76/6/3 67/6/3
f 80/3/3 73/3/3 77/3/3
f 80/4/3 77/4/3 76/4/3
f 81/6/3 69/6/3 73/6/3
f 81/3/3 73/3/3 80/3/3
f 82/4/3 80/4/3 76/4/3
f 82/6/3 76/6/3 79/6/3
f 82/4/3 81/4/3 80/4/3
f 82/6/3 79/6/3 78/6/3
f 83/6/3 69/6/3 81/6/3
f 83/4/3 81/4/3 82/4/3
f 84/6/3 82/6/3 78/6/3
f 84/6/3 83/6/3 82/6/3
f 85/6/3 69/6/3 83/6/3
f 85/6/3 83/6/3 84/6/3
f 86/6/3 84/6/3 78/6/3
f 87/6/3 84/6/3 86/6/3
f 88/3/3 85/3/3 84/3/3
f 88/6/3 84/6/3 87/6/3
f 89/3/3 85/3/3 88/3/3
f 90/9/3 87/9/3 86/9/3
f 91/9/3 87/9/3 90/9/3
f 92/3/3 85/3/3 89/3/3
f 92/4/3 89/4/3 88/4/3
f 93/6/3 69/6/3 85/6/3
f 93/3/3 85/3/3 92/3/3
f 94/7/3 91/7/3 90/7/3
f 95/9/3 87/9/3 91/9/3
f 95/7/3 91/7/3 94/7/3
f 96/4/3 92/4/3 88/4/3
f 96/6/3 88/6/3 87/6/3
f 97/6/3 93/6/3 92/6/3
f 97/4/3 92/4/3 96/4/3
f 98/9/3 95/9/3 94/9/3
f 99/9/3 87/9/3 95/9/3
f 99/9/3 95/9/3 98/9/3
f 99/6/3 96/6/3 87/6/3
f 99/6/3 97/6/3 96/6/3
f 100/6/3 97/6/3 99/6/3
f 101/6/3 93/6/3 97/6/3
f 101/6/3 97/6/3 100/6/3
f 101/6/3 69/6/3 93/6/3
f 102/6/3 100/6/3 99/6/3
f 102/6/3 99/6/3 98/6/3
f 103/6/3 100/6/3 102/6/3
f 104/6/3 102/6/3 98/6/3
f 105/2/3 103/2/3 102/2/3
f 105/6/3 102/6/3 104/6/3
f 106/2/3 103/2/3 105/2/3
f 107/6/4 108/6/4 110/6/4
f 108/1/4 109/1/4 110/1/4
f 110/1/4 109/1/4 111/1/4
f 107/6/4 110/6/4 112/6/4
f 110/6/4 111/6/4 112/6/4
f 112/6/4 111/6/4 113/6/4
f 113/6/4 111/6/4 114/6/4
f 112/9/4 113/9/4 116/9/4
f 116/9/4 113/9/4 117/9/4
f 113/6/4 114/6/4 118/6/4
f 114/6/4 115/6/4 118/6/4
f 118/6/4 115/6/4 119/6/4
f 116/7/4 117/7/4 120/7/4
f 117/9/4 113/9/4 121/9/4
f 120/7/4 117/7/4 121/7/4
f 113/6/4 118/6/4 122/6/4
f 118/3/4 119/3/4 122/3/4
f 122/3/4 119/3/4 123/3/4
f 120/9/4 121/9/4 124/9/4
f 121/9/4 113/9/4 125/9/4
f 124/9/4 121/9/4 125/9/4
f 113/6/4 122/6/4 125/6/4
f 123/3/4 119/3/4 126/3/4
f 122/4/4 123/4/4 126/4/4
f 119/6/4 115/6/4 127/6/4
f 126/3/4 119/3/4 127/3/4
f 122/4/4 126/4/4 128/4/4
f 125/6/4 122/6/4 128/6/4
f 126/4/4 127/4/4 128/4/4
f 124/6/4 125/6/4 128/6/4
f 127/6/4 115/6/4 129/6/4
f 128/4/4 127/4/4 129/4/4
f 124/6/4 128/6/4 130/6/4
f 128/6/4 129/6/4 130/6/4
f 129/6/4 115/6/4 131/6/4
f 130/6/4 129/6/4 131/6/4
f 124/6/4 130/6/4 132/6/4
f 132/6/4 130/6/4 133/6/4
f 130/3/4 131/3/4 134/3/4
f 133/6/4 130/6/4 134/6/4
f 134/3/4 131/3/4 135/3/4
f 132/9/4 133/9/4 136/9/4
f 136/9/4 133/9/4 137/9/4
f 135/3/4 131/3/4 138/3/4
f 134/4/4 135/4/4 138/4/4
f 131/6/4 115/6/4 139/6/4
f 138/3/4 131/3/4 139/3/4
f 136/7/4 137/7/4 140/7/4
f 137/9/4 133/9/4 141/9/4
f 140/7/4 137/7/4 141/7/4
f 134/4/4 138/4/4 142/4/4
f 133/6/4 134/6/4 142/6/4
f 138/6/4 139/6/4 143/6/4
f 142/4/4 138/4/4 143/4/4
f 140/9/4 141/9/4 144/9/4
f 141/9/4 133/9/4 145/9/4
f 144/9/4 141/9/4 145/9/4
f 133/6/4 142/6/4 145/6/4
f 142/6/4 143/6/4 145/6/4
f 145/6/4 143/6/4 146/6/4
f 143/6/4 139/6/4 147/6/4
f 146/6/4 143/6/4 147/6/4
f 139/6/4 115/6/4 147/6/4
f 145/6/4 146/6/4 148/6/4
f 144/6/4 145/6/4 148/6/4
f 148/6/4 146/6/4 149/6/4
f 144/6/4 148/6/4 150/6/4
f 148/2/4 149/2/4 151/2/4
f 150/6/4 148/6/4 151/6/4
f 151/2/4 149/2/4 152/2/4
f 163/6/5 154/6/5 153/6/5
f 164/6/5 154/6/5 163/6/5
f 165/9/5 155/9/5 154/9/5
f 165/6/5 154/6/5 164/6/5
f 166/7/5 156/7/5 155/7/5
f 166/9/5 155/9/5 165/9/5
f 167/9/5 157/9/5 156/9/5
f 167/7/5 156/7/5 166/7/5
f 168/6/5 158/6/5 157/6/5
f 168/9/5 157/9/5 167/9/5
f 169/9/5 159/9/5 158/9/5
f 169/6/5 158/6/5 168/6/5
f 170/7/5 160/7/5 159/7/5
f 170/9/5 159/9/5 169/9/5
f 171/9/5 161/9/5 160/9/5
f 171/7/5 160/7/5 170/7/5
f 172/6/5 162/6/5 161/6/5
f 172/9/5 161/9/5 171/9/5
f 173/9/5 164/9/5 163/9/5
f 174/6/5 171/6/5 170/6/5
f 174/9/5 164/9/5 173/9/5
f 174/6/5 165/6/5 164/6/5
f 174/6/5 172/6/5 171/6/5
f 174/6/5 166/6/5 165/6/5
f 174/6/5 170/6/5 169/6/5
f 174/6/5 169/6/5 168/6/5
f 174/6/5 168/6/5 167/6/5
f 174/6/5 167/6/5 166/6/5
f 175/6/5 162/6/5 172/6/5
f 175/6/5 172/6/5 174/6/5
f 176/6/5 162/6/5 175/6/5
f 177/7/5 174/7/5 173/7/5
f 178/6/5 175/6/5 174/6/5
f 178/7/5 174/7/5 177/7/5
f 179/8/5 176/8/5 175/8/5
f 179/6/5 175/6/5 178/6/5
f 180/8/5 176/8/5 179/8/5
f 181/9/5 178/9/5 177/9/5
f 182/6/5 179/6/5 178/6/5
f 182/9/5 178/9/5 181/9/5
f 182/6/5 180/6/5 179/6/5
f 183/6/5 180/6/5 182/6/5
f 184/6/5 180/6/5 183/6/5
f 185/6/5 180/6/5 184/6/5
f 186/6/5 180/6/5 185/6/5
f 187/6/5 180/6/5 186/6/5
f 188/6/5 180/6/5 187/6/5
f 189/6/5 180/6/5 188/6/5
f 190/6/5 180/6/5 189/6/5
f 191/6/5 182/6/5 181/6/5
f 191/6/5 183/6/5 182/6/5
f 192/9/5 184/9/5 183/9/5
f 192/6/5 183/6/5 191/6/5
f 193/7/5 185/7/5 184/7/5
f 193/9/5 184/9/5 192/9/5
f 194/9/5 186/9/5 185/9/5
f 194/7/5 185/7/5 193/7/5
f 195/6/5 187/6/5 186/6/5
f 195/9/5 186/9/5 194/9/5
f 196/9/5 188/9/5 187/9/5
f 196/6/5 187/6/5 195/6/5
f 197/7/5 189/7/5 188/7/5
f 197/9/5 188/9/5 196/9/5
f 198/9/5 190/9/5 189/9/5
f 198/7/5 189/7/5 197/7/5
f 199/6/5 180/6/5 190/6/5
f 199/9/5 190/9/5 198/9/5
f 200/6/5 180/6/5 199/6/5
f 201/1/6 202/1/6 207/1/6
f 202/6/6 203/6/6 208/6/6
f 207/1/6 202/1/6 208/1/6
f 208/6/6 203/6/6 209/6/6
f 204/6/6 205/6/6 210/6/6
f 207/5/6 208/5/6 211/5/6
f 208/6/6 209/6/6 212/6/6
f 211/5/6 208/5/6 212/5/6
f 205/2/6 206/2/6 213/2/6
f 210/6/6 205/6/6 213/6/6
f 213/2/6 206/2/6 214/2/6
f 211/6/6 212/6/6 215/6/6
f 212/6/6 209/6/6 216/6/6
f 215/6/6 212/6/6 216/6/6
f 216/6/6 209/6/6 217/6/6
f 210/6/6 213/6/6 218/6/6
f 213/6/6 214/6/6 218/6/6
f 218/6/6 214/6/6 219/6/6
f 219/6/6 214/6/6 220/6/6
f 215/5/6 216/5/6 221/5/6
f 216/6/6 217/6/6 222/6/6
f 221/5/6 216/5/6 222/5/6
f 222/6/6 217/6/6 223/6/6
f 218/6/6 219/6/6 224/6/6
f 221/1/6 222/1/6 225/1/6
f 222/6/6 223/6/6 226/6/6
f 225/1/6 222/1/6 226/1/6
f 226/6/6 223/6/6 227/6/6
f 224/6/6 219/6/6 228/6/6
f 219/2/6 220/2/6 229/2/6
f 228/6/6 219/6/6 229/6/6
f 229/2/6 220/2/6 230/2/6
f 231/6/6 232/6/6 233/6/6
f 233/6/6 232/6/6 234/6/6
