# MagicaVoxel @ Ephtracy

# group
o 

# material
mtllib rock.mtl
usemtl palette

# normals
vn -1 0 0
vn 1 0 0
vn 0 0 1
vn 0 0 -1
vn 0 -1 0
vn 0 1 0

# texcoords
vt 0.974609 0.5
vt 0.978516 0.5

# verts
v -0.4 0 0.6
v -0.4 0 0.5
v -0.4 0 0.3
v -0.4 0 0.0999999
v -0.4 0.1 0.6
v -0.4 0.1 0.5
v -0.4 0.1 0.3
v -0.4 0.1 0.2
v -0.4 0.1 0.0999999
v -0.4 0.2 0.6
v -0.4 0.2 0.5
v -0.4 0.2 0.3
v -0.4 0.2 0.2
v -0.4 0.3 0.5
v -0.4 0.3 0.3
v -0.3 0.1 0.2
v -0.3 0.1 0.0999999
v -0.3 0.2 0.3
v -0.3 0.2 0.2
v -0.3 0.2 0.0999999
v -0.3 0.3 0.5
v -0.3 0.3 0.4
v -0.3 0.3 0.3
v -0.3 0.4 0.5
v -0.3 0.4 0.4
v -0.3 0.4 0.3
v -0.3 0.4 0.2
v -0.2 0 0.0999999
v -0.2 0 -0.2
v -0.2 0.1 0.0999999
v -0.2 0.1 -0.1
v -0.2 0.2 0.6
v -0.2 0.2 0.5
v -0.2 0.2 0.2
v -0.2 0.2 0.0999999
v -0.2 0.2 -5.96046e-08
v -0.2 0.2 -0.1
v -0.2 0.2 -0.2
v -0.2 0.3 0.6
v -0.2 0.3 0.5
v -0.2 0.3 0.2
v -0.2 0.3 -5.96046e-08
v -0.2 0.3 -0.1
v -0.2 0.4 0.2
v -0.2 0.4 -5.96046e-08
v -0.1 0.2 -0.1
v -0.1 0.2 -0.2
v -0.1 0.3 -5.96046e-08
v -0.1 0.3 -0.1
v -0.1 0.3 -0.2
v -0.1 0.4 0.3
v -0.1 0.4 0.2
v -0.1 0.4 -5.96046e-08
v -0.1 0.4 -0.1
v -0.1 0.5 0.3
v -0.1 0.5 -0.1
v 0 0.4 0.4
v 0 0.4 0.3
v 0 0.5 0.4
v 0 0.5 0.3
v 0 0.5 0.0999999
v 0 0.5 -0.1
v 0 0.6 0.3
v 0 0.6 0.0999999
v 0 0.6 -0.1
v 0.3 0.3 -0.1
v 0.3 0.3 -0.2
v 0.3 0.4 -0.1
v 0.3 0.4 -0.2
v 0 0.2 0.6
v 0 0.2 0.5
v 0 0.3 0.6
v 0 0.3 0.5
v 0 0.3 0.4
v 0 0.4 0.5
v 0 0.4 0.4
v 0.1 0 0.6
v 0.1 0 0.5
v 0.1 0 0.4
v 0.1 0.1 0.6
v 0.1 0.1 0.5
v 0.1 0.2 0.6
v 0.1 0.2 0.5
v 0.1 0.3 0.5
v 0.1 0.3 0.4
v 0.2 0.4 0.4
v 0.2 0.4 0.3
v 0.2 0.5 0.4
v 0.2 0.5 0.3
v 0.4 0.5 -5.96046e-08
v 0.4 0.5 -0.1
v 0.4 0.6 -5.96046e-08
v 0.4 0.6 -0.1
v 0.5 0.3 0.4
v 0.5 0.3 0.3
v 0.5 0.4 0.4
v 0.5 0.4 0.3
v 0.5 0.4 0.2
v 0.5 0.4 -5.96046e-08
v 0.5 0.4 -0.1
v 0.5 0.5 0.3
v 0.5 0.5 0.2
v 0.5 0.5 -5.96046e-08
v 0.5 0.5 -0.1
v 0.5 0.6 0.3
v 0.5 0.6 0.2
v 0.5 0.6 -5.96046e-08
v 0.6 0 0.4
v 0.6 0 0.0999999
v 0.6 0 -0.1
v 0.6 0 -0.2
v 0.6 0.1 0.4
v 0.6 0.1 0.3
v 0.6 0.2 0.0999999
v 0.6 0.2 -5.96046e-08
v 0.6 0.3 0.4
v 0.6 0.3 0.3
v 0.6 0.3 0.2
v 0.6 0.4 0.3
v 0.6 0.4 0.2
v 0.6 0.4 -5.96046e-08
v 0.6 0.4 -0.1
v 0.6 0.4 -0.2
v 0.6 0.5 0.2
v 0.6 0.5 -5.96046e-08
v -0.4 0 0.6
v -0.4 0.1 0.6
v -0.4 0.2 0.6
v -0.3 0 0.6
v -0.3 0.1 0.6
v -0.2 0 0.6
v -0.2 0.1 0.6
v -0.2 0.2 0.6
v -0.2 0.3 0.6
v 0 0.2 0.6
v 0 0.3 0.6
v 0.1 0 0.6
v 0.1 0.1 0.6
v 0.1 0.2 0.6
v -0.4 0.2 0.5
v -0.4 0.3 0.5
v -0.3 0.2 0.5
v -0.3 0.3 0.5
v -0.3 0.4 0.5
v -0.2 0.2 0.5
v -0.2 0.3 0.5
v -0.1 0.3 0.5
v -0.1 0.4 0.5
v 0 0.2 0.5
v 0 0.3 0.5
v 0 0.4 0.5
v 0.1 0.2 0.5
v 0.1 0.3 0.5
v 0 0.3 0.4
v 0 0.4 0.4
v 0 0.5 0.4
v 0.1 0 0.4
v 0.1 0.3 0.4
v 0.1 0.4 0.4
v 0.1 0.5 0.4
v 0.2 0.4 0.4
v 0.2 0.5 0.4
v 0.3 0 0.4
v 0.3 0.1 0.4
v 0.4 0 0.4
v 0.4 0.1 0.4
v 0.4 0.2 0.4
v 0.5 0.2 0.4
v 0.5 0.3 0.4
v 0.5 0.4 0.4
v 0.6 0 0.4
v 0.6 0.1 0.4
v 0.6 0.3 0.4
v -0.1 0.4 0.3
v -0.1 0.5 0.3
v 0 0.4 0.3
v 0 0.5 0.3
v 0 0.6 0.3
v 0.1 0.5 0.3
v 0.2 0.4 0.3
v 0.2 0.5 0.3
v 0.4 0.4 0.3
v 0.4 0.5 0.3
v 0.5 0.3 0.3
v 0.5 0.4 0.3
v 0.5 0.5 0.3
v 0.5 0.6 0.3
v 0.6 0.3 0.3
v 0.6 0.4 0.3
v 0.5 0.4 0.2
v 0.5 0.5 0.2
v 0.6 0.4 0.2
v 0.6 0.5 0.2
v -0.4 0.2 0.3
v -0.4 0.3 0.3
v -0.3 0.2 0.3
v -0.3 0.3 0.3
v -0.4 0.1 0.2
v -0.4 0.2 0.2
v -0.3 0.1 0.2
v -0.3 0.2 0.2
v -0.3 0.4 0.2
v -0.2 0.2 0.2
v -0.2 0.3 0.2
v -0.2 0.4 0.2
v -0.4 0 0.0999999
v -0.4 0.1 0.0999999
v -0.3 0 0.0999999
v -0.3 0.1 0.0999999
v -0.3 0.2 0.0999999
v -0.2 0 0.0999999
v -0.2 0.1 0.0999999
v -0.2 0.2 0.0999999
v -0.2 0.3 -5.96046e-08
v -0.2 0.4 -5.96046e-08
v -0.1 0.3 -5.96046e-08
v -0.1 0.4 -5.96046e-08
v 0.4 0.5 -5.96046e-08
v 0.4 0.6 -5.96046e-08
v 0.5 0.4 -5.96046e-08
v 0.5 0.5 -5.96046e-08
v 0.5 0.6 -5.96046e-08
v 0.6 0.4 -5.96046e-08
v 0.6 0.5 -5.96046e-08
v -0.2 0.2 -0.1
v -0.2 0.3 -0.1
v -0.1 0.2 -0.1
v -0.1 0.3 -0.1
v -0.1 0.4 -0.1
v -0.1 0.5 -0.1
v 0 0.4 -0.1
v 0 0.5 -0.1
v 0 0.6 -0.1
v 0.1 0.5 -0.1
v 0.1 0.6 -0.1
v 0.2 0.5 -0.1
v 0.2 0.6 -0.1
v 0.3 0.3 -0.1
v 0.3 0.4 -0.1
v 0.4 0.5 -0.1
v 0.4 0.6 -0.1
v 0.5 0.4 -0.1
v 0.5 0.5 -0.1
v -0.2 0 -0.2
v -0.2 0.2 -0.2
v -0.1 0 -0.2
v -0.1 0.2 -0.2
v -0.1 0.3 -0.2
v 0 0 -0.2
v 0 0.1 -0.2
v 0.3 0 -0.2
v 0.3 0.1 -0.2
v 0.3 0.3 -0.2
v 0.3 0.4 -0.2
v 0.6 0 -0.2
v 0.6 0.4 -0.2
v -0.4 0 0.6
v -0.3 0 0.6
v -0.2 0 0.6
v 0.1 0 0.6
v -0.4 0 0.5
v -0.3 0 0.5
v -0.2 0 0.5
v 0 0 0.5
v 0.1 0 0.5
v -0.3 0 0.4
v -0.2 0 0.4
v -0.1 0 0.4
v 0 0 0.4
v 0.1 0 0.4
v 0.3 0 0.4
v 0.4 0 0.4
v 0.6 0 0.4
v -0.4 0 0.3
v -0.2 0 0.3
v -0.1 0 0.3
v 0 0 0.3
v 0.1 0 0.3
v 0.2 0 0.3
v 0.3 0 0.3
v 0.4 0 0.3
v -0.3 0 0.2
v -0.2 0 0.2
v 0 0 0.2
v 0.1 0 0.2
v 0.3 0 0.2
v 0.4 0 0.2
v -0.4 0 0.0999999
v -0.3 0 0.0999999
v -0.2 0 0.0999999
v 0.1 0 0.0999999
v 0.2 0 0.0999999
v 0.5 0 0.0999999
v 0.6 0 0.0999999
v -0.1 0 -5.96046e-08
v 0 0 -5.96046e-08
v 0.1 0 -5.96046e-08
v 0.2 0 -5.96046e-08
v 0.2 0 -0.1
v 0.3 0 -0.1
v 0.4 0 -0.1
v 0.5 0 -0.1
v 0.6 0 -0.1
v -0.2 0 -0.2
v -0.1 0 -0.2
v 0 0 -0.2
v 0.3 0 -0.2
v 0.6 0 -0.2
v -0.4 0.1 0.2
v -0.3 0.1 0.2
v -0.4 0.1 0.0999999
v -0.3 0.1 0.0999999
v -0.4 0.2 0.6
v -0.2 0.2 0.6
v 0 0.2 0.6
v 0.1 0.2 0.6
v -0.4 0.2 0.5
v -0.3 0.2 0.5
v -0.2 0.2 0.5
v 0 0.2 0.5
v 0.1 0.2 0.5
v -0.4 0.2 0.3
v -0.3 0.2 0.3
v -0.4 0.2 0.2
v -0.3 0.2 0.2
v -0.2 0.2 0.2
v -0.3 0.2 0.0999999
v -0.2 0.2 0.0999999
v -0.2 0.2 -0.1
v -0.1 0.2 -0.1
v -0.2 0.2 -0.2
v -0.1 0.2 -0.2
v -0.2 0.3 0.6
v 0 0.3 0.6
v -0.4 0.3 0.5
v -0.3 0.3 0.5
v -0.2 0.3 0.5
v -0.1 0.3 0.5
v 0 0.3 0.5
v 0.1 0.3 0.5
v -0.3 0.3 0.4
v 0 0.3 0.4
v 0.1 0.3 0.4
v 0.5 0.3 0.4
v 0.6 0.3 0.4
v -0.4 0.3 0.3
v -0.3 0.3 0.3
v 0.5 0.3 0.3
v 0.6 0.3 0.3
v -0.2 0.3 -5.96046e-08
v -0.1 0.3 -5.96046e-08
v -0.2 0.3 -0.1
v -0.1 0.3 -0.1
v 0.3 0.3 -0.1
v -0.1 0.3 -0.2
v 0.3 0.3 -0.2
v -0.3 0.4 0.5
v -0.1 0.4 0.5
v 0 0.4 0.5
v -0.3 0.4 0.4
v -0.2 0.4 0.4
v -0.1 0.4 0.4
v 0 0.4 0.4
v 0.2 0.4 0.4
v 0.5 0.4 0.4
v -0.3 0.4 0.3
v -0.2 0.4 0.3
v -0.1 0.4 0.3
v 0 0.4 0.3
v 0.2 0.4 0.3
v 0.4 0.4 0.3
v 0.5 0.4 0.3
v 0.6 0.4 0.3
v -0.3 0.4 0.2
v -0.2 0.4 0.2
v -0.1 0.4 0.2
v 0.5 0.4 0.2
v 0.6 0.4 0.2
v -0.2 0.4 -5.96046e-08
v -0.1 0.4 -5.96046e-08
v 0.5 0.4 -5.96046e-08
v 0.6 0.4 -5.96046e-08
v 0.3 0.4 -0.1
v 0.5 0.4 -0.1
v 0.6 0.4 -0.1
v 0.3 0.4 -0.2
v 0.6 0.4 -0.2
v 0 0.5 0.4
v 0.1 0.5 0.4
v 0.2 0.5 0.4
v -0.1 0.5 0.3
v 0 0.5 0.3
v 0.1 0.5 0.3
v 0.2 0.5 0.3
v 0.5 0.5 0.2
v 0.6 0.5 0.2
v 0 0.5 0.0999999
v 0.4 0.5 -5.96046e-08
v 0.5 0.5 -5.96046e-08
v 0.6 0.5 -5.96046e-08
v -0.1 0.5 -0.1
v 0 0.5 -0.1
v 0.4 0.5 -0.1
v 0.5 0.5 -0.1
v 0 0.6 0.3
v 0.5 0.6 0.3
v 0.4 0.6 0.2
v 0.5 0.6 0.2
v 0 0.6 0.0999999
v 0.1 0.6 0.0999999
v 0.3 0.6 0.0999999
v 0.4 0.6 0.0999999
v 0.2 0.6 -5.96046e-08
v 0.3 0.6 -5.96046e-08
v 0.4 0.6 -5.96046e-08
v 0.5 0.6 -5.96046e-08
v 0 0.6 -0.1
v 0.1 0.6 -0.1
v 0.2 0.6 -0.1
v 0.4 0.6 -0.1

# faces
f 5/1/1 2/1/1 1/1/1
f 6/2/1 3/2/1 2/2/1
f 6/1/1 2/1/1 5/1/1
f 7/1/1 4/1/1 3/1/1
f 7/2/1 3/2/1 6/2/1
f 8/1/1 4/1/1 7/1/1
f 9/1/1 4/1/1 8/1/1
f 10/2/1 6/2/1 5/2/1
f 11/1/1 7/1/1 6/1/1
f 11/2/1 6/2/1 10/2/1
f 11/1/1 8/1/1 7/1/1
f 12/1/1 8/1/1 11/1/1
f 13/1/1 8/1/1 12/1/1
f 14/1/1 12/1/1 11/1/1
f 15/1/1 12/1/1 14/1/1
f 19/1/1 17/1/1 16/1/1
f 20/1/1 17/1/1 19/1/1
f 23/2/1 19/2/1 18/2/1
f 24/2/1 22/2/1 21/2/1
f 25/1/1 23/1/1 22/1/1
f 25/2/1 22/2/1 24/2/1
f 26/2/1 19/2/1 23/2/1
f 26/1/1 23/1/1 25/1/1
f 27/2/1 19/2/1 26/2/1
f 30/1/1 29/1/1 28/1/1
f 31/1/1 29/1/1 30/1/1
f 35/2/1 31/2/1 30/2/1
f 36/2/1 31/2/1 35/2/1
f 37/1/1 29/1/1 31/1/1
f 37/2/1 31/2/1 36/2/1
f 38/1/1 29/1/1 37/1/1
f 39/2/1 33/2/1 32/2/1
f 40/2/1 33/2/1 39/2/1
f 41/2/1 36/2/1 35/2/1
f 41/2/1 35/2/1 34/2/1
f 42/1/1 37/1/1 36/1/1
f 42/2/1 36/2/1 41/2/1
f 43/1/1 37/1/1 42/1/1
f 44/1/1 42/1/1 41/1/1
f 45/1/1 42/1/1 44/1/1
f 49/2/1 47/2/1 46/2/1
f 50/2/1 47/2/1 49/2/1
f 53/2/1 49/2/1 48/2/1
f 54/2/1 49/2/1 53/2/1
f 55/1/1 52/1/1 51/1/1
f 55/1/1 53/1/1 52/1/1
f 55/1/1 54/1/1 53/1/1
f 56/1/1 54/1/1 55/1/1
f 59/1/1 58/1/1 57/1/1
f 60/1/1 58/1/1 59/1/1
f 63/2/1 61/2/1 60/2/1
f 64/1/1 62/1/1 61/1/1
f 64/2/1 61/2/1 63/2/1
f 65/1/1 62/1/1 64/1/1
f 68/2/1 67/2/1 66/2/1
f 69/2/1 67/2/1 68/2/1
f 70/2/2 71/2/2 72/2/2
f 72/2/2 71/2/2 73/2/2
f 73/1/2 74/1/2 75/1/2
f 75/1/2 74/1/2 76/1/2
f 77/1/2 78/1/2 80/1/2
f 78/2/2 79/2/2 81/2/2
f 80/1/2 78/1/2 81/1/2
f 80/2/2 81/2/2 82/2/2
f 81/2/2 79/2/2 83/2/2
f 82/2/2 81/2/2 83/2/2
f 83/2/2 79/2/2 84/2/2
f 84/2/2 79/2/2 85/2/2
f 86/2/2 87/2/2 88/2/2
f 88/2/2 87/2/2 89/2/2
f 90/1/2 91/1/2 92/1/2
f 92/1/2 91/1/2 93/1/2
f 94/1/2 95/1/2 96/1/2
f 96/1/2 95/1/2 97/1/2
f 97/1/2 98/1/2 101/1/2
f 101/1/2 98/1/2 102/1/2
f 99/2/2 100/2/2 103/2/2
f 103/2/2 100/2/2 104/2/2
f 101/2/2 102/2/2 105/2/2
f 102/1/2 103/1/2 106/1/2
f 105/2/2 102/2/2 106/2/2
f 106/1/2 103/1/2 107/1/2
f 108/2/2 109/2/2 112/2/2
f 112/2/2 109/2/2 113/2/2
f 109/1/2 110/1/2 114/1/2
f 113/2/2 109/2/2 114/2/2
f 114/1/2 110/1/2 115/1/2
f 112/1/2 113/1/2 116/1/2
f 113/2/2 114/2/2 117/2/2
f 116/1/2 113/1/2 117/1/2
f 114/2/2 115/2/2 117/2/2
f 117/2/2 115/2/2 118/2/2
f 117/1/2 118/1/2 119/1/2
f 118/2/2 115/2/2 120/2/2
f 119/1/2 118/1/2 120/1/2
f 115/1/2 110/1/2 121/1/2
f 120/2/2 115/2/2 121/2/2
f 110/2/2 111/2/2 122/2/2
f 121/1/2 110/1/2 122/1/2
f 122/2/2 111/2/2 123/2/2
f 120/1/2 121/1/2 124/1/2
f 124/1/2 121/1/2 125/1/2
f 129/1/3 127/1/3 126/1/3
f 130/2/3 128/2/3 127/2/3
f 130/1/3 127/1/3 129/1/3
f 131/2/3 130/2/3 129/2/3
f 132/2/3 128/2/3 130/2/3
f 132/2/3 130/2/3 131/2/3
f 133/2/3 128/2/3 132/2/3
f 135/2/3 133/2/3 132/2/3
f 135/2/3 134/2/3 133/2/3
f 136/2/3 134/2/3 135/2/3
f 137/1/3 132/1/3 131/1/3
f 138/2/3 135/2/3 132/2/3
f 138/1/3 132/1/3 137/1/3
f 139/2/3 135/2/3 138/2/3
f 142/1/3 141/1/3 140/1/3
f 143/1/3 141/1/3 142/1/3
f 145/2/3 143/2/3 142/2/3
f 145/2/3 144/2/3 143/2/3
f 146/2/3 144/2/3 145/2/3
f 147/2/3 144/2/3 146/2/3
f 148/2/3 144/2/3 147/2/3
f 150/1/3 148/1/3 147/1/3
f 151/1/3 148/1/3 150/1/3
f 152/2/3 150/2/3 149/2/3
f 153/2/3 150/2/3 152/2/3
f 158/1/3 155/1/3 154/1/3
f 158/1/3 156/1/3 155/1/3
f 159/1/3 156/1/3 158/1/3
f 160/1/3 156/1/3 159/1/3
f 161/1/3 159/1/3 158/1/3
f 161/2/3 160/2/3 159/2/3
f 162/2/3 160/2/3 161/2/3
f 163/2/3 158/2/3 157/2/3
f 164/2/3 158/2/3 163/2/3
f 165/1/3 164/1/3 163/1/3
f 166/2/3 158/2/3 164/2/3
f 166/1/3 164/1/3 165/1/3
f 167/2/3 158/2/3 166/2/3
f 168/1/3 167/1/3 166/1/3
f 168/2/3 158/2/3 167/2/3
f 169/1/3 161/1/3 158/1/3
f 169/2/3 158/2/3 168/2/3
f 170/1/3 161/1/3 169/1/3
f 171/2/3 166/2/3 165/2/3
f 172/1/3 168/1/3 166/1/3
f 172/2/3 166/2/3 171/2/3
f 172/1/3 169/1/3 168/1/3
f 173/1/3 169/1/3 172/1/3
f 176/1/3 175/1/3 174/1/3
f 177/1/3 175/1/3 176/1/3
f 179/2/3 178/2/3 177/2/3
f 181/2/3 178/2/3 179/2/3
f 182/2/3 181/2/3 180/2/3
f 183/2/3 178/2/3 181/2/3
f 183/2/3 181/2/3 182/2/3
f 185/1/3 183/1/3 182/1/3
f 186/2/3 178/2/3 183/2/3
f 186/1/3 183/1/3 185/1/3
f 187/2/3 178/2/3 186/2/3
f 188/1/3 185/1/3 184/1/3
f 189/1/3 185/1/3 188/1/3
f 192/1/3 191/1/3 190/1/3
f 193/1/3 191/1/3 192/1/3
f 194/1/4 195/1/4 196/1/4
f 196/1/4 195/1/4 197/1/4
f 198/1/4 199/1/4 200/1/4
f 200/1/4 199/1/4 201/1/4
f 201/2/4 202/2/4 203/2/4
f 203/2/4 202/2/4 204/2/4
f 204/2/4 202/2/4 205/2/4
f 206/1/4 207/1/4 208/1/4
f 208/1/4 207/1/4 209/1/4
f 208/2/4 209/2/4 211/2/4
f 209/1/4 210/1/4 212/1/4
f 211/2/4 209/2/4 212/2/4
f 212/1/4 210/1/4 213/1/4
f 214/1/4 215/1/4 216/1/4
f 216/1/4 215/1/4 217/1/4
f 218/1/4 219/1/4 221/1/4
f 221/1/4 219/1/4 222/1/4
f 220/1/4 221/1/4 223/1/4
f 223/1/4 221/1/4 224/1/4
f 225/1/4 226/1/4 227/1/4
f 227/1/4 226/1/4 228/1/4
f 229/1/4 230/1/4 231/1/4
f 228/2/4 229/2/4 231/2/4
f 231/1/4 230/1/4 232/1/4
f 231/2/4 232/2/4 234/2/4
f 232/1/4 233/1/4 234/1/4
f 234/1/4 233/1/4 235/1/4
f 231/2/4 234/2/4 236/2/4
f 234/2/4 235/2/4 236/2/4
f 236/2/4 235/2/4 237/2/4
f 228/2/4 231/2/4 238/2/4
f 231/2/4 236/2/4 238/2/4
f 238/2/4 236/2/4 239/2/4
f 236/1/4 237/1/4 240/1/4
f 239/2/4 236/2/4 240/2/4
f 240/1/4 237/1/4 241/1/4
f 239/2/4 240/2/4 242/2/4
f 242/2/4 240/2/4 243/2/4
f 244/1/4 245/1/4 246/1/4
f 246/1/4 245/1/4 247/1/4
f 246/2/4 247/2/4 249/2/4
f 247/2/4 248/2/4 249/2/4
f 249/2/4 248/2/4 250/2/4
f 249/1/4 250/1/4 251/1/4
f 250/2/4 248/2/4 252/2/4
f 251/1/4 250/1/4 252/1/4
f 252/2/4 248/2/4 253/2/4
f 251/2/4 252/2/4 255/2/4
f 253/2/4 254/2/4 255/2/4
f 252/2/4 253/2/4 255/2/4
f 255/2/4 254/2/4 256/2/4
f 261/1/5 258/1/5 257/1/5
f 262/2/5 259/2/5 258/2/5
f 262/1/5 258/1/5 261/1/5
f 263/1/5 260/1/5 259/1/5
f 263/2/5 259/2/5 262/2/5
f 264/1/5 260/1/5 263/1/5
f 265/1/5 260/1/5 264/1/5
f 266/2/5 262/2/5 261/2/5
f 266/1/5 263/1/5 262/1/5
f 266/1/5 264/1/5 263/1/5
f 267/1/5 264/1/5 266/1/5
f 268/1/5 264/1/5 267/1/5
f 269/2/5 265/2/5 264/2/5
f 269/1/5 264/1/5 268/1/5
f 270/2/5 265/2/5 269/2/5
f 274/2/5 266/2/5 261/2/5
f 274/2/5 267/2/5 266/2/5
f 275/1/5 268/1/5 267/1/5
f 275/2/5 267/2/5 274/2/5
f 276/2/5 269/2/5 268/2/5
f 276/1/5 268/1/5 275/1/5
f 277/1/5 270/1/5 269/1/5
f 277/2/5 269/2/5 276/2/5
f 278/2/5 271/2/5 270/2/5
f 278/1/5 270/1/5 277/1/5
f 279/2/5 271/2/5 278/2/5
f 280/1/5 272/1/5 271/1/5
f 280/2/5 271/2/5 279/2/5
f 281/2/5 273/2/5 272/2/5
f 281/1/5 272/1/5 280/1/5
f 282/1/5 276/1/5 275/1/5
f 282/1/5 275/1/5 274/1/5
f 282/1/5 277/1/5 276/1/5
f 283/1/5 277/1/5 282/1/5
f 284/2/5 278/2/5 277/2/5
f 284/1/5 277/1/5 283/1/5
f 285/1/5 279/1/5 278/1/5
f 285/2/5 278/2/5 284/2/5
f 286/2/5 280/2/5 279/2/5
f 286/2/5 281/2/5 280/2/5
f 287/2/5 273/2/5 281/2/5
f 287/2/5 281/2/5 286/2/5
f 288/1/5 282/1/5 274/1/5
f 289/2/5 283/2/5 282/2/5
f 289/1/5 282/1/5 288/1/5
f 290/1/5 284/1/5 283/1/5
f 290/2/5 283/2/5 289/2/5
f 290/1/5 285/1/5 284/1/5
f 291/1/5 279/1/5 285/1/5
f 291/1/5 285/1/5 290/1/5
f 292/2/5 286/2/5 279/2/5
f 292/1/5 279/1/5 291/1/5
f 293/2/5 273/2/5 287/2/5
f 294/2/5 273/2/5 293/2/5
f 295/1/5 291/1/5 290/1/5
f 296/1/5 291/1/5 295/1/5
f 297/2/5 292/2/5 291/2/5
f 297/1/5 291/1/5 296/1/5
f 298/2/5 286/2/5 292/2/5
f 298/2/5 292/2/5 297/2/5
f 299/1/5 297/1/5 296/1/5
f 299/2/5 286/2/5 298/2/5
f 299/1/5 298/1/5 297/1/5
f 300/1/5 287/1/5 286/1/5
f 300/2/5 286/2/5 299/2/5
f 301/2/5 293/2/5 287/2/5
f 301/1/5 287/1/5 300/1/5
f 302/1/5 294/1/5 293/1/5
f 302/2/5 293/2/5 301/2/5
f 303/1/5 294/1/5 302/1/5
f 304/1/5 295/1/5 290/1/5
f 305/2/5 296/2/5 295/2/5
f 305/1/5 295/1/5 304/1/5
f 306/1/5 300/1/5 299/1/5
f 306/2/5 296/2/5 305/2/5
f 306/1/5 299/1/5 296/1/5
f 307/2/5 301/2/5 300/2/5
f 307/1/5 300/1/5 306/1/5
f 307/2/5 303/2/5 302/2/5
f 307/2/5 302/2/5 301/2/5
f 308/2/5 303/2/5 307/2/5
f 309/1/6 310/1/6 311/1/6
f 311/1/6 310/1/6 312/1/6
f 313/2/6 314/2/6 317/2/6
f 317/2/6 314/2/6 318/2/6
f 318/2/6 314/2/6 319/2/6
f 315/2/6 316/2/6 320/2/6
f 320/2/6 316/2/6 321/2/6
f 322/1/6 323/1/6 324/1/6
f 324/1/6 323/1/6 325/1/6
f 325/1/6 326/1/6 327/1/6
f 327/1/6 326/1/6 328/1/6
f 329/1/6 330/1/6 331/1/6
f 331/1/6 330/1/6 332/1/6
f 333/2/6 334/2/6 337/2/6
f 337/2/6 334/2/6 338/2/6
f 338/2/6 334/2/6 339/2/6
f 335/1/6 336/1/6 341/1/6
f 339/2/6 340/2/6 342/2/6
f 342/2/6 340/2/6 343/2/6
f 335/1/6 341/1/6 346/1/6
f 346/1/6 341/1/6 347/1/6
f 344/1/6 345/1/6 348/1/6
f 348/1/6 345/1/6 349/1/6
f 350/1/6 351/1/6 352/1/6
f 352/1/6 351/1/6 353/1/6
f 353/2/6 354/2/6 355/2/6
f 355/2/6 354/2/6 356/2/6
f 357/2/6 358/2/6 360/2/6
f 360/2/6 358/2/6 361/2/6
f 358/1/6 359/1/6 362/1/6
f 361/2/6 358/2/6 362/2/6
f 362/1/6 359/1/6 363/1/6
f 360/1/6 361/1/6 366/1/6
f 361/2/6 362/2/6 367/2/6
f 366/1/6 361/1/6 367/1/6
f 362/2/6 363/2/6 367/2/6
f 367/2/6 363/2/6 368/2/6
f 368/2/6 363/2/6 369/2/6
f 364/1/6 365/1/6 370/1/6
f 370/1/6 365/1/6 371/1/6
f 371/1/6 365/1/6 372/1/6
f 366/2/6 367/2/6 374/2/6
f 367/2/6 368/2/6 374/2/6
f 374/2/6 368/2/6 375/2/6
f 375/2/6 368/2/6 376/2/6
f 372/1/6 373/1/6 377/1/6
f 377/1/6 373/1/6 378/1/6
f 375/1/6 376/1/6 379/1/6
f 379/1/6 376/1/6 380/1/6
f 381/1/6 382/1/6 384/1/6
f 384/1/6 382/1/6 385/1/6
f 383/2/6 384/2/6 386/2/6
f 384/2/6 385/2/6 386/2/6
f 386/2/6 385/2/6 387/2/6
f 388/1/6 389/1/6 392/1/6
f 389/2/6 390/2/6 393/2/6
f 392/1/6 389/1/6 393/1/6
f 393/2/6 390/2/6 394/2/6
f 391/1/6 392/1/6 397/1/6
f 395/1/6 396/1/6 399/1/6
f 399/1/6 396/1/6 400/1/6
f 391/1/6 397/1/6 401/1/6
f 401/1/6 397/1/6 402/1/6
f 398/2/6 399/2/6 403/2/6
f 403/2/6 399/2/6 404/2/6
f 405/2/6 406/2/6 407/2/6
f 407/2/6 406/2/6 408/2/6
f 405/2/6 407/2/6 409/2/6
f 409/2/6 407/2/6 410/2/6
f 410/2/6 407/2/6 411/2/6
f 407/1/6 408/1/6 412/1/6
f 411/2/6 407/2/6 412/2/6
f 410/2/6 411/2/6 413/2/6
f 411/1/6 412/1/6 414/1/6
f 413/2/6 411/2/6 414/2/6
f 412/1/6 408/1/6 415/1/6
f 414/1/6 412/1/6 415/1/6
f 415/1/6 408/1/6 416/1/6
f 409/1/6 410/1/6 417/1/6
f 410/2/6 413/2/6 418/2/6
f 417/1/6 410/1/6 418/1/6
f 413/1/6 414/1/6 419/1/6
f 418/2/6 413/2/6 419/2/6
f 414/1/6 415/1/6 419/1/6
f 419/1/6 415/1/6 420/1/6
