# MagicaVoxel @ Ephtracy

# group
o 

# material
mtllib lan-hub.mtl
usemtl palette

# normals
vn -1 0 0
vn 1 0 0
vn 0 0 1
vn 0 0 -1
vn 0 -1 0
vn 0 1 0

# texcoords
vt 0.720703 0.5
vt 0.724609 0.5
vt 0.841797 0.5
vt 0.982422 0.5

# verts
v -3.2 -2 3.2
v -3.2 -2 -3.8
v -3.2 -1.4 3.2
v -3.2 -1.4 -3.8
v -2 -1.7 3.2
v -2 -1.7 3.1
v -2 -1.6 3.2
v -2 -1.6 3.1
v -1.7 -1.7 3.2
v -1.7 -1.7 3.1
v -1.7 -1.6 3.2
v -1.7 -1.6 3.1
v -1.4 -1.7 3.2
v -1.4 -1.7 3.1
v -1.4 -1.6 3.2
v -1.4 -1.6 3.1
v -1.1 -1.7 3.2
v -1.1 -1.7 3.1
v -1.1 -1.6 3.2
v -1.1 -1.6 3.1
v -0.8 -1.7 3.2
v -0.8 -1.7 3.1
v -0.8 -1.6 3.2
v -0.8 -1.6 3.1
v -0.5 -1.7 3.2
v -0.5 -1.7 3.1
v -0.5 -1.6 3.2
v -0.5 -1.6 3.1
v -0.2 -1.7 3.2
v -0.2 -1.7 3.1
v -0.2 -1.6 3.2
v -0.2 -1.6 3.1
v 0.1 -1.7 3.2
v 0.1 -1.7 3.1
v 0.1 -1.6 3.2
v 0.1 -1.6 3.1
v 0.4 -1.7 3.2
v 0.4 -1.7 3.1
v 0.4 -1.6 3.2
v 0.4 -1.6 3.1
v 0.7 -1.7 3.2
v 0.7 -1.7 3.1
v 0.7 -1.6 3.2
v 0.7 -1.6 3.1
v 1 -1.7 3.2
v 1 -1.7 3.1
v 1 -1.6 3.2
v 1 -1.6 3.1
v 1.3 -1.7 3.2
v 1.3 -1.7 3.1
v 1.3 -1.6 3.2
v 1.3 -1.6 3.1
v 1.6 -1.7 3.2
v 1.6 -1.7 3.1
v 1.6 -1.6 3.2
v 1.6 -1.6 3.1
v 1.9 -1.7 3.2
v 1.9 -1.7 3.1
v 1.9 -1.6 3.2
v 1.9 -1.6 3.1
v 2.2 -1.7 3.2
v 2.2 -1.7 3.1
v 2.2 -1.6 3.2
v 2.2 -1.6 3.1
v 2.5 -1.7 3.2
v 2.5 -1.7 3.1
v 2.5 -1.6 3.2
v 2.5 -1.6 3.1
v 2.8 -1.7 3.2
v 2.8 -1.7 3.1
v 2.8 -1.6 3.2
v 2.8 -1.6 3.1
v -2.2 -1.7 3.2
v -2.2 -1.7 3.1
v -2.2 -1.6 3.2
v -2.2 -1.6 3.1
v -1.9 -1.7 3.2
v -1.9 -1.7 3.1
v -1.9 -1.6 3.2
v -1.9 -1.6 3.1
v -1.6 -1.7 3.2
v -1.6 -1.7 3.1
v -1.6 -1.6 3.2
v -1.6 -1.6 3.1
v -1.3 -1.7 3.2
v -1.3 -1.7 3.1
v -1.3 -1.6 3.2
v -1.3 -1.6 3.1
v -1 -1.7 3.2
v -1 -1.7 3.1
v -1 -1.6 3.2
v -1 -1.6 3.1
v -0.7 -1.7 3.2
v -0.7 -1.7 3.1
v -0.7 -1.6 3.2
v -0.7 -1.6 3.1
v -0.4 -1.7 3.2
v -0.4 -1.7 3.1
v -0.4 -1.6 3.2
v -0.4 -1.6 3.1
v -0.0999999 -1.7 3.2
v -0.0999999 -1.7 3.1
v -0.0999999 -1.6 3.2
v -0.0999999 -1.6 3.1
v 0.2 -1.7 3.2
v 0.2 -1.7 3.1
v 0.2 -1.6 3.2
v 0.2 -1.6 3.1
v 0.5 -1.7 3.2
v 0.5 -1.7 3.1
v 0.5 -1.6 3.2
v 0.5 -1.6 3.1
v 0.8 -1.7 3.2
v 0.8 -1.7 3.1
v 0.8 -1.6 3.2
v 0.8 -1.6 3.1
v 1.1 -1.7 3.2
v 1.1 -1.7 3.1
v 1.1 -1.6 3.2
v 1.1 -1.6 3.1
v 1.4 -1.7 3.2
v 1.4 -1.7 3.1
v 1.4 -1.6 3.2
v 1.4 -1.6 3.1
v 1.7 -1.7 3.2
v 1.7 -1.7 3.1
v 1.7 -1.6 3.2
v 1.7 -1.6 3.1
v 2 -1.7 3.2
v 2 -1.7 3.1
v 2 -1.6 3.2
v 2 -1.6 3.1
v 2.3 -1.7 3.2
v 2.3 -1.7 3.1
v 2.3 -1.6 3.2
v 2.3 -1.6 3.1
v 2.6 -1.7 3.2
v 2.6 -1.7 3.1
v 2.6 -1.6 3.2
v 2.6 -1.6 3.1
v 3 -2 3.2
v 3 -2 -3.8
v 3 -1.4 3.2
v 3 -1.4 -3.8
v -3.2 -2 3.2
v -3.2 -1.4 3.2
v -3.1 -1.6 3.2
v -3.1 -1.5 3.2
v -3 -1.6 3.2
v -3 -1.5 3.2
v -2.9 -1.6 3.2
v -2.9 -1.5 3.2
v -2.8 -1.6 3.2
v -2.8 -1.5 3.2
v -2.7 -1.8 3.2
v -2.7 -1.7 3.2
v -2.7 -1.6 3.2
v -2.7 -1.5 3.2
v -2.6 -1.8 3.2
v -2.6 -1.7 3.2
v -2.6 -1.6 3.2
v -2.6 -1.5 3.2
v -2.5 -1.8 3.2
v -2.5 -1.7 3.2
v -2.5 -1.6 3.2
v -2.5 -1.5 3.2
v -2.4 -1.8 3.2
v -2.4 -1.7 3.2
v -2.4 -1.6 3.2
v -2.4 -1.5 3.2
v -2.2 -1.8 3.2
v -2.2 -1.7 3.2
v -2.2 -1.6 3.2
v -2 -1.8 3.2
v -2 -1.7 3.2
v -2 -1.6 3.2
v -1.9 -1.8 3.2
v -1.9 -1.7 3.2
v -1.9 -1.6 3.2
v -1.7 -1.8 3.2
v -1.7 -1.7 3.2
v -1.7 -1.6 3.2
v -1.6 -1.8 3.2
v -1.6 -1.7 3.2
v -1.6 -1.6 3.2
v -1.4 -1.8 3.2
v -1.4 -1.7 3.2
v -1.4 -1.6 3.2
v -1.3 -1.8 3.2
v -1.3 -1.7 3.2
v -1.3 -1.6 3.2
v -1.1 -1.8 3.2
v -1.1 -1.7 3.2
v -1.1 -1.6 3.2
v -1 -1.8 3.2
v -1 -1.7 3.2
v -1 -1.6 3.2
v -0.8 -1.8 3.2
v -0.8 -1.7 3.2
v -0.8 -1.6 3.2
v -0.7 -1.8 3.2
v -0.7 -1.7 3.2
v -0.7 -1.6 3.2
v -0.5 -1.8 3.2
v -0.5 -1.7 3.2
v -0.5 -1.6 3.2
v -0.4 -1.8 3.2
v -0.4 -1.7 3.2
v -0.4 -1.6 3.2
v -0.2 -1.8 3.2
v -0.2 -1.7 3.2
v -0.2 -1.6 3.2
v -0.0999999 -1.8 3.2
v -0.0999999 -1.7 3.2
v -0.0999999 -1.6 3.2
v 0.1 -1.8 3.2
v 0.1 -1.7 3.2
v 0.1 -1.6 3.2
v 0.2 -1.8 3.2
v 0.2 -1.7 3.2
v 0.2 -1.6 3.2
v 0.4 -1.8 3.2
v 0.4 -1.7 3.2
v 0.4 -1.6 3.2
v 0.5 -1.8 3.2
v 0.5 -1.7 3.2
v 0.5 -1.6 3.2
v 0.7 -1.8 3.2
v 0.7 -1.7 3.2
v 0.7 -1.6 3.2
v 0.8 -1.8 3.2
v 0.8 -1.7 3.2
v 0.8 -1.6 3.2
v 1 -1.8 3.2
v 1 -1.7 3.2
v 1 -1.6 3.2
v 1.1 -1.8 3.2
v 1.1 -1.7 3.2
v 1.1 -1.6 3.2
v 1.3 -1.8 3.2
v 1.3 -1.7 3.2
v 1.3 -1.6 3.2
v 1.4 -1.8 3.2
v 1.4 -1.7 3.2
v 1.4 -1.6 3.2
v 1.6 -1.8 3.2
v 1.6 -1.7 3.2
v 1.6 -1.6 3.2
v 1.7 -1.8 3.2
v 1.7 -1.7 3.2
v 1.7 -1.6 3.2
v 1.9 -1.8 3.2
v 1.9 -1.7 3.2
v 1.9 -1.6 3.2
v 2 -1.8 3.2
v 2 -1.7 3.2
v 2 -1.6 3.2
v 2.2 -1.8 3.2
v 2.2 -1.7 3.2
v 2.2 -1.6 3.2
v 2.3 -1.8 3.2
v 2.3 -1.7 3.2
v 2.3 -1.6 3.2
v 2.5 -1.8 3.2
v 2.5 -1.7 3.2
v 2.5 -1.6 3.2
v 2.6 -1.8 3.2
v 2.6 -1.7 3.2
v 2.6 -1.6 3.2
v 2.8 -1.8 3.2
v 2.8 -1.7 3.2
v 2.8 -1.6 3.2
v 3 -2 3.2
v 3 -1.4 3.2
v -2.2 -1.7 3.1
v -2.2 -1.6 3.1
v -2 -1.7 3.1
v -2 -1.6 3.1
v -1.9 -1.7 3.1
v -1.9 -1.6 3.1
v -1.7 -1.7 3.1
v -1.7 -1.6 3.1
v -1.6 -1.7 3.1
v -1.6 -1.6 3.1
v -1.4 -1.7 3.1
v -1.4 -1.6 3.1
v -1.3 -1.7 3.1
v -1.3 -1.6 3.1
v -1.1 -1.7 3.1
v -1.1 -1.6 3.1
v -1 -1.7 3.1
v -1 -1.6 3.1
v -0.8 -1.7 3.1
v -0.8 -1.6 3.1
v -0.7 -1.7 3.1
v -0.7 -1.6 3.1
v -0.5 -1.7 3.1
v -0.5 -1.6 3.1
v -0.4 -1.7 3.1
v -0.4 -1.6 3.1
v -0.2 -1.7 3.1
v -0.2 -1.6 3.1
v -0.0999999 -1.7 3.1
v -0.0999999 -1.6 3.1
v 0.1 -1.7 3.1
v 0.1 -1.6 3.1
v 0.2 -1.7 3.1
v 0.2 -1.6 3.1
v 0.4 -1.7 3.1
v 0.4 -1.6 3.1
v 0.5 -1.7 3.1
v 0.5 -1.6 3.1
v 0.7 -1.7 3.1
v 0.7 -1.6 3.1
v 0.8 -1.7 3.1
v 0.8 -1.6 3.1
v 1 -1.7 3.1
v 1 -1.6 3.1
v 1.1 -1.7 3.1
v 1.1 -1.6 3.1
v 1.3 -1.7 3.1
v 1.3 -1.6 3.1
v 1.4 -1.7 3.1
v 1.4 -1.6 3.1
v 1.6 -1.7 3.1
v 1.6 -1.6 3.1
v 1.7 -1.7 3.1
v 1.7 -1.6 3.1
v 1.9 -1.7 3.1
v 1.9 -1.6 3.1
v 2 -1.7 3.1
v 2 -1.6 3.1
v 2.2 -1.7 3.1
v 2.2 -1.6 3.1
v 2.3 -1.7 3.1
v 2.3 -1.6 3.1
v 2.5 -1.7 3.1
v 2.5 -1.6 3.1
v 2.6 -1.7 3.1
v 2.6 -1.6 3.1
v 2.8 -1.7 3.1
v 2.8 -1.6 3.1
v -3.2 -2 -3.8
v -3.2 -1.4 -3.8
v 3 -2 -3.8
v 3 -1.4 -3.8
v -3.2 -2 3.2
v 3 -2 3.2
v -3.2 -2 -3.8
v 3 -2 -3.8
v -2.2 -1.6 3.2
v -2 -1.6 3.2
v -1.9 -1.6 3.2
v -1.7 -1.6 3.2
v -1.6 -1.6 3.2
v -1.4 -1.6 3.2
v -1.3 -1.6 3.2
v -1.1 -1.6 3.2
v -1 -1.6 3.2
v -0.8 -1.6 3.2
v -0.7 -1.6 3.2
v -0.5 -1.6 3.2
v -0.4 -1.6 3.2
v -0.2 -1.6 3.2
v -0.0999999 -1.6 3.2
v 0.1 -1.6 3.2
v 0.2 -1.6 3.2
v 0.4 -1.6 3.2
v 0.5 -1.6 3.2
v 0.7 -1.6 3.2
v 0.8 -1.6 3.2
v 1 -1.6 3.2
v 1.1 -1.6 3.2
v 1.3 -1.6 3.2
v 1.4 -1.6 3.2
v 1.6 -1.6 3.2
v 1.7 -1.6 3.2
v 1.9 -1.6 3.2
v 2 -1.6 3.2
v 2.2 -1.6 3.2
v 2.3 -1.6 3.2
v 2.5 -1.6 3.2
v 2.6 -1.6 3.2
v 2.8 -1.6 3.2
v -2.2 -1.6 3.1
v -2 -1.6 3.1
v -1.9 -1.6 3.1
v -1.7 -1.6 3.1
v -1.6 -1.6 3.1
v -1.4 -1.6 3.1
v -1.3 -1.6 3.1
v -1.1 -1.6 3.1
v -1 -1.6 3.1
v -0.8 -1.6 3.1
v -0.7 -1.6 3.1
v -0.5 -1.6 3.1
v -0.4 -1.6 3.1
v -0.2 -1.6 3.1
v -0.0999999 -1.6 3.1
v 0.1 -1.6 3.1
v 0.2 -1.6 3.1
v 0.4 -1.6 3.1
v 0.5 -1.6 3.1
v 0.7 -1.6 3.1
v 0.8 -1.6 3.1
v 1 -1.6 3.1
v 1.1 -1.6 3.1
v 1.3 -1.6 3.1
v 1.4 -1.6 3.1
v 1.6 -1.6 3.1
v 1.7 -1.6 3.1
v 1.9 -1.6 3.1
v 2 -1.6 3.1
v 2.2 -1.6 3.1
v 2.3 -1.6 3.1
v 2.5 -1.6 3.1
v 2.6 -1.6 3.1
v 2.8 -1.6 3.1
v -2.2 -1.7 3.2
v -2 -1.7 3.2
v -1.9 -1.7 3.2
v -1.7 -1.7 3.2
v -1.6 -1.7 3.2
v -1.4 -1.7 3.2
v -1.3 -1.7 3.2
v -1.1 -1.7 3.2
v -1 -1.7 3.2
v -0.8 -1.7 3.2
v -0.7 -1.7 3.2
v -0.5 -1.7 3.2
v -0.4 -1.7 3.2
v -0.2 -1.7 3.2
v -0.0999999 -1.7 3.2
v 0.1 -1.7 3.2
v 0.2 -1.7 3.2
v 0.4 -1.7 3.2
v 0.5 -1.7 3.2
v 0.7 -1.7 3.2
v 0.8 -1.7 3.2
v 1 -1.7 3.2
v 1.1 -1.7 3.2
v 1.3 -1.7 3.2
v 1.4 -1.7 3.2
v 1.6 -1.7 3.2
v 1.7 -1.7 3.2
v 1.9 -1.7 3.2
v 2 -1.7 3.2
v 2.2 -1.7 3.2
v 2.3 -1.7 3.2
v 2.5 -1.7 3.2
v 2.6 -1.7 3.2
v 2.8 -1.7 3.2
v -2.2 -1.7 3.1
v -2 -1.7 3.1
v -1.9 -1.7 3.1
v -1.7 -1.7 3.1
v -1.6 -1.7 3.1
v -1.4 -1.7 3.1
v -1.3 -1.7 3.1
v -1.1 -1.7 3.1
v -1 -1.7 3.1
v -0.8 -1.7 3.1
v -0.7 -1.7 3.1
v -0.5 -1.7 3.1
v -0.4 -1.7 3.1
v -0.2 -1.7 3.1
v -0.0999999 -1.7 3.1
v 0.1 -1.7 3.1
v 0.2 -1.7 3.1
v 0.4 -1.7 3.1
v 0.5 -1.7 3.1
v 0.7 -1.7 3.1
v 0.8 -1.7 3.1
v 1 -1.7 3.1
v 1.1 -1.7 3.1
v 1.3 -1.7 3.1
v 1.4 -1.7 3.1
v 1.6 -1.7 3.1
v 1.7 -1.7 3.1
v 1.9 -1.7 3.1
v 2 -1.7 3.1
v 2.2 -1.7 3.1
v 2.3 -1.7 3.1
v 2.5 -1.7 3.1
v 2.6 -1.7 3.1
v 2.8 -1.7 3.1
v -3.2 -1.4 3.2
v 3 -1.4 3.2
v -3.2 -1.4 -3.8
v 3 -1.4 -3.8

# faces
f 3/4/1 2/4/1 1/4/1
f 4/4/1 2/4/1 3/4/1
f 7/4/1 6/4/1 5/4/1
f 8/4/1 6/4/1 7/4/1
f 11/4/1 10/4/1 9/4/1
f 12/4/1 10/4/1 11/4/1
f 15/4/1 14/4/1 13/4/1
f 16/4/1 14/4/1 15/4/1
f 19/4/1 18/4/1 17/4/1
f 20/4/1 18/4/1 19/4/1
f 23/4/1 22/4/1 21/4/1
f 24/4/1 22/4/1 23/4/1
f 27/4/1 26/4/1 25/4/1
f 28/4/1 26/4/1 27/4/1
f 31/4/1 30/4/1 29/4/1
f 32/4/1 30/4/1 31/4/1
f 35/4/1 34/4/1 33/4/1
f 36/4/1 34/4/1 35/4/1
f 39/4/1 38/4/1 37/4/1
f 40/4/1 38/4/1 39/4/1
f 43/4/1 42/4/1 41/4/1
f 44/4/1 42/4/1 43/4/1
f 47/4/1 46/4/1 45/4/1
f 48/4/1 46/4/1 47/4/1
f 51/4/1 50/4/1 49/4/1
f 52/4/1 50/4/1 51/4/1
f 55/4/1 54/4/1 53/4/1
f 56/4/1 54/4/1 55/4/1
f 59/4/1 58/4/1 57/4/1
f 60/4/1 58/4/1 59/4/1
f 63/4/1 62/4/1 61/4/1
f 64/4/1 62/4/1 63/4/1
f 67/4/1 66/4/1 65/4/1
f 68/4/1 66/4/1 67/4/1
f 71/4/1 70/4/1 69/4/1
f 72/4/1 70/4/1 71/4/1
f 73/4/2 74/4/2 75/4/2
f 75/4/2 74/4/2 76/4/2
f 77/4/2 78/4/2 79/4/2
f 79/4/2 78/4/2 80/4/2
f 81/4/2 82/4/2 83/4/2
f 83/4/2 82/4/2 84/4/2
f 85/4/2 86/4/2 87/4/2
f 87/4/2 86/4/2 88/4/2
f 89/4/2 90/4/2 91/4/2
f 91/4/2 90/4/2 92/4/2
f 93/4/2 94/4/2 95/4/2
f 95/4/2 94/4/2 96/4/2
f 97/4/2 98/4/2 99/4/2
f 99/4/2 98/4/2 100/4/2
f 101/4/2 102/4/2 103/4/2
f 103/4/2 102/4/2 104/4/2
f 105/4/2 106/4/2 107/4/2
f 107/4/2 106/4/2 108/4/2
f 109/4/2 110/4/2 111/4/2
f 111/4/2 110/4/2 112/4/2
f 113/4/2 114/4/2 115/4/2
f 115/4/2 114/4/2 116/4/2
f 117/4/2 118/4/2 119/4/2
f 119/4/2 118/4/2 120/4/2
f 121/4/2 122/4/2 123/4/2
f 123/4/2 122/4/2 124/4/2
f 125/4/2 126/4/2 127/4/2
f 127/4/2 126/4/2 128/4/2
f 129/4/2 130/4/2 131/4/2
f 131/4/2 130/4/2 132/4/2
f 133/4/2 134/4/2 135/4/2
f 135/4/2 134/4/2 136/4/2
f 137/4/2 138/4/2 139/4/2
f 139/4/2 138/4/2 140/4/2
f 141/4/2 142/4/2 143/4/2
f 143/4/2 142/4/2 144/4/2
f 147/4/3 146/4/3 145/4/3
f 148/4/3 146/4/3 147/4/3
f 149/4/3 147/4/3 145/4/3
f 149/2/3 148/2/3 147/2/3
f 150/4/3 146/4/3 148/4/3
f 150/2/3 148/2/3 149/2/3
f 151/4/3 149/4/3 145/4/3
f 151/4/3 150/4/3 149/4/3
f 152/4/3 146/4/3 150/4/3
f 152/4/3 150/4/3 151/4/3
f 153/4/3 151/4/3 145/4/3
f 153/3/3 152/3/3 151/3/3
f 154/4/3 146/4/3 152/4/3
f 154/3/3 152/3/3 153/3/3
f 155/4/3 153/4/3 145/4/3
f 155/4/3 154/4/3 153/4/3
f 156/4/3 154/4/3 155/4/3
f 157/4/3 154/4/3 156/4/3
f 158/4/3 146/4/3 154/4/3
f 158/4/3 154/4/3 157/4/3
f 159/4/3 155/4/3 145/4/3
f 159/1/3 156/1/3 155/1/3
f 160/4/3 157/4/3 156/4/3
f 160/1/3 156/1/3 159/1/3
f 161/1/3 158/1/3 157/1/3
f 161/4/3 157/4/3 160/4/3
f 162/4/3 146/4/3 158/4/3
f 162/1/3 158/1/3 161/1/3
f 163/4/3 159/4/3 145/4/3
f 163/4/3 161/4/3 160/4/3
f 163/4/3 162/4/3 161/4/3
f 163/4/3 160/4/3 159/4/3
f 164/4/3 162/4/3 163/4/3
f 165/4/3 162/4/3 164/4/3
f 166/4/3 146/4/3 162/4/3
f 166/4/3 162/4/3 165/4/3
f 167/4/3 163/4/3 145/4/3
f 167/1/3 164/1/3 163/1/3
f 168/4/3 165/4/3 164/4/3
f 168/1/3 164/1/3 167/1/3
f 169/1/3 166/1/3 165/1/3
f 169/4/3 165/4/3 168/4/3
f 170/4/3 146/4/3 166/4/3
f 170/1/3 166/1/3 169/1/3
f 171/4/3 167/4/3 145/4/3
f 171/4/3 169/4/3 168/4/3
f 171/4/3 170/4/3 169/4/3
f 171/4/3 168/4/3 167/4/3
f 172/4/3 170/4/3 171/4/3
f 173/4/3 170/4/3 172/4/3
f 174/4/3 171/4/3 145/4/3
f 174/2/3 172/2/3 171/2/3
f 175/2/3 172/2/3 174/2/3
f 176/4/3 170/4/3 173/4/3
f 177/4/3 175/4/3 174/4/3
f 177/4/3 176/4/3 175/4/3
f 177/4/3 174/4/3 145/4/3
f 178/4/3 176/4/3 177/4/3
f 179/4/3 170/4/3 176/4/3
f 179/4/3 176/4/3 178/4/3
f 180/2/3 178/2/3 177/2/3
f 180/4/3 177/4/3 145/4/3
f 181/2/3 178/2/3 180/2/3
f 182/4/3 170/4/3 179/4/3
f 183/4/3 181/4/3 180/4/3
f 183/4/3 182/4/3 181/4/3
f 183/4/3 180/4/3 145/4/3
f 184/4/3 182/4/3 183/4/3
f 185/4/3 170/4/3 182/4/3
f 185/4/3 182/4/3 184/4/3
f 186/2/3 184/2/3 183/2/3
f 186/4/3 183/4/3 145/4/3
f 187/2/3 184/2/3 186/2/3
f 188/4/3 170/4/3 185/4/3
f 189/4/3 187/4/3 186/4/3
f 189/4/3 188/4/3 187/4/3
f 189/4/3 186/4/3 145/4/3
f 190/4/3 188/4/3 189/4/3
f 191/4/3 170/4/3 188/4/3
f 191/4/3 188/4/3 190/4/3
f 192/2/3 190/2/3 189/2/3
f 192/4/3 189/4/3 145/4/3
f 193/2/3 190/2/3 192/2/3
f 194/4/3 170/4/3 191/4/3
f 195/4/3 193/4/3 192/4/3
f 195/4/3 194/4/3 193/4/3
f 195/4/3 192/4/3 145/4/3
f 196/4/3 194/4/3 195/4/3
f 197/4/3 170/4/3 194/4/3
f 197/4/3 194/4/3 196/4/3
f 198/2/3 196/2/3 195/2/3
f 198/4/3 195/4/3 145/4/3
f 199/2/3 196/2/3 198/2/3
f 200/4/3 170/4/3 197/4/3
f 201/4/3 199/4/3 198/4/3
f 201/4/3 200/4/3 199/4/3
f 201/4/3 198/4/3 145/4/3
f 202/4/3 200/4/3 201/4/3
f 203/4/3 170/4/3 200/4/3
f 203/4/3 200/4/3 202/4/3
f 204/2/3 202/2/3 201/2/3
f 204/4/3 201/4/3 145/4/3
f 205/2/3 202/2/3 204/2/3
f 206/4/3 170/4/3 203/4/3
f 207/4/3 205/4/3 204/4/3
f 207/4/3 206/4/3 205/4/3
f 207/4/3 204/4/3 145/4/3
f 208/4/3 206/4/3 207/4/3
f 209/4/3 170/4/3 206/4/3
f 209/4/3 206/4/3 208/4/3
f 210/2/3 208/2/3 207/2/3
f 210/4/3 207/4/3 145/4/3
f 211/2/3 208/2/3 210/2/3
f 212/4/3 170/4/3 209/4/3
f 213/4/3 211/4/3 210/4/3
f 213/4/3 212/4/3 211/4/3
f 213/4/3 210/4/3 145/4/3
f 214/4/3 212/4/3 213/4/3
f 215/4/3 170/4/3 212/4/3
f 215/4/3 212/4/3 214/4/3
f 216/2/3 214/2/3 213/2/3
f 216/4/3 213/4/3 145/4/3
f 217/2/3 214/2/3 216/2/3
f 218/4/3 170/4/3 215/4/3
f 219/4/3 217/4/3 216/4/3
f 219/4/3 218/4/3 217/4/3
f 219/4/3 216/4/3 145/4/3
f 220/4/3 218/4/3 219/4/3
f 221/4/3 170/4/3 218/4/3
f 221/4/3 218/4/3 220/4/3
f 222/2/3 220/2/3 219/2/3
f 222/4/3 219/4/3 145/4/3
f 223/2/3 220/2/3 222/2/3
f 224/4/3 170/4/3 221/4/3
f 225/4/3 223/4/3 222/4/3
f 225/4/3 224/4/3 223/4/3
f 225/4/3 222/4/3 145/4/3
f 226/4/3 224/4/3 225/4/3
f 227/4/3 170/4/3 224/4/3
f 227/4/3 224/4/3 226/4/3
f 228/2/3 226/2/3 225/2/3
f 228/4/3 225/4/3 145/4/3
f 229/2/3 226/2/3 228/2/3
f 230/4/3 170/4/3 227/4/3
f 231/4/3 229/4/3 228/4/3
f 231/4/3 230/4/3 229/4/3
f 231/4/3 228/4/3 145/4/3
f 232/4/3 230/4/3 231/4/3
f 233/4/3 170/4/3 230/4/3
f 233/4/3 230/4/3 232/4/3
f 234/2/3 232/2/3 231/2/3
f 234/4/3 231/4/3 145/4/3
f 235/2/3 232/2/3 234/2/3
f 236/4/3 170/4/3 233/4/3
f 237/4/3 235/4/3 234/4/3
f 237/4/3 236/4/3 235/4/3
f 237/4/3 234/4/3 145/4/3
f 238/4/3 236/4/3 237/4/3
f 239/4/3 170/4/3 236/4/3
f 239/4/3 236/4/3 238/4/3
f 240/2/3 238/2/3 237/2/3
f 240/4/3 237/4/3 145/4/3
f 241/2/3 238/2/3 240/2/3
f 242/4/3 170/4/3 239/4/3
f 243/4/3 241/4/3 240/4/3
f 243/4/3 242/4/3 241/4/3
f 243/4/3 240/4/3 145/4/3
f 244/4/3 242/4/3 243/4/3
f 245/4/3 170/4/3 242/4/3
f 245/4/3 242/4/3 244/4/3
f 246/2/3 244/2/3 243/2/3
f 246/4/3 243/4/3 145/4/3
f 247/2/3 244/2/3 246/2/3
f 248/4/3 170/4/3 245/4/3
f 249/4/3 247/4/3 246/4/3
f 249/4/3 248/4/3 247/4/3
f 249/4/3 246/4/3 145/4/3
f 250/4/3 248/4/3 249/4/3
f 251/4/3 170/4/3 248/4/3
f 251/4/3 248/4/3 250/4/3
f 252/2/3 250/2/3 249/2/3
f 252/4/3 249/4/3 145/4/3
f 253/2/3 250/2/3 252/2/3
f 254/4/3 170/4/3 251/4/3
f 255/4/3 253/4/3 252/4/3
f 255/4/3 254/4/3 253/4/3
f 255/4/3 252/4/3 145/4/3
f 256/4/3 254/4/3 255/4/3
f 257/4/3 170/4/3 254/4/3
f 257/4/3 254/4/3 256/4/3
f 258/2/3 256/2/3 255/2/3
f 258/4/3 255/4/3 145/4/3
f 259/2/3 256/2/3 258/2/3
f 260/4/3 170/4/3 257/4/3
f 261/4/3 259/4/3 258/4/3
f 261/4/3 260/4/3 259/4/3
f 261/4/3 258/4/3 145/4/3
f 262/4/3 260/4/3 261/4/3
f 263/4/3 170/4/3 260/4/3
f 263/4/3 260/4/3 262/4/3
f 264/2/3 262/2/3 261/2/3
f 264/4/3 261/4/3 145/4/3
f 265/2/3 262/2/3 264/2/3
f 266/4/3 170/4/3 263/4/3
f 267/4/3 265/4/3 264/4/3
f 267/4/3 266/4/3 265/4/3
f 267/4/3 264/4/3 145/4/3
f 268/4/3 266/4/3 267/4/3
f 269/4/3 170/4/3 266/4/3
f 269/4/3 266/4/3 268/4/3
f 270/2/3 268/2/3 267/2/3
f 270/4/3 267/4/3 145/4/3
f 271/2/3 268/2/3 270/2/3
f 272/4/3 170/4/3 269/4/3
f 273/4/3 271/4/3 270/4/3
f 273/4/3 272/4/3 271/4/3
f 273/4/3 270/4/3 145/4/3
f 274/4/3 146/4/3 170/4/3
f 274/4/3 272/4/3 273/4/3
f 274/4/3 170/4/3 272/4/3
f 277/4/3 276/4/3 275/4/3
f 278/4/3 276/4/3 277/4/3
f 281/4/3 280/4/3 279/4/3
f 282/4/3 280/4/3 281/4/3
f 285/4/3 284/4/3 283/4/3
f 286/4/3 284/4/3 285/4/3
f 289/4/3 288/4/3 287/4/3
f 290/4/3 288/4/3 289/4/3
f 293/4/3 292/4/3 291/4/3
f 294/4/3 292/4/3 293/4/3
f 297/4/3 296/4/3 295/4/3
f 298/4/3 296/4/3 297/4/3
f 301/4/3 300/4/3 299/4/3
f 302/4/3 300/4/3 301/4/3
f 305/4/3 304/4/3 303/4/3
f 306/4/3 304/4/3 305/4/3
f 309/4/3 308/4/3 307/4/3
f 310/4/3 308/4/3 309/4/3
f 313/4/3 312/4/3 311/4/3
f 314/4/3 312/4/3 313/4/3
f 317/4/3 316/4/3 315/4/3
f 318/4/3 316/4/3 317/4/3
f 321/4/3 320/4/3 319/4/3
f 322/4/3 320/4/3 321/4/3
f 325/4/3 324/4/3 323/4/3
f 326/4/3 324/4/3 325/4/3
f 329/4/3 328/4/3 327/4/3
f 330/4/3 328/4/3 329/4/3
f 333/4/3 332/4/3 331/4/3
f 334/4/3 332/4/3 333/4/3
f 337/4/3 336/4/3 335/4/3
f 338/4/3 336/4/3 337/4/3
f 341/4/3 340/4/3 339/4/3
f 342/4/3 340/4/3 341/4/3
f 343/4/4 344/4/4 345/4/4
f 345/4/4 344/4/4 346/4/4
f 349/4/5 348/4/5 347/4/5
f 350/4/5 348/4/5 349/4/5
f 385/4/5 352/4/5 351/4/5
f 386/4/5 352/4/5 385/4/5
f 387/4/5 354/4/5 353/4/5
f 388/4/5 354/4/5 387/4/5
f 389/4/5 356/4/5 355/4/5
f 390/4/5 356/4/5 389/4/5
f 391/4/5 358/4/5 357/4/5
f 392/4/5 358/4/5 391/4/5
f 393/4/5 360/4/5 359/4/5
f 394/4/5 360/4/5 393/4/5
f 395/4/5 362/4/5 361/4/5
f 396/4/5 362/4/5 395/4/5
f 397/4/5 364/4/5 363/4/5
f 398/4/5 364/4/5 397/4/5
f 399/4/5 366/4/5 365/4/5
f 400/4/5 366/4/5 399/4/5
f 401/4/5 368/4/5 367/4/5
f 402/4/5 368/4/5 401/4/5
f 403/4/5 370/4/5 369/4/5
f 404/4/5 370/4/5 403/4/5
f 405/4/5 372/4/5 371/4/5
f 406/4/5 372/4/5 405/4/5
f 407/4/5 374/4/5 373/4/5
f 408/4/5 374/4/5 407/4/5
f 409/4/5 376/4/5 375/4/5
f 410/4/5 376/4/5 409/4/5
f 411/4/5 378/4/5 377/4/5
f 412/4/5 378/4/5 411/4/5
f 413/4/5 380/4/5 379/4/5
f 414/4/5 380/4/5 413/4/5
f 415/4/5 382/4/5 381/4/5
f 416/4/5 382/4/5 415/4/5
f 417/4/5 384/4/5 383/4/5
f 418/4/5 384/4/5 417/4/5
f 419/2/6 420/2/6 453/2/6
f 453/2/6 420/2/6 454/2/6
f 421/2/6 422/2/6 455/2/6
f 455/2/6 422/2/6 456/2/6
f 423/2/6 424/2/6 457/2/6
f 457/2/6 424/2/6 458/2/6
f 425/2/6 426/2/6 459/2/6
f 459/2/6 426/2/6 460/2/6
f 427/2/6 428/2/6 461/2/6
f 461/2/6 428/2/6 462/2/6
f 429/2/6 430/2/6 463/2/6
f 463/2/6 430/2/6 464/2/6
f 431/2/6 432/2/6 465/2/6
f 465/2/6 432/2/6 466/2/6
f 433/2/6 434/2/6 467/2/6
f 467/2/6 434/2/6 468/2/6
f 435/2/6 436/2/6 469/2/6
f 469/2/6 436/2/6 470/2/6
f 437/2/6 438/2/6 471/2/6
f 471/2/6 438/2/6 472/2/6
f 439/2/6 440/2/6 473/2/6
f 473/2/6 440/2/6 474/2/6
f 441/2/6 442/2/6 475/2/6
f 475/2/6 442/2/6 476/2/6
f 443/2/6 444/2/6 477/2/6
f 477/2/6 444/2/6 478/2/6
f 445/2/6 446/2/6 479/2/6
f 479/2/6 446/2/6 480/2/6
f 447/2/6 448/2/6 481/2/6
f 481/2/6 448/2/6 482/2/6
f 449/2/6 450/2/6 483/2/6
f 483/2/6 450/2/6 484/2/6
f 451/2/6 452/2/6 485/2/6
f 485/2/6 452/2/6 486/2/6
f 487/4/6 488/4/6 489/4/6
f 489/4/6 488/4/6 490/4/6
