# MagicaVoxel @ Ephtracy

# group
o 

# material
mtllib server.mtl
usemtl palette

# normals
vn -1 0 0
vn 1 0 0
vn 0 0 1
vn 0 0 -1
vn 0 -1 0
vn 0 1 0

# texcoords
vt 0.748047 0.5
vt 0.779297 0.5
vt 0.841797 0.5
vt 0.978516 0.5
vt 0.982422 0.5
vt 0.986328 0.5

# verts
v -3.2 -2 3.2
v -3.2 -2 2.4
v -3.2 -2 -3.8
v -3.2 -1.4 3.2
v -3.2 -1.4 2.4
v -3.2 -1.4 -3.8
v 2.2 -1.9 3.2
v 2.2 -1.9 3.1
v 2.2 -1.8 3.2
v 2.2 -1.8 3.1
v 2.2 -1.7 3.2
v 2.2 -1.7 3.1
v 2.2 -1.6 3.2
v 2.2 -1.6 3.1
v 2.5 -1.9 3.2
v 2.5 -1.9 3.1
v 2.5 -1.8 3.2
v 2.5 -1.8 3.1
v 2.5 -1.7 3.2
v 2.5 -1.7 3.1
v 2.5 -1.6 3.2
v 2.5 -1.6 3.1
v 2.7 -1.7 3.2
v 2.7 -1.7 3.1
v 2.7 -1.6 3.2
v 2.7 -1.6 3.1
v 2.9 -1.7 3.2
v 2.9 -1.7 3.1
v 2.9 -1.6 3.2
v 2.9 -1.6 3.1
v 2 -1.9 3.2
v 2 -1.9 3.1
v 2 -1.8 3.2
v 2 -1.8 3.1
v 2 -1.7 3.2
v 2 -1.7 3.1
v 2 -1.6 3.2
v 2 -1.6 3.1
v 2.3 -1.9 3.2
v 2.3 -1.9 3.1
v 2.3 -1.8 3.2
v 2.3 -1.8 3.1
v 2.3 -1.7 3.2
v 2.3 -1.7 3.1
v 2.3 -1.6 3.2
v 2.3 -1.6 3.1
v 2.6 -1.7 3.2
v 2.6 -1.7 3.1
v 2.6 -1.6 3.2
v 2.6 -1.6 3.1
v 2.8 -1.7 3.2
v 2.8 -1.7 3.1
v 2.8 -1.6 3.2
v 2.8 -1.6 3.1
v 3 -2 3.2
v 3 -2 2.4
v 3 -2 -3.8
v 3 -1.4 3.2
v 3 -1.4 2.4
v 3 -1.4 -3.8
v -3.2 -2 3.2
v -3.2 -1.4 3.2
v -3 -1.9 3.2
v -3 -1.5 3.2
v -1.4 -1.9 3.2
v -1.4 -1.5 3.2
v -1.2 -1.9 3.2
v -1.2 -1.5 3.2
v 0.4 -1.9 3.2
v 0.4 -1.5 3.2
v 0.6 -1.9 3.2
v 0.6 -1.5 3.2
v 1.9 -1.9 3.2
v 1.9 -1.5 3.2
v 2 -1.9 3.2
v 2 -1.8 3.2
v 2 -1.7 3.2
v 2 -1.6 3.2
v 2.2 -1.9 3.2
v 2.2 -1.8 3.2
v 2.2 -1.7 3.2
v 2.2 -1.6 3.2
v 2.3 -1.9 3.2
v 2.3 -1.8 3.2
v 2.3 -1.7 3.2
v 2.3 -1.6 3.2
v 2.5 -1.9 3.2
v 2.5 -1.8 3.2
v 2.5 -1.7 3.2
v 2.5 -1.6 3.2
v 2.6 -1.9 3.2
v 2.6 -1.8 3.2
v 2.6 -1.7 3.2
v 2.6 -1.6 3.2
v 2.7 -1.9 3.2
v 2.7 -1.8 3.2
v 2.7 -1.7 3.2
v 2.7 -1.6 3.2
v 2.8 -1.9 3.2
v 2.8 -1.8 3.2
v 2.8 -1.7 3.2
v 2.8 -1.6 3.2
v 2.9 -1.9 3.2
v 2.9 -1.8 3.2
v 2.9 -1.7 3.2
v 2.9 -1.6 3.2
v 3 -2 3.2
v 3 -1.4 3.2
v 2 -1.9 3.1
v 2 -1.8 3.1
v 2 -1.7 3.1
v 2 -1.6 3.1
v 2.2 -1.9 3.1
v 2.2 -1.8 3.1
v 2.2 -1.7 3.1
v 2.2 -1.6 3.1
v 2.3 -1.9 3.1
v 2.3 -1.8 3.1
v 2.3 -1.7 3.1
v 2.3 -1.6 3.1
v 2.5 -1.9 3.1
v 2.5 -1.8 3.1
v 2.5 -1.7 3.1
v 2.5 -1.6 3.1
v 2.6 -1.7 3.1
v 2.6 -1.6 3.1
v 2.7 -1.7 3.1
v 2.7 -1.6 3.1
v 2.8 -1.7 3.1
v 2.8 -1.6 3.1
v 2.9 -1.7 3.1
v 2.9 -1.6 3.1
v -3.2 -2 -3.8
v -3.2 -1.4 -3.8
v 3 -2 -3.8
v 3 -1.4 -3.8
v -3.2 -2 3.2
v 3 -2 3.2
v -3.2 -2 2.4
v 3 -2 2.4
v -3.2 -2 -3.8
v 3 -2 -3.8
v 2 -1.8 3.2
v 2.2 -1.8 3.2
v 2.3 -1.8 3.2
v 2.5 -1.8 3.2
v 2 -1.8 3.1
v 2.2 -1.8 3.1
v 2.3 -1.8 3.1
v 2.5 -1.8 3.1
v 2 -1.6 3.2
v 2.2 -1.6 3.2
v 2.3 -1.6 3.2
v 2.5 -1.6 3.2
v 2.6 -1.6 3.2
v 2.7 -1.6 3.2
v 2.8 -1.6 3.2
v 2.9 -1.6 3.2
v 2 -1.6 3.1
v 2.2 -1.6 3.1
v 2.3 -1.6 3.1
v 2.5 -1.6 3.1
v 2.6 -1.6 3.1
v 2.7 -1.6 3.1
v 2.8 -1.6 3.1
v 2.9 -1.6 3.1
v 2 -1.9 3.2
v 2.2 -1.9 3.2
v 2.3 -1.9 3.2
v 2.5 -1.9 3.2
v 2 -1.9 3.1
v 2.2 -1.9 3.1
v 2.3 -1.9 3.1
v 2.5 -1.9 3.1
v 2 -1.7 3.2
v 2.2 -1.7 3.2
v 2.3 -1.7 3.2
v 2.5 -1.7 3.2
v 2.6 -1.7 3.2
v 2.7 -1.7 3.2
v 2.8 -1.7 3.2
v 2.9 -1.7 3.2
v 2 -1.7 3.1
v 2.2 -1.7 3.1
v 2.3 -1.7 3.1
v 2.5 -1.7 3.1
v 2.6 -1.7 3.1
v 2.7 -1.7 3.1
v 2.8 -1.7 3.1
v 2.9 -1.7 3.1
v -3.2 -1.4 3.2
v 3 -1.4 3.2
v -3.2 -1.4 2.4
v 3 -1.4 2.4
v -3.2 -1.4 -3.8
v 3 -1.4 -3.8

# faces
f 4/4/1 2/4/1 1/4/1
f 5/5/1 3/5/1 2/5/1
f 5/4/1 2/4/1 4/4/1
f 6/5/1 3/5/1 5/5/1
f 9/4/1 8/4/1 7/4/1
f 10/4/1 8/4/1 9/4/1
f 13/4/1 12/4/1 11/4/1
f 14/4/1 12/4/1 13/4/1
f 17/4/1 16/4/1 15/4/1
f 18/4/1 16/4/1 17/4/1
f 21/4/1 20/4/1 19/4/1
f 22/4/1 20/4/1 21/4/1
f 25/4/1 24/4/1 23/4/1
f 26/4/1 24/4/1 25/4/1
f 29/4/1 28/4/1 27/4/1
f 30/4/1 28/4/1 29/4/1
f 31/4/2 32/4/2 33/4/2
f 33/4/2 32/4/2 34/4/2
f 35/4/2 36/4/2 37/4/2
f 37/4/2 36/4/2 38/4/2
f 39/4/2 40/4/2 41/4/2
f 41/4/2 40/4/2 42/4/2
f 43/4/2 44/4/2 45/4/2
f 45/4/2 44/4/2 46/4/2
f 47/4/2 48/4/2 49/4/2
f 49/4/2 48/4/2 50/4/2
f 51/4/2 52/4/2 53/4/2
f 53/4/2 52/4/2 54/4/2
f 55/4/2 56/4/2 58/4/2
f 56/5/2 57/5/2 59/5/2
f 58/4/2 56/4/2 59/4/2
f 59/5/2 57/5/2 60/5/2
f 63/4/3 62/4/3 61/4/3
f 64/4/3 62/4/3 63/4/3
f 65/4/3 63/4/3 61/4/3
f 65/6/3 64/6/3 63/6/3
f 66/4/3 62/4/3 64/4/3
f 66/6/3 64/6/3 65/6/3
f 67/4/3 65/4/3 61/4/3
f 67/4/3 66/4/3 65/4/3
f 68/4/3 62/4/3 66/4/3
f 68/4/3 66/4/3 67/4/3
f 69/4/3 67/4/3 61/4/3
f 69/6/3 68/6/3 67/6/3
f 70/4/3 62/4/3 68/4/3
f 70/6/3 68/6/3 69/6/3
f 71/4/3 69/4/3 61/4/3
f 71/4/3 70/4/3 69/4/3
f 72/4/3 62/4/3 70/4/3
f 72/4/3 70/4/3 71/4/3
f 73/4/3 71/4/3 61/4/3
f 73/6/3 72/6/3 71/6/3
f 74/4/3 62/4/3 72/4/3
f 74/6/3 72/6/3 73/6/3
f 75/4/3 73/4/3 61/4/3
f 75/4/3 74/4/3 73/4/3
f 76/4/3 74/4/3 75/4/3
f 77/4/3 74/4/3 76/4/3
f 78/4/3 74/4/3 77/4/3
f 79/4/3 75/4/3 61/4/3
f 80/4/3 77/4/3 76/4/3
f 81/4/3 77/4/3 80/4/3
f 82/4/3 74/4/3 78/4/3
f 83/4/3 81/4/3 80/4/3
f 83/4/3 82/4/3 81/4/3
f 83/4/3 79/4/3 61/4/3
f 83/4/3 80/4/3 79/4/3
f 84/4/3 82/4/3 83/4/3
f 85/4/3 82/4/3 84/4/3
f 86/4/3 74/4/3 82/4/3
f 86/4/3 82/4/3 85/4/3
f 87/4/3 83/4/3 61/4/3
f 88/4/3 85/4/3 84/4/3
f 89/4/3 85/4/3 88/4/3
f 90/4/3 74/4/3 86/4/3
f 91/4/3 87/4/3 61/4/3
f 91/4/3 90/4/3 89/4/3
f 91/4/3 89/4/3 88/4/3
f 91/4/3 88/4/3 87/4/3
f 92/4/3 90/4/3 91/4/3
f 93/4/3 90/4/3 92/4/3
f 94/4/3 74/4/3 90/4/3
f 94/4/3 90/4/3 93/4/3
f 95/4/3 91/4/3 61/4/3
f 95/1/3 92/1/3 91/1/3
f 96/4/3 93/4/3 92/4/3
f 96/1/3 92/1/3 95/1/3
f 97/4/3 93/4/3 96/4/3
f 98/4/3 74/4/3 94/4/3
f 99/4/3 95/4/3 61/4/3
f 99/4/3 98/4/3 97/4/3
f 99/4/3 97/4/3 96/4/3
f 99/4/3 96/4/3 95/4/3
f 100/4/3 98/4/3 99/4/3
f 101/4/3 98/4/3 100/4/3
f 102/4/3 74/4/3 98/4/3
f 102/4/3 98/4/3 101/4/3
f 103/4/3 99/4/3 61/4/3
f 103/3/3 100/3/3 99/3/3
f 104/4/3 101/4/3 100/4/3
f 104/3/3 100/3/3 103/3/3
f 105/4/3 101/4/3 104/4/3
f 106/4/3 74/4/3 102/4/3
f 107/4/3 103/4/3 61/4/3
f 107/4/3 106/4/3 105/4/3
f 107/4/3 105/4/3 104/4/3
f 107/4/3 104/4/3 103/4/3
f 108/4/3 62/4/3 74/4/3
f 108/4/3 106/4/3 107/4/3
f 108/4/3 74/4/3 106/4/3
f 113/2/3 110/2/3 109/2/3
f 114/2/3 110/2/3 113/2/3
f 115/2/3 112/2/3 111/2/3
f 116/2/3 112/2/3 115/2/3
f 121/2/3 118/2/3 117/2/3
f 122/2/3 118/2/3 121/2/3
f 123/2/3 120/2/3 119/2/3
f 124/2/3 120/2/3 123/2/3
f 127/5/3 126/5/3 125/5/3
f 128/5/3 126/5/3 127/5/3
f 131/5/3 130/5/3 129/5/3
f 132/5/3 130/5/3 131/5/3
f 133/5/4 134/5/4 135/5/4
f 135/5/4 134/5/4 136/5/4
f 139/4/5 138/4/5 137/4/5
f 140/4/5 138/4/5 139/4/5
f 141/5/5 140/5/5 139/5/5
f 142/5/5 140/5/5 141/5/5
f 147/4/5 144/4/5 143/4/5
f 148/4/5 144/4/5 147/4/5
f 149/4/5 146/4/5 145/4/5
f 150/4/5 146/4/5 149/4/5
f 159/4/5 152/4/5 151/4/5
f 160/4/5 152/4/5 159/4/5
f 161/4/5 154/4/5 153/4/5
f 162/4/5 154/4/5 161/4/5
f 163/4/5 156/4/5 155/4/5
f 164/4/5 156/4/5 163/4/5
f 165/4/5 158/4/5 157/4/5
f 166/4/5 158/4/5 165/4/5
f 167/4/6 168/4/6 171/4/6
f 171/4/6 168/4/6 172/4/6
f 169/4/6 170/4/6 173/4/6
f 173/4/6 170/4/6 174/4/6
f 175/4/6 176/4/6 183/4/6
f 183/4/6 176/4/6 184/4/6
f 177/4/6 178/4/6 185/4/6
f 185/4/6 178/4/6 186/4/6
f 179/4/6 180/4/6 187/4/6
f 187/4/6 180/4/6 188/4/6
f 181/4/6 182/4/6 189/4/6
f 189/4/6 182/4/6 190/4/6
f 191/4/6 192/4/6 193/4/6
f 193/4/6 192/4/6 194/4/6
f 193/5/6 194/5/6 195/5/6
f 195/5/6 194/5/6 196/5/6
