# MagicaVoxel @ Ephtracy

# group
o 

# material
mtllib tv-pc-monitor.mtl
usemtl palette

# normals
vn -1 0 0
vn 1 0 0
vn 0 0 1
vn 0 0 -1
vn 0 -1 0
vn 0 1 0

# texcoords
vt 0.302734 0.5
vt 0.423828 0.5
vt 0.720703 0.5
vt 0.779297 0.5
vt 0.841797 0.5
vt 0.853516 0.5
vt 0.958984 0.5
vt 0.962891 0.5
vt 0.974609 0.5
vt 0.986328 0.5
vt 0.994141 0.5

# verts
v -2.6 -1.2 1.8
v -2.6 -1.2 1.4
v -2.6 1 1.8
v -2.6 1 1.4
v -2.2 -2 2
v -2.2 -2 1.8
v -2.2 -1.8 2
v -2.2 -1.8 1.8
v -2 -2 1.8
v -2 -2 1.6
v -2 -1.8 1.8
v -2 -1.8 1.6
v -1.6 -2 1.6
v -1.6 -2 1.4
v -1.6 -1.8 1.6
v -1.6 -1.8 1.4
v -1 -1.8 1.6
v -1 -1.8 1.4
v -1 -1.2 1.6
v -1 -1.2 1.4
v -0.2 -2 1.8
v -0.2 -2 1.6
v -0.2 -1.8 1.8
v -0.2 -1.8 1.6
v 0.2 -2 2
v 0.2 -2 1.8
v 0.2 -1.8 2
v 0.2 -1.8 1.8
v 0.7 -1.1 1.8
v 0.7 -1.1 1.7
v 0.7 -1 1.7
v 0.7 0.9 1.8
v 0.7 0.9 1.7
v -2.5 -1.1 1.8
v -2.5 -1.1 1.7
v -2.5 -1 1.7
v -2.5 0.9 1.8
v -2.5 0.9 1.7
v -2 -2 2
v -2 -2 1.8
v -2 -1.8 2
v -2 -1.8 1.8
v -1.6 -2 1.8
v -1.6 -2 1.6
v -1.6 -1.8 1.8
v -1.6 -1.8 1.6
v -0.8 -1.8 1.6
v -0.8 -1.8 1.4
v -0.8 -1.2 1.6
v -0.8 -1.2 1.4
v -0.2 -2 1.6
v -0.2 -2 1.4
v -0.2 -1.8 1.6
v -0.2 -1.8 1.4
v 0.2 -2 1.8
v 0.2 -2 1.6
v 0.2 -1.8 1.8
v 0.2 -1.8 1.6
v 0.4 -2 2
v 0.4 -2 1.8
v 0.4 -1.8 2
v 0.4 -1.8 1.8
v 0.8 -1.2 1.8
v 0.8 -1.2 1.4
v 0.8 1 1.8
v 0.8 1 1.4
v -2.2 -2 2
v -2.2 -1.8 2
v -2 -2 2
v -2 -1.8 2
v 0.2 -2 2
v 0.2 -1.8 2
v 0.4 -2 2
v 0.4 -1.8 2
v -2.6 -1.2 1.8
v -2.6 1 1.8
v -2.5 -1.1 1.8
v -2.5 0.9 1.8
v -2 -2 1.8
v -2 -1.8 1.8
v -1.6 -2 1.8
v -1.6 -1.8 1.8
v -0.2 -2 1.8
v -0.2 -1.8 1.8
v 0.2 -2 1.8
v 0.2 -1.8 1.8
v 0.3 -1.2 1.8
v 0.3 -1.1 1.8
v 0.4 -1.2 1.8
v 0.4 -1.1 1.8
v 0.5 -1.2 1.8
v 0.5 -1.1 1.8
v 0.6 -1.2 1.8
v 0.6 -1.1 1.8
v 0.7 -1.1 1.8
v 0.7 0.9 1.8
v 0.8 -1.2 1.8
v 0.8 1 1.8
v -2.5 -1.1 1.7
v -2.5 -1 1.7
v -2.5 0.9 1.7
v -2.4 -0.8 1.7
v -2.4 -0.5 1.7
v -2.4 -0.4 1.7
v -2.4 -0.0999999 1.7
v -2.4 2.38419e-07 1.7
v -2.4 0.3 1.7
v -2.4 0.4 1.7
v -2.4 0.7 1.7
v -2.3 -0.6 1.7
v -2.3 -0.5 1.7
v -2.3 -0.2 1.7
v -2.3 -0.0999999 1.7
v -2.3 0.2 1.7
v -2.3 0.3 1.7
v -2.3 0.6 1.7
v -2.3 0.7 1.7
v -2.2 -0.8 1.7
v -2.2 -0.6 1.7
v -2.2 -0.4 1.7
v -2.2 -0.2 1.7
v -2.2 2.38419e-07 1.7
v -2.2 0.2 1.7
v -2.2 0.4 1.7
v -2.2 0.6 1.7
v -2 -0.8 1.7
v -2 -0.5 1.7
v -2 -0.4 1.7
v -2 -0.0999999 1.7
v -2 2.38419e-07 1.7
v -2 0.3 1.7
v -2 0.4 1.7
v -2 0.7 1.7
v -1.9 -0.6 1.7
v -1.9 -0.5 1.7
v -1.9 -0.2 1.7
v -1.9 -0.0999999 1.7
v -1.9 0.2 1.7
v -1.9 0.3 1.7
v -1.9 0.6 1.7
v -1.9 0.7 1.7
v -1.8 -0.8 1.7
v -1.8 -0.6 1.7
v -1.8 -0.4 1.7
v -1.8 -0.2 1.7
v -1.8 2.38419e-07 1.7
v -1.8 0.2 1.7
v -1.8 0.4 1.7
v -1.8 0.6 1.7
v -1.5 -0.8 1.7
v -1.5 0.3 1.7
v -1.5 0.4 1.7
v -1.5 0.6 1.7
v -1.4 -0.2 1.7
v -1.4 0.2 1.7
v -1.3 0.3 1.7
v -1.3 0.4 1.7
v -1 0.3 1.7
v -1 0.4 1.7
v -0.8 -0.7 1.7
v -0.8 -0.6 1.7
v -0.8 -0.5 1.7
v -0.8 -0.4 1.7
v -0.8 -0.2 1.7
v -0.8 -0.0999999 1.7
v -0.7 -0.2 1.7
v -0.7 -0.0999999 1.7
v -0.7 0.2 1.7
v -0.6 -0.7 1.7
v -0.6 -0.6 1.7
v -0.6 -0.5 1.7
v -0.6 -0.4 1.7
v -0.5 -0.7 1.7
v -0.5 -0.6 1.7
v -0.5 -0.5 1.7
v -0.5 -0.4 1.7
v -0.5 -0.3 1.7
v -0.5 -0.2 1.7
v -0.5 -0.0999999 1.7
v -0.5 2.38419e-07 1.7
v -0.5 0.1 1.7
v -0.5 0.2 1.7
v -0.3 -0.7 1.7
v -0.3 -0.6 1.7
v -0.3 -0.5 1.7
v -0.3 -0.4 1.7
v -0.2 -0.7 1.7
v -0.2 -0.6 1.7
v -0.2 -0.5 1.7
v -0.2 -0.4 1.7
v -0.2 0.3 1.7
v -0.2 0.4 1.7
v -0.0999999 0.4 1.7
v -0.0999999 0.6 1.7
v 0 -0.7 1.7
v 0 -0.6 1.7
v 0 -0.5 1.7
v 0 -0.4 1.7
v 0 -0.3 1.7
v 0 -0.2 1.7
v 0 -0.0999999 1.7
v 0 2.38419e-07 1.7
v 0 0.1 1.7
v 0 0.2 1.7
v 0 0.3 1.7
v 0 0.4 1.7
v 0.0999999 -0.8 1.7
v 0.0999999 0.3 1.7
v 0.0999999 0.4 1.7
v 0.0999999 0.6 1.7
v 0.3 -1.1 1.7
v 0.4 -1.1 1.7
v 0.5 -1.1 1.7
v 0.6 -1.1 1.7
v 0.7 -1.1 1.7
v 0.7 -1 1.7
v 0.7 0.9 1.7
v -1.6 -2 1.6
v -1.6 -1.8 1.6
v -1 -1.8 1.6
v -1 -1.2 1.6
v -0.8 -1.8 1.6
v -0.8 -1.2 1.6
v -0.2 -2 1.6
v -0.2 -1.8 1.6
v -2.2 -2 1.8
v -2.2 -1.8 1.8
v -2 -2 1.8
v -2 -1.8 1.8
v 0.2 -2 1.8
v 0.2 -1.8 1.8
v 0.4 -2 1.8
v 0.4 -1.8 1.8
v -2 -2 1.6
v -2 -1.8 1.6
v -1.6 -2 1.6
v -1.6 -1.8 1.6
v -0.2 -2 1.6
v -0.2 -1.8 1.6
v 0.2 -2 1.6
v 0.2 -1.8 1.6
v -2.6 -1.2 1.4
v -2.6 1 1.4
v -1.6 -2 1.4
v -1.6 -1.8 1.4
v -1 -1.8 1.4
v -1 -1.2 1.4
v -0.8 -1.8 1.4
v -0.8 -1.2 1.4
v -0.2 -2 1.4
v -0.2 -1.8 1.4
v 0.8 -1.2 1.4
v 0.8 1 1.4
v -2.2 -2 2
v -2 -2 2
v 0.2 -2 2
v 0.4 -2 2
v -2.2 -2 1.8
v -2 -2 1.8
v -1.6 -2 1.8
v -0.2 -2 1.8
v 0.2 -2 1.8
v 0.4 -2 1.8
v -2 -2 1.6
v -1.6 -2 1.6
v -0.2 -2 1.6
v 0.2 -2 1.6
v -1.6 -2 1.4
v -0.2 -2 1.4
v -2.6 -1.2 1.8
v 0.3 -1.2 1.8
v 0.4 -1.2 1.8
v 0.5 -1.2 1.8
v 0.6 -1.2 1.8
v 0.8 -1.2 1.8
v 0.3 -1.2 1.7
v 0.4 -1.2 1.7
v 0.5 -1.2 1.7
v 0.6 -1.2 1.7
v -1 -1.2 1.6
v -0.8 -1.2 1.6
v -2.6 -1.2 1.4
v -1 -1.2 1.4
v -0.8 -1.2 1.4
v 0.8 -1.2 1.4
v -2.5 0.9 1.8
v 0.7 0.9 1.8
v -2.5 0.9 1.7
v 0.7 0.9 1.7
v -2.2 -1.8 2
v -2 -1.8 2
v 0.2 -1.8 2
v 0.4 -1.8 2
v -2.2 -1.8 1.8
v -2 -1.8 1.8
v -1.6 -1.8 1.8
v -0.2 -1.8 1.8
v 0.2 -1.8 1.8
v 0.4 -1.8 1.8
v -2 -1.8 1.6
v -1.6 -1.8 1.6
v -1 -1.8 1.6
v -0.8 -1.8 1.6
v -0.2 -1.8 1.6
v 0.2 -1.8 1.6
v -1.6 -1.8 1.4
v -1 -1.8 1.4
v -0.8 -1.8 1.4
v -0.2 -1.8 1.4
v -2.5 -1.1 1.8
v 0.3 -1.1 1.8
v 0.4 -1.1 1.8
v 0.5 -1.1 1.8
v 0.6 -1.1 1.8
v 0.7 -1.1 1.8
v -2.5 -1.1 1.7
v 0.3 -1.1 1.7
v 0.4 -1.1 1.7
v 0.5 -1.1 1.7
v 0.6 -1.1 1.7
v 0.7 -1.1 1.7
v -2.6 1 1.8
v 0.8 1 1.8
v -2.6 1 1.4
v 0.8 1 1.4

# faces
f 3/11/1 2/11/1 1/11/1
f 4/11/1 2/11/1 3/11/1
f 7/10/1 6/10/1 5/10/1
f 8/10/1 6/10/1 7/10/1
f 11/10/1 10/10/1 9/10/1
f 12/10/1 10/10/1 11/10/1
f 15/10/1 14/10/1 13/10/1
f 16/10/1 14/10/1 15/10/1
f 19/10/1 18/10/1 17/10/1
f 20/10/1 18/10/1 19/10/1
f 23/10/1 22/10/1 21/10/1
f 24/10/1 22/10/1 23/10/1
f 27/10/1 26/10/1 25/10/1
f 28/10/1 26/10/1 27/10/1
f 31/11/1 30/11/1 29/11/1
f 32/11/1 31/11/1 29/11/1
f 33/11/1 31/11/1 32/11/1
f 34/11/2 35/11/2 36/11/2
f 34/11/2 36/11/2 37/11/2
f 37/11/2 36/11/2 38/11/2
f 39/10/2 40/10/2 41/10/2
f 41/10/2 40/10/2 42/10/2
f 43/10/2 44/10/2 45/10/2
f 45/10/2 44/10/2 46/10/2
f 47/10/2 48/10/2 49/10/2
f 49/10/2 48/10/2 50/10/2
f 51/10/2 52/10/2 53/10/2
f 53/10/2 52/10/2 54/10/2
f 55/10/2 56/10/2 57/10/2
f 57/10/2 56/10/2 58/10/2
f 59/10/2 60/10/2 61/10/2
f 61/10/2 60/10/2 62/10/2
f 63/11/2 64/11/2 65/11/2
f 65/11/2 64/11/2 66/11/2
f 69/10/3 68/10/3 67/10/3
f 70/10/3 68/10/3 69/10/3
f 73/10/3 72/10/3 71/10/3
f 74/10/3 72/10/3 73/10/3
f 77/11/3 76/11/3 75/11/3
f 78/11/3 76/11/3 77/11/3
f 81/10/3 80/10/3 79/10/3
f 82/10/3 80/10/3 81/10/3
f 85/10/3 84/10/3 83/10/3
f 86/10/3 84/10/3 85/10/3
f 87/11/3 77/11/3 75/11/3
f 88/11/3 77/11/3 87/11/3
f 89/3/3 88/3/3 87/3/3
f 90/3/3 88/3/3 89/3/3
f 91/11/3 90/11/3 89/11/3
f 92/11/3 90/11/3 91/11/3
f 93/5/3 92/5/3 91/5/3
f 94/5/3 92/5/3 93/5/3
f 95/11/3 94/11/3 93/11/3
f 96/11/3 76/11/3 78/11/3
f 97/11/3 95/11/3 93/11/3
f 97/11/3 96/11/3 95/11/3
f 98/11/3 76/11/3 96/11/3
f 98/11/3 96/11/3 97/11/3
f 102/4/3 101/4/3 100/4/3
f 103/4/3 101/4/3 102/4/3
f 104/4/3 101/4/3 103/4/3
f 105/4/3 101/4/3 104/4/3
f 106/4/3 101/4/3 105/4/3
f 107/4/3 101/4/3 106/4/3
f 108/4/3 101/4/3 107/4/3
f 109/4/3 101/4/3 108/4/3
f 110/1/3 103/1/3 102/1/3
f 111/4/3 104/4/3 103/4/3
f 111/1/3 103/1/3 110/1/3
f 112/1/3 105/1/3 104/1/3
f 113/4/3 106/4/3 105/4/3
f 113/1/3 105/1/3 112/1/3
f 114/1/3 107/1/3 106/1/3
f 115/4/3 108/4/3 107/4/3
f 115/1/3 107/1/3 114/1/3
f 116/1/3 109/1/3 108/1/3
f 117/4/3 101/4/3 109/4/3
f 117/1/3 109/1/3 116/1/3
f 118/4/3 102/4/3 100/4/3
f 118/1/3 110/1/3 102/1/3
f 119/4/3 111/4/3 110/4/3
f 119/1/3 110/1/3 118/1/3
f 120/4/3 104/4/3 111/4/3
f 120/4/3 111/4/3 119/4/3
f 120/1/3 112/1/3 104/1/3
f 121/4/3 113/4/3 112/4/3
f 121/1/3 112/1/3 120/1/3
f 122/4/3 106/4/3 113/4/3
f 122/4/3 113/4/3 121/4/3
f 122/1/3 114/1/3 106/1/3
f 123/4/3 115/4/3 114/4/3
f 123/1/3 114/1/3 122/1/3
f 124/1/3 116/1/3 108/1/3
f 124/4/3 115/4/3 123/4/3
f 124/4/3 108/4/3 115/4/3
f 125/4/3 117/4/3 116/4/3
f 125/1/3 116/1/3 124/1/3
f 126/4/3 123/4/3 122/4/3
f 126/4/3 124/4/3 123/4/3
f 126/4/3 125/4/3 124/4/3
f 126/4/3 118/4/3 100/4/3
f 126/4/3 120/4/3 119/4/3
f 126/4/3 121/4/3 120/4/3
f 126/4/3 122/4/3 121/4/3
f 126/4/3 119/4/3 118/4/3
f 127/4/3 125/4/3 126/4/3
f 128/4/3 125/4/3 127/4/3
f 129/4/3 125/4/3 128/4/3
f 130/4/3 125/4/3 129/4/3
f 131/4/3 125/4/3 130/4/3
f 132/4/3 125/4/3 131/4/3
f 133/4/3 101/4/3 117/4/3
f 133/4/3 125/4/3 132/4/3
f 133/4/3 117/4/3 125/4/3
f 134/1/3 127/1/3 126/1/3
f 135/4/3 128/4/3 127/4/3
f 135/1/3 127/1/3 134/1/3
f 136/1/3 129/1/3 128/1/3
f 137/4/3 130/4/3 129/4/3
f 137/1/3 129/1/3 136/1/3
f 138/1/3 131/1/3 130/1/3
f 139/4/3 132/4/3 131/4/3
f 139/1/3 131/1/3 138/1/3
f 140/1/3 133/1/3 132/1/3
f 141/4/3 101/4/3 133/4/3
f 141/1/3 133/1/3 140/1/3
f 142/4/3 126/4/3 100/4/3
f 142/1/3 134/1/3 126/1/3
f 143/4/3 135/4/3 134/4/3
f 143/1/3 134/1/3 142/1/3
f 144/4/3 128/4/3 135/4/3
f 144/4/3 135/4/3 143/4/3
f 144/1/3 136/1/3 128/1/3
f 145/4/3 137/4/3 136/4/3
f 145/1/3 136/1/3 144/1/3
f 146/1/3 138/1/3 130/1/3
f 146/4/3 137/4/3 145/4/3
f 146/4/3 130/4/3 137/4/3
f 147/4/3 139/4/3 138/4/3
f 147/1/3 138/1/3 146/1/3
f 148/1/3 140/1/3 132/1/3
f 148/4/3 139/4/3 147/4/3
f 148/4/3 132/4/3 139/4/3
f 149/4/3 141/4/3 140/4/3
f 149/1/3 140/1/3 148/1/3
f 150/4/3 145/4/3 144/4/3
f 150/4/3 144/4/3 143/4/3
f 150/4/3 149/4/3 148/4/3
f 150/4/3 142/4/3 100/4/3
f 150/4/3 146/4/3 145/4/3
f 150/4/3 143/4/3 142/4/3
f 150/4/3 148/4/3 147/4/3
f 150/4/3 147/4/3 146/4/3
f 151/4/3 149/4/3 150/4/3
f 152/4/3 149/4/3 151/4/3
f 153/4/3 141/4/3 149/4/3
f 153/4/3 149/4/3 152/4/3
f 154/10/3 151/10/3 150/10/3
f 155/10/3 151/10/3 154/10/3
f 156/6/3 152/6/3 151/6/3
f 156/10/3 151/10/3 155/10/3
f 157/7/3 153/7/3 152/7/3
f 157/6/3 152/6/3 156/6/3
f 158/10/3 156/10/3 155/10/3
f 158/8/3 157/8/3 156/8/3
f 159/7/3 153/7/3 157/7/3
f 159/8/3 157/8/3 158/8/3
f 160/10/3 154/10/3 150/10/3
f 161/10/3 154/10/3 160/10/3
f 162/10/3 154/10/3 161/10/3
f 163/10/3 154/10/3 162/10/3
f 164/2/3 155/2/3 154/2/3
f 164/10/3 154/10/3 163/10/3
f 165/2/3 155/2/3 164/2/3
f 166/10/3 164/10/3 163/10/3
f 166/11/3 165/11/3 164/11/3
f 167/2/3 155/2/3 165/2/3
f 167/11/3 165/11/3 166/11/3
f 168/10/3 158/10/3 155/10/3
f 168/2/3 155/2/3 167/2/3
f 169/10/3 160/10/3 150/10/3
f 169/11/3 161/11/3 160/11/3
f 170/10/3 162/10/3 161/10/3
f 170/11/3 161/11/3 169/11/3
f 171/11/3 163/11/3 162/11/3
f 171/10/3 162/10/3 170/10/3
f 172/10/3 167/10/3 166/10/3
f 172/11/3 163/11/3 171/11/3
f 172/10/3 168/10/3 167/10/3
f 172/10/3 166/10/3 163/10/3
f 173/10/3 170/10/3 169/10/3
f 173/10/3 171/10/3 170/10/3
f 173/10/3 172/10/3 171/10/3
f 173/10/3 169/10/3 150/10/3
f 174/10/3 172/10/3 173/10/3
f 175/10/3 172/10/3 174/10/3
f 176/10/3 168/10/3 172/10/3
f 176/10/3 172/10/3 175/10/3
f 177/10/3 168/10/3 176/10/3
f 178/10/3 168/10/3 177/10/3
f 179/10/3 168/10/3 178/10/3
f 180/10/3 168/10/3 179/10/3
f 181/10/3 168/10/3 180/10/3
f 182/10/3 158/10/3 168/10/3
f 182/10/3 168/10/3 181/10/3
f 183/10/3 173/10/3 150/10/3
f 183/11/3 174/11/3 173/11/3
f 184/10/3 175/10/3 174/10/3
f 184/11/3 174/11/3 183/11/3
f 185/11/3 176/11/3 175/11/3
f 185/10/3 175/10/3 184/10/3
f 186/10/3 177/10/3 176/10/3
f 186/11/3 176/11/3 185/11/3
f 187/10/3 183/10/3 150/10/3
f 187/10/3 184/10/3 183/10/3
f 187/10/3 186/10/3 185/10/3
f 187/10/3 185/10/3 184/10/3
f 188/10/3 186/10/3 187/10/3
f 189/10/3 186/10/3 188/10/3
f 190/10/3 177/10/3 186/10/3
f 190/10/3 186/10/3 189/10/3
f 191/9/3 159/9/3 158/9/3
f 191/10/3 158/10/3 182/10/3
f 192/7/3 153/7/3 159/7/3
f 192/9/3 159/9/3 191/9/3
f 193/8/3 192/8/3 191/8/3
f 193/7/3 153/7/3 192/7/3
f 194/4/3 141/4/3 153/4/3
f 194/7/3 153/7/3 193/7/3
f 195/10/3 187/10/3 150/10/3
f 195/11/3 188/11/3 187/11/3
f 196/10/3 189/10/3 188/10/3
f 196/11/3 188/11/3 195/11/3
f 197/11/3 190/11/3 189/11/3
f 197/10/3 189/10/3 196/10/3
f 198/10/3 177/10/3 190/10/3
f 198/11/3 190/11/3 197/11/3
f 199/11/3 178/11/3 177/11/3
f 199/10/3 177/10/3 198/10/3
f 200/10/3 179/10/3 178/10/3
f 200/11/3 178/11/3 199/11/3
f 201/11/3 180/11/3 179/11/3
f 201/10/3 179/10/3 200/10/3
f 202/10/3 181/10/3 180/10/3
f 202/11/3 180/11/3 201/11/3
f 203/11/3 182/11/3 181/11/3
f 203/10/3 181/10/3 202/10/3
f 204/10/3 191/10/3 182/10/3
f 204/11/3 182/11/3 203/11/3
f 205/8/3 193/8/3 191/8/3
f 205/10/3 191/10/3 204/10/3
f 206/5/3 194/5/3 193/5/3
f 206/8/3 193/8/3 205/8/3
f 207/10/3 195/10/3 150/10/3
f 207/4/3 150/4/3 100/4/3
f 207/10/3 204/10/3 203/10/3
f 207/10/3 205/10/3 204/10/3
f 207/10/3 201/10/3 200/10/3
f 207/10/3 198/10/3 197/10/3
f 207/10/3 199/10/3 198/10/3
f 207/10/3 200/10/3 199/10/3
f 207/10/3 202/10/3 201/10/3
f 207/10/3 196/10/3 195/10/3
f 207/10/3 197/10/3 196/10/3
f 207/10/3 203/10/3 202/10/3
f 208/9/3 206/9/3 205/9/3
f 208/10/3 205/10/3 207/10/3
f 209/5/3 194/5/3 206/5/3
f 209/9/3 206/9/3 208/9/3
f 210/4/3 141/4/3 194/4/3
f 210/5/3 194/5/3 209/5/3
f 211/10/3 100/10/3 99/10/3
f 212/10/3 100/10/3 211/10/3
f 213/10/3 100/10/3 212/10/3
f 214/10/3 100/10/3 213/10/3
f 215/10/3 100/10/3 214/10/3
f 216/4/3 208/4/3 207/4/3
f 216/10/3 100/10/3 215/10/3
f 216/4/3 207/4/3 100/4/3
f 216/4/3 209/4/3 208/4/3
f 216/4/3 210/4/3 209/4/3
f 217/4/3 141/4/3 210/4/3
f 217/4/3 210/4/3 216/4/3
f 217/4/3 101/4/3 141/4/3
f 220/10/3 219/10/3 218/10/3
f 222/10/3 220/10/3 218/10/3
f 222/10/3 221/10/3 220/10/3
f 223/10/3 221/10/3 222/10/3
f 224/10/3 222/10/3 218/10/3
f 225/10/3 222/10/3 224/10/3
f 226/10/4 227/10/4 228/10/4
f 228/10/4 227/10/4 229/10/4
f 230/10/4 231/10/4 232/10/4
f 232/10/4 231/10/4 233/10/4
f 234/10/4 235/10/4 236/10/4
f 236/10/4 235/10/4 237/10/4
f 238/10/4 239/10/4 240/10/4
f 240/10/4 239/10/4 241/10/4
f 244/10/4 245/10/4 246/10/4
f 242/11/4 243/11/4 247/11/4
f 244/10/4 246/10/4 248/10/4
f 246/10/4 247/10/4 248/10/4
f 247/11/4 243/11/4 249/11/4
f 248/10/4 247/10/4 249/10/4
f 244/10/4 248/10/4 250/10/4
f 250/10/4 248/10/4 251/10/4
f 249/11/4 243/11/4 252/11/4
f 252/11/4 243/11/4 253/11/4
f 258/10/5 255/10/5 254/10/5
f 259/10/5 255/10/5 258/10/5
f 262/10/5 257/10/5 256/10/5
f 263/10/5 257/10/5 262/10/5
f 264/10/5 260/10/5 259/10/5
f 265/10/5 260/10/5 264/10/5
f 266/10/5 262/10/5 261/10/5
f 267/10/5 262/10/5 266/10/5
f 268/10/5 266/10/5 265/10/5
f 269/10/5 266/10/5 268/10/5
f 276/11/5 271/11/5 270/11/5
f 276/3/5 272/3/5 271/3/5
f 277/11/5 273/11/5 272/11/5
f 277/3/5 272/3/5 276/3/5
f 278/5/5 274/5/5 273/5/5
f 278/11/5 273/11/5 277/11/5
f 279/11/5 275/11/5 274/11/5
f 279/5/5 274/5/5 278/5/5
f 280/11/5 278/11/5 277/11/5
f 280/11/5 277/11/5 276/11/5
f 280/11/5 279/11/5 278/11/5
f 280/11/5 276/11/5 270/11/5
f 281/11/5 279/11/5 280/11/5
f 282/11/5 280/11/5 270/11/5
f 283/11/5 280/11/5 282/11/5
f 284/11/5 279/11/5 281/11/5
f 285/11/5 275/11/5 279/11/5
f 285/11/5 279/11/5 284/11/5
f 288/11/5 287/11/5 286/11/5
f 289/11/5 287/11/5 288/11/5
f 290/10/6 291/10/6 294/10/6
f 294/10/6 291/10/6 295/10/6
f 292/10/6 293/10/6 298/10/6
f 298/10/6 293/10/6 299/10/6
f 295/10/6 296/10/6 300/10/6
f 300/10/6 296/10/6 301/10/6
f 297/10/6 298/10/6 304/10/6
f 304/10/6 298/10/6 305/10/6
f 301/10/6 302/10/6 306/10/6
f 306/10/6 302/10/6 307/10/6
f 303/10/6 304/10/6 308/10/6
f 308/10/6 304/10/6 309/10/6
f 310/11/6 311/11/6 316/11/6
f 311/3/6 312/3/6 317/3/6
f 316/11/6 311/11/6 317/11/6
f 312/11/6 313/11/6 318/11/6
f 317/3/6 312/3/6 318/3/6
f 313/5/6 314/5/6 319/5/6
f 318/11/6 313/11/6 319/11/6
f 314/11/6 315/11/6 320/11/6
f 319/5/6 314/5/6 320/5/6
f 320/11/6 315/11/6 321/11/6
f 322/11/6 323/11/6 324/11/6
f 324/11/6 323/11/6 325/11/6
