# MagicaVoxel @ Ephtracy

# group
o 

# material
mtllib tv.mtl
usemtl palette

# normals
vn -1 0 0
vn 1 0 0
vn 0 0 1
vn 0 0 -1
vn 0 -1 0
vn 0 1 0

# texcoords
vt 0.162109 0.5
vt 0.298828 0.5
vt 0.427734 0.5
vt 0.779297 0.5
vt 0.841797 0.5
vt 0.923828 0.5
vt 0.958984 0.5
vt 0.974609 0.5
vt 0.978516 0.5
vt 0.982422 0.5
vt 0.986328 0.5
vt 0.990234 0.5
vt 0.994141 0.5

# verts
v -0.8 1 0
v -0.8 1 -0.6
v -0.8 1.1 -0.1
v -0.8 1.1 -0.5
v -0.8 1.5 -0.4
v -0.8 1.5 -0.5
v -0.8 1.6 -0.5
v -0.8 1.6 -0.6
v -0.8 2.3 -0.1
v -0.8 2.3 -0.4
v -0.8 2.4 0
v -0.8 2.4 -0.5
v 0.8 1.1 0
v 0.8 1.1 -0.1
v 0.8 1.2 -0.1
v 0.8 2.3 0
v 0.8 2.3 -0.1
v 0.9 1.2 0.1
v 0.9 1.2 0
v 0.9 1.4 0.1
v 0.9 1.4 0
v -0.7 1.1 0
v -0.7 1.1 -0.1
v -0.7 1.2 -0.1
v -0.7 2.3 0
v -0.7 2.3 -0.1
v 1.1 1.2 0.1
v 1.1 1.2 0
v 1.1 1.4 0.1
v 1.1 1.4 0
v 1.2 1 0
v 1.2 1 -0.6
v 1.2 1.1 -0.1
v 1.2 1.1 -0.5
v 1.2 1.5 -0.4
v 1.2 1.5 -0.5
v 1.2 1.6 -0.5
v 1.2 1.6 -0.6
v 1.2 2.3 -0.1
v 1.2 2.3 -0.4
v 1.2 2.4 0
v 1.2 2.4 -0.5
v 0.9 1.2 0.1
v 0.9 1.4 0.1
v 1.1 1.2 0.1
v 1.1 1.4 0.1
v -0.8 1 0
v -0.8 2.4 0
v -0.7 1.1 0
v -0.7 2.3 0
v 0.6 1 0
v 0.6 1.1 0
v 0.7 1 0
v 0.7 1.1 0
v 0.8 1 0
v 0.8 1.1 0
v 0.8 2.3 0
v 0.9 1.2 0
v 0.9 1.4 0
v 0.9 1.5 0
v 0.9 2.3 0
v 1.1 1.2 0
v 1.1 1.4 0
v 1.1 1.5 0
v 1.1 2.3 0
v 1.2 1 0
v 1.2 2.4 0
v -0.7 1.1 -0.1
v -0.7 1.2 -0.1
v -0.7 2.3 -0.1
v -0.6 1.1 -0.1
v -0.6 1.2 -0.1
v -0.6 1.5 -0.1
v -0.6 1.8 -0.1
v -0.6 1.9 -0.1
v -0.6 2.2 -0.1
v -0.5 1.1 -0.1
v -0.5 1.2 -0.1
v -0.5 1.7 -0.1
v -0.5 1.8 -0.1
v -0.5 2.1 -0.1
v -0.5 2.2 -0.1
v -0.4 1.1 -0.1
v -0.4 1.2 -0.1
v -0.4 1.3 -0.1
v -0.4 1.5 -0.1
v -0.4 1.7 -0.1
v -0.4 1.9 -0.1
v -0.4 2 -0.1
v -0.4 2.1 -0.1
v -0.3 1.1 -0.1
v -0.3 1.2 -0.1
v -0.3 1.6 -0.1
v -0.3 1.7 -0.1
v -0.3 2.1 -0.1
v -0.3 2.2 -0.1
v -0.2 1.1 -0.1
v -0.2 1.2 -0.1
v -0.2 1.5 -0.1
v -0.2 1.6 -0.1
v -0.2 1.7 -0.1
v -0.2 1.8 -0.1
v -0.2 2.1 -0.1
v -0.2 2.2 -0.1
v -0.1 1.1 -0.1
v -0.1 1.2 -0.1
v -0.1 1.4 -0.1
v -0.1 1.5 -0.1
v -0.1 1.6 -0.1
v -0.1 1.7 -0.1
v -0.1 1.8 -0.1
v -0.1 1.9 -0.1
v 0 1.1 -0.1
v 0 1.2 -0.1
v 0 1.4 -0.1
v 0 1.5 -0.1
v 0 1.8 -0.1
v 0 1.9 -0.1
v 0.1 1.1 -0.1
v 0.1 1.2 -0.1
v 0.1 1.3 -0.1
v 0.1 1.4 -0.1
v 0.2 1.1 -0.1
v 0.2 1.2 -0.1
v 0.4 1.3 -0.1
v 0.4 1.4 -0.1
v 0.5 2 -0.1
v 0.5 2.1 -0.1
v 0.6 1.1 -0.1
v 0.6 1.3 -0.1
v 0.6 2 -0.1
v 0.6 2.1 -0.1
v 0.7 1.1 -0.1
v 0.8 1.1 -0.1
v 0.8 1.2 -0.1
v 0.8 2.3 -0.1
v -0.8 1.6 -0.5
v -0.8 2.4 -0.5
v -0.6 1.6 -0.5
v -0.6 2.3 -0.5
v -0.5 1.6 -0.5
v -0.5 2.3 -0.5
v -0.4 1.6 -0.5
v -0.4 2.3 -0.5
v -0.3 1.6 -0.5
v -0.3 2.3 -0.5
v -0.2 1.6 -0.5
v -0.2 2.3 -0.5
v -0.1 1.6 -0.5
v -0.1 2.3 -0.5
v 0 1.6 -0.5
v 0 2.3 -0.5
v 0.1 1.6 -0.5
v 0.1 2.3 -0.5
v 0.2 1.6 -0.5
v 0.2 2.3 -0.5
v 0.3 1.6 -0.5
v 0.3 2.3 -0.5
v 0.4 1.6 -0.5
v 0.4 2.3 -0.5
v 0.5 1.6 -0.5
v 0.5 2.3 -0.5
v 0.6 1.6 -0.5
v 0.6 2.3 -0.5
v 0.7 1.6 -0.5
v 0.7 2.3 -0.5
v 0.8 1.6 -0.5
v 0.8 2.3 -0.5
v 0.9 1.6 -0.5
v 0.9 2.3 -0.5
v 1 1.6 -0.5
v 1 2.3 -0.5
v 1.1 1.6 -0.5
v 1.1 2.3 -0.5
v 1.2 1.6 -0.5
v 1.2 2.4 -0.5
v -0.8 1 -0.6
v -0.8 1.6 -0.6
v -0.7 1.1 -0.6
v -0.7 1.5 -0.6
v 1.1 1.1 -0.6
v 1.1 1.5 -0.6
v 1.2 1 -0.6
v 1.2 1.6 -0.6
v -0.8 1 0
v 0.6 1 0
v 0.7 1 0
v 0.8 1 0
v 1.2 1 0
v -0.7 1 -0.1
v 0.6 1 -0.1
v 0.7 1 -0.1
v 0.8 1 -0.1
v 1.1 1 -0.1
v -0.7 1 -0.5
v 1.1 1 -0.5
v -0.8 1 -0.6
v 1.2 1 -0.6
v 0.9 1.2 0.1
v 1.1 1.2 0.1
v 0.9 1.2 0
v 1.1 1.2 0
v -0.7 2.3 0
v 0.8 2.3 0
v -0.7 2.3 -0.1
v 0.8 2.3 -0.1
v -0.7 1.1 0
v 0.6 1.1 0
v 0.7 1.1 0
v 0.8 1.1 0
v -0.7 1.1 -0.1
v -0.6 1.1 -0.1
v -0.5 1.1 -0.1
v -0.4 1.1 -0.1
v -0.3 1.1 -0.1
v -0.2 1.1 -0.1
v -0.1 1.1 -0.1
v 0 1.1 -0.1
v 0.1 1.1 -0.1
v 0.2 1.1 -0.1
v 0.6 1.1 -0.1
v 0.7 1.1 -0.1
v 0.8 1.1 -0.1
v 0.9 1.4 0.1
v 1.1 1.4 0.1
v 0.9 1.4 0
v 1.1 1.4 0
v -0.8 1.6 -0.5
v -0.6 1.6 -0.5
v -0.5 1.6 -0.5
v -0.4 1.6 -0.5
v -0.3 1.6 -0.5
v -0.2 1.6 -0.5
v -0.1 1.6 -0.5
v 0 1.6 -0.5
v 0.1 1.6 -0.5
v 0.2 1.6 -0.5
v 0.3 1.6 -0.5
v 0.4 1.6 -0.5
v 0.5 1.6 -0.5
v 0.6 1.6 -0.5
v 0.7 1.6 -0.5
v 0.8 1.6 -0.5
v 0.9 1.6 -0.5
v 1 1.6 -0.5
v 1.1 1.6 -0.5
v 1.2 1.6 -0.5
v -0.8 1.6 -0.6
v 1.2 1.6 -0.6
v -0.8 2.4 0
v 1.2 2.4 0
v -0.7 2.4 -0.1
v 1.1 2.4 -0.1
v -0.7 2.4 -0.4
v 1.1 2.4 -0.4
v -0.8 2.4 -0.5
v 1.2 2.4 -0.5

# faces
f 3/10/1 2/10/1 1/10/1
f 4/10/1 2/10/1 3/10/1
f 5/11/1 4/11/1 3/11/1
f 6/10/1 2/10/1 4/10/1
f 6/11/1 4/11/1 5/11/1
f 7/10/1 6/10/1 5/10/1
f 7/10/1 2/10/1 6/10/1
f 8/10/1 2/10/1 7/10/1
f 9/10/1 3/10/1 1/10/1
f 9/11/1 5/11/1 3/11/1
f 10/10/1 7/10/1 5/10/1
f 10/11/1 5/11/1 9/11/1
f 11/10/1 9/10/1 1/10/1
f 11/10/1 10/10/1 9/10/1
f 12/10/1 7/10/1 10/10/1
f 12/10/1 10/10/1 11/10/1
f 15/10/1 14/10/1 13/10/1
f 16/10/1 15/10/1 13/10/1
f 17/10/1 15/10/1 16/10/1
f 20/13/1 19/13/1 18/13/1
f 21/13/1 19/13/1 20/13/1
f 22/10/2 23/10/2 24/10/2
f 22/10/2 24/10/2 25/10/2
f 25/10/2 24/10/2 26/10/2
f 27/13/2 28/13/2 29/13/2
f 29/13/2 28/13/2 30/13/2
f 31/10/2 32/10/2 33/10/2
f 33/10/2 32/10/2 34/10/2
f 33/11/2 34/11/2 35/11/2
f 34/10/2 32/10/2 36/10/2
f 35/11/2 34/11/2 36/11/2
f 35/10/2 36/10/2 37/10/2
f 36/10/2 32/10/2 37/10/2
f 37/10/2 32/10/2 38/10/2
f 31/10/2 33/10/2 39/10/2
f 33/11/2 35/11/2 39/11/2
f 35/10/2 37/10/2 40/10/2
f 39/11/2 35/11/2 40/11/2
f 31/10/2 39/10/2 41/10/2
f 39/10/2 40/10/2 41/10/2
f 40/10/2 37/10/2 42/10/2
f 41/10/2 40/10/2 42/10/2
f 45/13/3 44/13/3 43/13/3
f 46/13/3 44/13/3 45/13/3
f 49/10/3 48/10/3 47/10/3
f 50/10/3 48/10/3 49/10/3
f 51/10/3 49/10/3 47/10/3
f 52/10/3 49/10/3 51/10/3
f 53/1/3 52/1/3 51/1/3
f 54/1/3 52/1/3 53/1/3
f 55/5/3 54/5/3 53/5/3
f 56/5/3 54/5/3 55/5/3
f 57/10/3 48/10/3 50/10/3
f 58/10/3 56/10/3 55/10/3
f 58/10/3 57/10/3 56/10/3
f 59/10/3 57/10/3 58/10/3
f 60/10/3 57/10/3 59/10/3
f 61/10/3 48/10/3 57/10/3
f 61/10/3 57/10/3 60/10/3
f 62/10/3 58/10/3 55/10/3
f 63/10/3 60/10/3 59/10/3
f 64/12/3 61/12/3 60/12/3
f 64/10/3 60/10/3 63/10/3
f 65/10/3 48/10/3 61/10/3
f 65/12/3 61/12/3 64/12/3
f 66/10/3 62/10/3 55/10/3
f 66/10/3 64/10/3 63/10/3
f 66/10/3 65/10/3 64/10/3
f 66/10/3 63/10/3 62/10/3
f 67/10/3 48/10/3 65/10/3
f 67/10/3 65/10/3 66/10/3
f 71/9/3 69/9/3 68/9/3
f 72/4/3 70/4/3 69/4/3
f 72/9/3 69/9/3 71/9/3
f 73/4/3 70/4/3 72/4/3
f 74/4/3 70/4/3 73/4/3
f 75/4/3 70/4/3 74/4/3
f 76/4/3 70/4/3 75/4/3
f 77/11/3 72/11/3 71/11/3
f 78/4/3 73/4/3 72/4/3
f 78/11/3 72/11/3 77/11/3
f 79/2/3 74/2/3 73/2/3
f 80/4/3 75/4/3 74/4/3
f 80/2/3 74/2/3 79/2/3
f 81/2/3 76/2/3 75/2/3
f 82/4/3 70/4/3 76/4/3
f 82/2/3 76/2/3 81/2/3
f 83/2/3 78/2/3 77/2/3
f 84/4/3 73/4/3 78/4/3
f 84/2/3 78/2/3 83/2/3
f 85/4/3 73/4/3 84/4/3
f 86/2/3 79/2/3 73/2/3
f 86/4/3 73/4/3 85/4/3
f 87/4/3 80/4/3 79/4/3
f 87/2/3 79/2/3 86/2/3
f 88/2/3 81/2/3 75/2/3
f 88/4/3 80/4/3 87/4/3
f 88/4/3 75/4/3 80/4/3
f 89/2/3 81/2/3 88/2/3
f 90/4/3 82/4/3 81/4/3
f 90/2/3 81/2/3 89/2/3
f 91/11/3 84/11/3 83/11/3
f 92/4/3 85/4/3 84/4/3
f 92/11/3 84/11/3 91/11/3
f 93/12/3 87/12/3 86/12/3
f 93/12/3 86/12/3 85/12/3
f 93/12/3 89/12/3 88/12/3
f 93/12/3 88/12/3 87/12/3
f 94/12/3 89/12/3 93/12/3
f 95/4/3 82/4/3 90/4/3
f 95/7/3 90/7/3 89/7/3
f 96/4/3 70/4/3 82/4/3
f 96/4/3 82/4/3 95/4/3
f 97/6/3 92/6/3 91/6/3
f 98/4/3 85/4/3 92/4/3
f 98/6/3 92/6/3 97/6/3
f 99/12/3 93/12/3 85/12/3
f 100/7/3 94/7/3 93/7/3
f 100/12/3 93/12/3 99/12/3
f 101/12/3 89/12/3 94/12/3
f 101/7/3 94/7/3 100/7/3
f 102/12/3 89/12/3 101/12/3
f 103/7/3 95/7/3 89/7/3
f 103/2/3 96/2/3 95/2/3
f 104/4/3 70/4/3 96/4/3
f 104/2/3 96/2/3 103/2/3
f 105/11/3 98/11/3 97/11/3
f 106/4/3 85/4/3 98/4/3
f 106/11/3 98/11/3 105/11/3
f 107/12/3 99/12/3 85/12/3
f 108/7/3 100/7/3 99/7/3
f 108/12/3 99/12/3 107/12/3
f 109/12/3 101/12/3 100/12/3
f 109/7/3 100/7/3 108/7/3
f 110/7/3 102/7/3 101/7/3
f 110/12/3 101/12/3 109/12/3
f 111/12/3 89/12/3 102/12/3
f 111/7/3 102/7/3 110/7/3
f 112/12/3 89/12/3 111/12/3
f 113/3/3 106/3/3 105/3/3
f 114/4/3 85/4/3 106/4/3
f 114/3/3 106/3/3 113/3/3
f 115/12/3 107/12/3 85/12/3
f 115/7/3 108/7/3 107/7/3
f 116/12/3 110/12/3 109/12/3
f 116/7/3 108/7/3 115/7/3
f 116/12/3 109/12/3 108/12/3
f 116/12/3 111/12/3 110/12/3
f 117/7/3 112/7/3 111/7/3
f 117/12/3 111/12/3 116/12/3
f 118/12/3 89/12/3 112/12/3
f 118/7/3 112/7/3 117/7/3
f 119/11/3 114/11/3 113/11/3
f 120/4/3 85/4/3 114/4/3
f 120/11/3 114/11/3 119/11/3
f 121/12/3 115/12/3 85/12/3
f 121/4/3 85/4/3 120/4/3
f 121/12/3 116/12/3 115/12/3
f 121/12/3 118/12/3 117/12/3
f 121/12/3 117/12/3 116/12/3
f 122/12/3 118/12/3 121/12/3
f 123/8/3 120/8/3 119/8/3
f 124/4/3 121/4/3 120/4/3
f 124/8/3 120/8/3 123/8/3
f 125/7/3 122/7/3 121/7/3
f 125/4/3 121/4/3 124/4/3
f 126/12/3 118/12/3 122/12/3
f 126/7/3 122/7/3 125/7/3
f 127/7/3 103/7/3 89/7/3
f 127/12/3 118/12/3 126/12/3
f 127/12/3 126/12/3 125/12/3
f 127/12/3 89/12/3 118/12/3
f 128/4/3 104/4/3 103/4/3
f 128/7/3 103/7/3 127/7/3
f 129/11/3 124/11/3 123/11/3
f 130/4/3 125/4/3 124/4/3
f 130/12/3 127/12/3 125/12/3
f 131/5/3 128/5/3 127/5/3
f 131/12/3 127/12/3 130/12/3
f 132/4/3 104/4/3 128/4/3
f 132/5/3 128/5/3 131/5/3
f 133/11/3 124/11/3 129/11/3
f 134/11/3 124/11/3 133/11/3
f 135/4/3 131/4/3 130/4/3
f 135/11/3 124/11/3 134/11/3
f 135/4/3 130/4/3 124/4/3
f 135/4/3 132/4/3 131/4/3
f 136/4/3 104/4/3 132/4/3
f 136/4/3 132/4/3 135/4/3
f 136/4/3 70/4/3 104/4/3
f 137/10/4 138/10/4 139/10/4
f 139/10/4 138/10/4 140/10/4
f 139/11/4 140/11/4 141/11/4
f 140/10/4 138/10/4 142/10/4
f 141/11/4 140/11/4 142/11/4
f 141/10/4 142/10/4 143/10/4
f 142/10/4 138/10/4 144/10/4
f 143/10/4 142/10/4 144/10/4
f 143/11/4 144/11/4 145/11/4
f 144/10/4 138/10/4 146/10/4
f 145/11/4 144/11/4 146/11/4
f 145/10/4 146/10/4 147/10/4
f 146/10/4 138/10/4 148/10/4
f 147/10/4 146/10/4 148/10/4
f 147/11/4 148/11/4 149/11/4
f 148/10/4 138/10/4 150/10/4
f 149/11/4 148/11/4 150/11/4
f 149/10/4 150/10/4 151/10/4
f 150/10/4 138/10/4 152/10/4
f 151/10/4 150/10/4 152/10/4
f 151/11/4 152/11/4 153/11/4
f 152/10/4 138/10/4 154/10/4
f 153/11/4 152/11/4 154/11/4
f 153/10/4 154/10/4 155/10/4
f 154/10/4 138/10/4 156/10/4
f 155/10/4 154/10/4 156/10/4
f 155/11/4 156/11/4 157/11/4
f 156/10/4 138/10/4 158/10/4
f 157/11/4 156/11/4 158/11/4
f 157/10/4 158/10/4 159/10/4
f 158/10/4 138/10/4 160/10/4
f 159/10/4 158/10/4 160/10/4
f 159/11/4 160/11/4 161/11/4
f 160/10/4 138/10/4 162/10/4
f 161/11/4 160/11/4 162/11/4
f 161/10/4 162/10/4 163/10/4
f 162/10/4 138/10/4 164/10/4
f 163/10/4 162/10/4 164/10/4
f 163/11/4 164/11/4 165/11/4
f 164/10/4 138/10/4 166/10/4
f 165/11/4 164/11/4 166/11/4
f 165/10/4 166/10/4 167/10/4
f 166/10/4 138/10/4 168/10/4
f 167/10/4 166/10/4 168/10/4
f 167/11/4 168/11/4 169/11/4
f 168/10/4 138/10/4 170/10/4
f 169/11/4 168/11/4 170/11/4
f 169/10/4 170/10/4 171/10/4
f 170/10/4 138/10/4 172/10/4
f 171/10/4 170/10/4 172/10/4
f 171/11/4 172/11/4 173/11/4
f 172/10/4 138/10/4 174/10/4
f 173/11/4 172/11/4 174/11/4
f 173/10/4 174/10/4 175/10/4
f 174/10/4 138/10/4 176/10/4
f 175/10/4 174/10/4 176/10/4
f 177/10/4 178/10/4 179/10/4
f 179/10/4 178/10/4 180/10/4
f 177/10/4 179/10/4 181/10/4
f 179/11/4 180/11/4 181/11/4
f 180/10/4 178/10/4 182/10/4
f 181/11/4 180/11/4 182/11/4
f 177/10/4 181/10/4 183/10/4
f 181/10/4 182/10/4 183/10/4
f 182/10/4 178/10/4 184/10/4
f 183/10/4 182/10/4 184/10/4
f 190/10/5 186/10/5 185/10/5
f 191/1/5 187/1/5 186/1/5
f 191/10/5 186/10/5 190/10/5
f 192/5/5 188/5/5 187/5/5
f 192/1/5 187/1/5 191/1/5
f 193/10/5 189/10/5 188/10/5
f 193/5/5 188/5/5 192/5/5
f 194/10/5 189/10/5 193/10/5
f 195/11/5 192/11/5 191/11/5
f 195/10/5 190/10/5 185/10/5
f 195/11/5 194/11/5 193/11/5
f 195/11/5 193/11/5 192/11/5
f 195/11/5 191/11/5 190/11/5
f 196/10/5 189/10/5 194/10/5
f 196/11/5 194/11/5 195/11/5
f 197/10/5 195/10/5 185/10/5
f 197/10/5 196/10/5 195/10/5
f 198/10/5 189/10/5 196/10/5
f 198/10/5 196/10/5 197/10/5
f 201/13/5 200/13/5 199/13/5
f 202/13/5 200/13/5 201/13/5
f 205/10/5 204/10/5 203/10/5
f 206/10/5 204/10/5 205/10/5
f 207/10/6 208/10/6 211/10/6
f 211/10/6 208/10/6 212/10/6
f 212/10/6 208/10/6 213/10/6
f 213/10/6 208/10/6 214/10/6
f 214/10/6 208/10/6 215/10/6
f 215/10/6 208/10/6 216/10/6
f 216/10/6 208/10/6 217/10/6
f 217/10/6 208/10/6 218/10/6
f 218/10/6 208/10/6 219/10/6
f 219/10/6 208/10/6 220/10/6
f 208/1/6 209/1/6 221/1/6
f 220/10/6 208/10/6 221/10/6
f 209/5/6 210/5/6 222/5/6
f 221/1/6 209/1/6 222/1/6
f 222/5/6 210/5/6 223/5/6
f 224/13/6 225/13/6 226/13/6
f 226/13/6 225/13/6 227/13/6
f 228/10/6 229/10/6 248/10/6
f 246/10/6 247/10/6 248/10/6
f 245/10/6 246/10/6 248/10/6
f 244/10/6 245/10/6 248/10/6
f 243/10/6 244/10/6 248/10/6
f 242/10/6 243/10/6 248/10/6
f 241/10/6 242/10/6 248/10/6
f 240/10/6 241/10/6 248/10/6
f 239/10/6 240/10/6 248/10/6
f 238/10/6 239/10/6 248/10/6
f 237/10/6 238/10/6 248/10/6
f 236/10/6 237/10/6 248/10/6
f 235/10/6 236/10/6 248/10/6
f 234/10/6 235/10/6 248/10/6
f 233/10/6 234/10/6 248/10/6
f 232/10/6 233/10/6 248/10/6
f 231/10/6 232/10/6 248/10/6
f 230/10/6 231/10/6 248/10/6
f 229/10/6 230/10/6 248/10/6
f 248/10/6 247/10/6 249/10/6
f 250/10/6 251/10/6 252/10/6
f 252/10/6 251/10/6 253/10/6
f 250/10/6 252/10/6 254/10/6
f 252/11/6 253/11/6 254/11/6
f 253/10/6 251/10/6 255/10/6
f 254/11/6 253/11/6 255/11/6
f 250/10/6 254/10/6 256/10/6
f 254/10/6 255/10/6 256/10/6
f 255/10/6 251/10/6 257/10/6
f 256/10/6 255/10/6 257/10/6
